<svg width="244" height="45" viewBox="0 0 244 45" fill="none" xmlns="http://www.w3.org/2000/svg">
<g clip-path="url(#clip0_99_3376)">
<path d="M0.318726 0V2.24916H21.3713V42.7146H0.318726V44.9638H45.3187V0H0.318726ZM43.0696 42.7146H23.6204V2.24916H43.0696V42.7146Z" fill="#B1B1B1"/>
<path d="M198.521 0V45H200.77V23.6079H241.269V45H243.518V0H198.521ZM200.77 21.3587V2.24916H241.269V21.3587H200.77Z" fill="#B1B1B1"/>
<path d="M111.385 2.24916V0H66.3853V45H111.385V42.7508H68.6344V23.6246H111.204V21.3754H68.6344V2.24916H111.385Z" fill="#B1B1B1"/>
<path d="M132.452 0V45H134.701V2.24916H153.827V45H156.076V2.24916H175.2V45H177.449V0H132.452Z" fill="#B1B1B1"/>
</g>
<defs>
<clipPath id="clip0_99_3376">
<rect width="243.199" height="45" fill="white" transform="translate(0.318726)"/>
</clipPath>
</defs>
</svg>
