<svg width="241" height="45" viewBox="0 0 241 45" fill="none" xmlns="http://www.w3.org/2000/svg">
<path d="M69.0903 39.25C69.6703 39.47 70.1203 39.805 70.4403 40.255C70.7603 40.705 70.9203 41.235 70.9203 41.845C70.9203 42.725 70.5903 43.45 69.9303 44.02C69.2803 44.58 68.4003 44.86 67.2903 44.86C66.2903 44.86 65.4903 44.635 64.8903 44.185C64.2903 43.735 63.8753 43.17 63.6453 42.49L64.5453 41.98C64.6753 42.51 64.9553 42.96 65.3853 43.33C65.8253 43.69 66.4603 43.87 67.2903 43.87C68.1103 43.87 68.7453 43.685 69.1953 43.315C69.6453 42.935 69.8703 42.445 69.8703 41.845C69.8703 41.245 69.6603 40.76 69.2403 40.39C68.8303 40.01 68.2603 39.82 67.5303 39.82H66.3303V38.83H67.1553C67.8653 38.83 68.4303 38.65 68.8503 38.29C69.2703 37.93 69.4803 37.465 69.4803 36.895C69.4803 36.335 69.2753 35.88 68.8653 35.53C68.4653 35.17 67.9153 34.99 67.2153 34.99C65.9253 34.99 65.0753 35.54 64.6653 36.64L63.7953 36.13C64.0553 35.49 64.4653 34.975 65.0253 34.585C65.5953 34.195 66.3253 34 67.2153 34C68.2053 34 69.0053 34.28 69.6153 34.84C70.2253 35.39 70.5303 36.08 70.5303 36.91C70.5303 37.96 70.0503 38.74 69.0903 39.25ZM81.4117 43.285C80.3617 44.335 79.0767 44.86 77.5567 44.86C76.0367 44.86 74.7517 44.335 73.7017 43.285C72.6517 42.225 72.1268 40.94 72.1268 39.43C72.1268 37.92 72.6517 36.64 73.7017 35.59C74.7517 34.53 76.0367 34 77.5567 34C79.0767 34 80.3617 34.53 81.4117 35.59C82.4617 36.64 82.9867 37.92 82.9867 39.43C82.9867 40.94 82.4617 42.225 81.4117 43.285ZM74.4367 42.565C75.2767 43.415 76.3167 43.84 77.5567 43.84C78.7967 43.84 79.8367 43.415 80.6767 42.565C81.5167 41.705 81.9367 40.66 81.9367 39.43C81.9367 38.2 81.5167 37.16 80.6767 36.31C79.8367 35.45 78.7967 35.02 77.5567 35.02C76.3167 35.02 75.2767 35.45 74.4367 36.31C73.5967 37.16 73.1767 38.2 73.1767 39.43C73.1767 40.66 73.5967 41.705 74.4367 42.565ZM91.5324 34.18H92.5824V44.68H91.5324V39.775H85.8324V44.68H84.7824V34.18H85.8324V38.785H91.5324V34.18ZM101.967 44.68L100.992 42.1H96.0127L95.0377 44.68H93.9277L97.9627 34.18H99.0427L103.077 44.68H101.967ZM96.3877 41.11H100.618L98.5027 35.485L96.3877 41.11ZM114.776 34.18V35.17H111.551V44.68H110.501V35.17H107.276V34.18H114.776ZM122.096 39.235C122.606 39.455 123.011 39.79 123.311 40.24C123.621 40.68 123.776 41.185 123.776 41.755C123.776 42.565 123.491 43.255 122.921 43.825C122.351 44.395 121.661 44.68 120.851 44.68H116.276V34.18H120.506C121.286 34.18 121.951 34.46 122.501 35.02C123.051 35.57 123.326 36.23 123.326 37C123.326 37.98 122.916 38.725 122.096 39.235ZM120.506 35.17H117.326V38.83H120.506C120.996 38.83 121.411 38.655 121.751 38.305C122.101 37.945 122.276 37.51 122.276 37C122.276 36.5 122.101 36.07 121.751 35.71C121.411 35.35 120.996 35.17 120.506 35.17ZM120.851 43.69C121.371 43.69 121.811 43.505 122.171 43.135C122.541 42.755 122.726 42.295 122.726 41.755C122.726 41.225 122.541 40.77 122.171 40.39C121.811 40.01 121.371 39.82 120.851 39.82H117.326V43.69H120.851ZM134.263 43.285C133.213 44.335 131.928 44.86 130.408 44.86C128.888 44.86 127.603 44.335 126.553 43.285C125.503 42.225 124.978 40.94 124.978 39.43C124.978 37.92 125.503 36.64 126.553 35.59C127.603 34.53 128.888 34 130.408 34C131.928 34 133.213 34.53 134.263 35.59C135.313 36.64 135.838 37.92 135.838 39.43C135.838 40.94 135.313 42.225 134.263 43.285ZM127.288 42.565C128.128 43.415 129.168 43.84 130.408 43.84C131.648 43.84 132.688 43.415 133.528 42.565C134.368 41.705 134.788 40.66 134.788 39.43C134.788 38.2 134.368 37.16 133.528 36.31C132.688 35.45 131.648 35.02 130.408 35.02C129.168 35.02 128.128 35.45 127.288 36.31C126.448 37.16 126.028 38.2 126.028 39.43C126.028 40.66 126.448 41.705 127.288 42.565ZM143.484 34.18V35.17H138.684V44.68H137.634V34.18H143.484ZM152.925 43.285C151.875 44.335 150.59 44.86 149.07 44.86C147.55 44.86 146.265 44.335 145.215 43.285C144.165 42.225 143.64 40.94 143.64 39.43C143.64 37.92 144.165 36.64 145.215 35.59C146.265 34.53 147.55 34 149.07 34C150.59 34 151.875 34.53 152.925 35.59C153.975 36.64 154.5 37.92 154.5 39.43C154.5 40.94 153.975 42.225 152.925 43.285ZM145.95 42.565C146.79 43.415 147.83 43.84 149.07 43.84C150.31 43.84 151.35 43.415 152.19 42.565C153.03 41.705 153.45 40.66 153.45 39.43C153.45 38.2 153.03 37.16 152.19 36.31C151.35 35.45 150.31 35.02 149.07 35.02C147.83 35.02 146.79 35.45 145.95 36.31C145.11 37.16 144.69 38.2 144.69 39.43C144.69 40.66 145.11 41.705 145.95 42.565ZM167.396 44.68H166.016L161.096 39.595V44.68H160.046V34.18H161.096V38.98L165.866 34.18H167.246L162.206 39.28L167.396 44.68ZM176.538 43.285C175.488 44.335 174.203 44.86 172.683 44.86C171.163 44.86 169.878 44.335 168.828 43.285C167.778 42.225 167.253 40.94 167.253 39.43C167.253 37.92 167.778 36.64 168.828 35.59C169.878 34.53 171.163 34 172.683 34C174.203 34 175.488 34.53 176.538 35.59C177.588 36.64 178.113 37.92 178.113 39.43C178.113 40.94 177.588 42.225 176.538 43.285ZM169.563 42.565C170.403 43.415 171.443 43.84 172.683 43.84C173.923 43.84 174.963 43.415 175.803 42.565C176.643 41.705 177.063 40.66 177.063 39.43C177.063 38.2 176.643 37.16 175.803 36.31C174.963 35.45 173.923 35.02 172.683 35.02C171.443 35.02 170.403 35.45 169.563 36.31C168.723 37.16 168.303 38.2 168.303 39.43C168.303 40.66 168.723 41.705 169.563 42.565ZM189.509 34.18V44.68H188.459V35.77L184.784 41.92H184.634L180.959 35.77V44.68H179.909V34.18H181.214L184.709 40.03L188.204 34.18H189.509ZM200.921 36.52C201.851 37.22 202.316 38.19 202.316 39.43C202.316 40.67 201.851 41.64 200.921 42.34C200.001 43.04 198.781 43.425 197.261 43.495V44.68H196.211V43.495C194.691 43.425 193.466 43.04 192.536 42.34C191.616 41.64 191.156 40.67 191.156 39.43C191.156 38.19 191.616 37.22 192.536 36.52C193.466 35.82 194.691 35.435 196.211 35.365V34.18H197.261V35.365C198.781 35.435 200.001 35.82 200.921 36.52ZM193.286 37.21C192.566 37.73 192.206 38.47 192.206 39.43C192.206 40.39 192.566 41.135 193.286 41.665C194.006 42.185 194.981 42.475 196.211 42.535V36.325C194.981 36.385 194.006 36.68 193.286 37.21ZM197.261 42.535C198.491 42.475 199.466 42.185 200.186 41.665C200.906 41.135 201.266 40.39 201.266 39.43C201.266 38.47 200.906 37.73 200.186 37.21C199.466 36.68 198.491 36.385 197.261 36.325V42.535ZM212.647 43.285C211.597 44.335 210.312 44.86 208.792 44.86C207.272 44.86 205.987 44.335 204.937 43.285C203.887 42.225 203.362 40.94 203.362 39.43C203.362 37.92 203.887 36.64 204.937 35.59C205.987 34.53 207.272 34 208.792 34C210.312 34 211.597 34.53 212.647 35.59C213.697 36.64 214.222 37.92 214.222 39.43C214.222 40.94 213.697 42.225 212.647 43.285ZM205.672 42.565C206.512 43.415 207.552 43.84 208.792 43.84C210.032 43.84 211.072 43.415 211.912 42.565C212.752 41.705 213.172 40.66 213.172 39.43C213.172 38.2 212.752 37.16 211.912 36.31C211.072 35.45 210.032 35.02 208.792 35.02C207.552 35.02 206.512 35.45 205.672 36.31C204.832 37.16 204.412 38.2 204.412 39.43C204.412 40.66 204.832 41.705 205.672 42.565ZM219.767 34.18C220.707 34.18 221.492 34.495 222.122 35.125C222.752 35.755 223.067 36.54 223.067 37.48C223.067 38.42 222.752 39.205 222.122 39.835C221.492 40.465 220.707 40.78 219.767 40.78H217.067V44.68H216.017V34.18H219.767ZM219.767 39.79C220.417 39.79 220.952 39.575 221.372 39.145C221.802 38.705 222.017 38.15 222.017 37.48C222.017 36.81 221.802 36.26 221.372 35.83C220.952 35.39 220.417 35.17 219.767 35.17H217.067V39.79H219.767ZM231.172 34.18V35.17H227.947V44.68H226.897V35.17H223.672V34.18H231.172ZM238.793 34.18H239.873L236.378 42.385C236.028 43.225 235.583 43.83 235.043 44.2C234.503 44.57 233.833 44.73 233.033 44.68V43.72C233.593 43.78 234.053 43.7 234.413 43.48C234.783 43.25 235.088 42.855 235.328 42.295L235.538 41.8L231.923 34.18H233.003L236.033 40.63L238.793 34.18Z" fill="#B1B1B1"/>
<mask id="mask0_99_3357" style="mask-type:luminance" maskUnits="userSpaceOnUse" x="0" y="0" width="50" height="45">
<path d="M49.6453 0H0.645264V45H49.6453V0Z" fill="white"/>
</mask>
<g mask="url(#mask0_99_3357)">
<path fill-rule="evenodd" clip-rule="evenodd" d="M49.6461 44.4218L24.0595 0L3.46258 35.759L3.46441 35.76L1.48511 39.1963H5.121L6.19514 37.3315L6.19332 37.3304L24.0595 6.31242L44.1954 41.2712H18.4498V44.4218H49.6461Z" fill="#B1B1B1"/>
<path d="M1.67177 44.4209C1.6541 44.4209 1.64526 44.412 1.64526 44.3944L1.65056 43.8164L2.94962 41.3349H1.71949C1.70535 41.3349 1.69828 41.3279 1.69828 41.3137V40.757C1.69828 40.7393 1.70535 40.7305 1.71949 40.7305H3.63892C3.65659 40.7305 3.66543 40.7393 3.66543 40.757V41.3296L2.37167 43.8005H3.64952C3.66366 43.8005 3.67073 43.8093 3.67073 43.827L3.67603 44.3944C3.67603 44.412 3.6672 44.4209 3.64952 44.4209H1.67177Z" fill="#B1B1B1"/>
<path d="M5.41796 44.4755C5.22708 44.4755 5.0521 44.4278 4.89303 44.3323C4.7375 44.2333 4.61201 44.1043 4.51657 43.9453C4.42113 43.7827 4.37341 43.6041 4.37341 43.4097L4.37871 41.7289C4.37871 41.5345 4.42467 41.3577 4.51657 41.1987C4.61201 41.0396 4.73927 40.9124 4.89834 40.8169C5.05741 40.7215 5.23061 40.6738 5.41796 40.6738C5.60884 40.6738 5.78205 40.7215 5.93758 40.8169C6.09312 40.9124 6.21684 41.0396 6.30874 41.1987C6.40419 41.3577 6.45191 41.5345 6.45191 41.7289L6.45721 43.4097C6.45721 43.6041 6.40949 43.7827 6.31405 43.9453C6.22214 44.1043 6.09665 44.2333 5.93758 44.3323C5.78205 44.4278 5.60884 44.4755 5.41796 44.4755ZM5.41796 43.8339C5.52401 43.8339 5.61591 43.7915 5.69368 43.7067C5.77498 43.6183 5.81563 43.5193 5.81563 43.4097L5.81033 41.7289C5.81033 41.6123 5.77321 41.5133 5.69898 41.432C5.62475 41.3507 5.53108 41.31 5.41796 41.31C5.30838 41.31 5.21471 41.3507 5.13694 41.432C5.05917 41.5097 5.02029 41.6087 5.02029 41.7289V43.4097C5.02029 43.5264 5.05917 43.6271 5.13694 43.712C5.21471 43.7933 5.30838 43.8339 5.41796 43.8339Z" fill="#B1B1B1"/>
<path d="M7.43834 44.4209C7.41006 44.4209 7.39593 44.4085 7.39593 44.3838L7.39062 40.7729C7.39062 40.7446 7.40476 40.7305 7.43303 40.7305H7.91024L8.80633 42.8196L8.77982 40.7729C8.77982 40.7446 8.79573 40.7305 8.82754 40.7305H9.35247C9.37368 40.7305 9.38427 40.7446 9.38427 40.7729L9.38959 44.3891C9.38959 44.4103 9.38074 44.4209 9.36307 44.4209H8.89646L7.97918 42.4696L8.01629 44.3785C8.01629 44.4067 8.00038 44.4209 7.96858 44.4209H7.43834Z" fill="#B1B1B1"/>
<path d="M10.9106 44.4209C10.8964 44.4209 10.8894 44.412 10.8894 44.3944V41.3721H10.2001C10.1824 41.3721 10.1736 41.3632 10.1736 41.3455L10.1789 40.7517C10.1789 40.7375 10.186 40.7305 10.2001 40.7305H12.2149C12.2326 40.7305 12.2414 40.7375 12.2414 40.7517V41.3455C12.2414 41.3632 12.2344 41.3721 12.2202 41.3721H11.5256L11.5309 44.3944C11.5309 44.412 11.5239 44.4209 11.5097 44.4209H10.9106Z" fill="#B1B1B1"/>
<path d="M13.0549 44.4209C13.0407 44.4209 13.0337 44.412 13.0337 44.3944L13.039 40.7517C13.039 40.7375 13.046 40.7305 13.0602 40.7305H14.7622C14.7763 40.7305 14.7834 40.7393 14.7834 40.757V41.3508C14.7834 41.365 14.7763 41.3721 14.7622 41.3721H13.6752V42.1992H14.7622C14.7763 42.1992 14.7834 42.2063 14.7834 42.2204L14.7887 42.8196C14.7887 42.8337 14.7816 42.8408 14.7675 42.8408H13.6752V43.7687H14.7675C14.7816 43.7687 14.7887 43.7775 14.7887 43.7952V44.3997C14.7887 44.4138 14.7816 44.4209 14.7675 44.4209H13.0549Z" fill="#B1B1B1"/>
<path d="M15.8116 44.4209C15.7975 44.4209 15.7904 44.412 15.7904 44.3944L15.801 40.757C15.801 40.7393 15.8081 40.7305 15.8222 40.7305H16.4161C16.4302 40.7305 16.4373 40.7393 16.4373 40.757V42.0136L17.2698 40.7517C17.2804 40.7375 17.2927 40.7305 17.3069 40.7305H17.9166C17.9308 40.7305 17.9343 40.7375 17.9272 40.7517L17.01 42.2151L18.0386 44.3997C18.0457 44.4138 18.0368 44.4209 18.0121 44.4209H17.3652C17.3475 44.4209 17.3369 44.4138 17.3334 44.3997L16.6176 42.8408L16.432 43.1324V44.3944C16.432 44.412 16.4249 44.4209 16.4108 44.4209H15.8116Z" fill="#B1B1B1"/>
</g>
<path d="M63.7941 29.6936C63.6949 29.6936 63.6453 29.6424 63.6453 29.5401L63.6751 26.1957L70.9644 11.8358H64.0618C63.9825 11.8358 63.9428 11.7949 63.9428 11.7131V8.4913C63.9428 8.38903 63.9825 8.33789 64.0618 8.33789H74.8322C74.9314 8.33789 74.981 8.38903 74.981 8.4913V11.8051L67.7214 26.1036H74.8917C74.9711 26.1036 75.0107 26.1547 75.0107 26.257L75.0405 29.5401C75.0405 29.6424 74.9909 29.6936 74.8917 29.6936H63.7941Z" fill="#B1B1B1"/>
<path d="M84.815 30C83.7439 30 82.7621 29.7239 81.8695 29.1715C80.9967 28.5988 80.2926 27.8522 79.7571 26.9317C79.2215 25.9907 78.9537 24.9577 78.9537 23.8326L78.9835 14.106C78.9835 12.9809 79.2413 11.9582 79.7571 11.0377C80.2926 10.1171 81.0067 9.38075 81.8992 8.82845C82.7918 8.27615 83.7637 8 84.815 8C85.8861 8 86.858 8.27615 87.7307 8.82845C88.6034 9.38075 89.2977 10.1171 89.8134 11.0377C90.3489 11.9582 90.6167 12.9809 90.6167 14.106L90.6464 23.8326C90.6464 24.9577 90.3787 25.9907 89.8431 26.9317C89.3274 27.8522 88.6233 28.5988 87.7307 29.1715C86.858 29.7239 85.8861 30 84.815 30ZM84.815 26.2873C85.41 26.2873 85.9257 26.0418 86.3621 25.5509C86.8183 25.0395 87.0464 24.4668 87.0464 23.8326L87.0166 14.106C87.0166 13.431 86.8084 12.8582 86.3918 12.3877C85.9753 11.9173 85.4497 11.682 84.815 11.682C84.2001 11.682 83.6745 11.9173 83.2381 12.3877C82.8017 12.8377 82.5835 13.4105 82.5835 14.106V23.8326C82.5835 24.5077 82.8017 25.0907 83.2381 25.5816C83.6745 26.0521 84.2001 26.2873 84.815 26.2873Z" fill="#B1B1B1"/>
<path d="M96.1517 29.6936C95.993 29.6936 95.9136 29.622 95.9136 29.4788L95.8839 8.58335C95.8839 8.41971 95.9632 8.33789 96.1219 8.33789H98.7996L103.827 20.4272L103.679 8.58335C103.679 8.41971 103.768 8.33789 103.946 8.33789H106.892C107.011 8.33789 107.07 8.41971 107.07 8.58335L107.1 29.5095C107.1 29.6322 107.051 29.6936 106.951 29.6936H104.333L99.1864 18.4021L99.3947 29.4481C99.3947 29.6117 99.3054 29.6936 99.1269 29.6936H96.1517Z" fill="#B1B1B1"/>
<path d="M115.635 29.6936C115.556 29.6936 115.516 29.6424 115.516 29.5401V12.0506H111.648C111.549 12.0506 111.5 11.9995 111.5 11.8972L111.529 8.46062C111.529 8.3788 111.569 8.33789 111.648 8.33789H122.954C123.053 8.33789 123.103 8.3788 123.103 8.46062V11.8972C123.103 11.9995 123.063 12.0506 122.984 12.0506H119.086L119.116 29.5401C119.116 29.6424 119.077 29.6936 118.997 29.6936H115.635Z" fill="#B1B1B1"/>
<path d="M127.667 29.6936C127.588 29.6936 127.548 29.6424 127.548 29.5401L127.578 8.46062C127.578 8.3788 127.617 8.33789 127.697 8.33789H137.247C137.326 8.33789 137.366 8.38903 137.366 8.4913V11.9279C137.366 12.0097 137.326 12.0506 137.247 12.0506H131.148V16.8372H137.247C137.326 16.8372 137.366 16.8781 137.366 16.9599L137.396 20.4272C137.396 20.509 137.356 20.5499 137.277 20.5499H131.148V25.9195H137.277C137.356 25.9195 137.396 25.9706 137.396 26.0729V29.5708C137.396 29.6527 137.356 29.6936 137.277 29.6936H127.667Z" fill="#B1B1B1"/>
<path d="M143.136 29.6936C143.056 29.6936 143.017 29.6424 143.017 29.5401L143.076 8.4913C143.076 8.38903 143.116 8.33789 143.195 8.33789H146.528C146.607 8.33789 146.647 8.38903 146.647 8.4913V15.7633L151.318 8.46062C151.377 8.3788 151.447 8.33789 151.526 8.33789H154.948C155.027 8.33789 155.047 8.3788 155.007 8.46062L149.86 16.9293L155.632 29.5708C155.671 29.6527 155.622 29.6936 155.483 29.6936H151.853C151.754 29.6936 151.695 29.6527 151.675 29.5708L147.658 20.5499L146.617 22.2375V29.5401C146.617 29.6424 146.577 29.6936 146.498 29.6936H143.136Z" fill="#B1B1B1"/>
</svg>
