<svg width="89" height="45" viewBox="0 0 89 45" fill="none" xmlns="http://www.w3.org/2000/svg">
<g clip-path="url(#clip0_99_3301)">
<path d="M45.6064 0H45.3417V22.0588H45.6064V0Z" fill="#121212"/>
<path d="M31.2241 0H30.6946V22.0588H31.2241V0Z" fill="#121212"/>
<path d="M32.9006 0H32.3712V22.0588H32.9006V0Z" fill="#121212"/>
<path d="M35.1946 0H34.6652V22.0588H35.1946V0Z" fill="#121212"/>
<path d="M17.2829 0H16.6652V22.0588H17.2829V0Z" fill="#121212"/>
<path d="M25.1358 0H23.4594V22.0588H25.1358V0Z" fill="#121212"/>
<path d="M29.4594 0H26.7241V22.0588H29.4594V0Z" fill="#121212"/>
<path d="M62.8123 0H61.1358V22.0588H62.8123V0Z" fill="#121212"/>
<path d="M68.8123 0H66.5182V22.0588H68.8123V0Z" fill="#121212"/>
<path d="M19.2241 0H18.2535V22.0588H19.2241V0Z" fill="#121212"/>
<path d="M21.6064 0H20.2829V22.0588H21.6064V0Z" fill="#121212"/>
<path d="M43.8417 0H43.1359V22.0588H43.8417V0Z" fill="#121212"/>
<path d="M41.3711 0H40.6652V22.0588H41.3711V0Z" fill="#121212"/>
<path d="M71.0182 0H69.8711V22.0588H71.0182V0Z" fill="#121212"/>
<path d="M72.5182 0H72.077V22.0588H72.5182V0Z" fill="#121212"/>
<path d="M65.1946 0H64.1358V22.0588H65.1946V0Z" fill="#121212"/>
<path d="M54.077 0H50.1064V22.0588H54.077V0Z" fill="#121212"/>
<path d="M59.4594 0H57.2535V22.0588H59.4594V0Z" fill="#121212"/>
<path d="M47.9005 0H46.4005V22.0588H47.9005V0Z" fill="#121212"/>
<path d="M39.3417 0H38.3712V22.0588H39.3417V0Z" fill="#121212"/>
<path d="M36.9594 0H35.9888V22.0588H36.9594V0Z" fill="#121212"/>
<path d="M45.077 27.7051H44.8123V38.7345H45.077V27.7051Z" fill="#121212"/>
<path d="M30.6946 27.7051H30.1652V38.7345H30.6946V27.7051Z" fill="#121212"/>
<path d="M32.3711 27.7051H31.8417V38.7345H32.3711V27.7051Z" fill="#121212"/>
<path d="M79.6652 11.2949H79.1358V38.7361H79.6652V11.2949Z" fill="#121212"/>
<path d="M79.6653 45V42.3529L79.1359 41.4706V45H79.6653Z" fill="#121212"/>
<path d="M34.577 27.7051H34.0476V38.7345H34.577V27.7051Z" fill="#121212"/>
<path d="M0.518188 11.2949V27.7067V38.7361H1.48878V11.2949H0.518188Z" fill="#121212"/>
<path d="M13.9299 27.7051H13.2241V44.9992H13.9299V27.7051Z" fill="#121212"/>
<path d="M15.4299 27.7051V44.9992H15.7829L16.7535 43.4992V27.7051H15.4299Z" fill="#121212"/>
<path d="M24.6064 27.7051H22.9299V38.7345H24.6064V27.7051Z" fill="#121212"/>
<path d="M28.9299 27.7051H26.1946V38.7345H28.9299V27.7051Z" fill="#121212"/>
<path d="M84.6064 11.2949H84.077V38.7361H84.6064V11.2949Z" fill="#121212"/>
<path d="M88.6653 38.7361V27.7067V11.2949H85.8417V38.7361H88.6653Z" fill="#121212"/>
<path d="M4.22408 11.2949H2.54761V38.7361H4.22408V11.2949Z" fill="#121212"/>
<path d="M7.84174 45H9.07703V43.0588L7.84174 45Z" fill="#121212"/>
<path d="M9.07699 11.2949H5.19464V38.7361H9.07699V11.2949Z" fill="#121212"/>
<path d="M62.2829 27.7051H60.6064V38.7345H62.2829V27.7051Z" fill="#121212"/>
<path d="M78.2535 38.7361V11.2949H77.9888V27.7067H76.577V45.0008H78.2535V40.1479L77.3711 38.7361H77.9888H78.2535Z" fill="#121212"/>
<path d="M68.2829 27.7051H65.9888V38.7345H68.2829V27.7051Z" fill="#121212"/>
<path d="M11.1946 27.7067V11.2949H10.4005V38.7361H11.1946H11.8123L10.4005 40.8537V45.0008H12.1652V27.7067H11.1946Z" fill="#121212"/>
<path d="M17.7241 27.7051V41.9992L18.6946 40.411V27.7051H17.7241Z" fill="#121212"/>
<path d="M19.7535 27.7051V38.8227V38.7345H21.077V27.7051H19.7535Z" fill="#121212"/>
<path d="M43.3123 27.7051H42.6064V38.7345H43.3123V27.7051Z" fill="#121212"/>
<path d="M40.8417 27.7051H40.1358V38.7345H40.8417V27.7051Z" fill="#121212"/>
<path d="M69.2535 27.7051V38.7345H69.3417L70.4005 40.3227V27.7051H69.2535Z" fill="#121212"/>
<path d="M71.5476 27.7051V42.0874L73.3123 44.9992H73.4888V27.7051H71.5476Z" fill="#121212"/>
<path d="M64.577 27.7051H63.5182V38.7345H64.577V27.7051Z" fill="#121212"/>
<path d="M53.5476 27.7051H49.577V38.7345H53.5476V27.7051Z" fill="#121212"/>
<path d="M58.9299 27.7051H56.7241V38.7345H58.9299V27.7051Z" fill="#121212"/>
<path d="M47.3712 27.7051H45.8712V38.7345H47.3712V27.7051Z" fill="#121212"/>
<path d="M38.8123 27.7051H37.8417V38.7345H38.8123V27.7051Z" fill="#121212"/>
<path d="M36.4299 27.7051H35.4594V38.7345H36.4299V27.7051Z" fill="#121212"/>
<path d="M82.4888 11.2949H80.7241V38.7361H82.4888V11.2949Z" fill="#121212"/>
<path d="M81.3417 44.9995L80.7241 44.1172V44.9995H81.3417Z" fill="#121212"/>
</g>
<defs>
<clipPath id="clip0_99_3301">
<rect width="88.2353" height="45" fill="white" transform="translate(0.518188)"/>
</clipPath>
</defs>
</svg>
