<svg width="203" height="45" viewBox="0 0 203 45" fill="none" xmlns="http://www.w3.org/2000/svg">
<g clip-path="url(#clip0_99_3286)">
<path d="M13.6521 30.4785H1.8654C1.13972 30.4785 0.655675 31.2271 0.9535 31.8889L5.95409 42.9999L13.6521 30.4785Z" fill="#B1B1B1"/>
<path d="M13.6541 30.4786L5.95547 43L21.3512 42.9984L13.6541 30.4786Z" fill="#939393"/>
<path d="M26.9862 30.4786H13.6533L21.3504 42.9985L26.9862 30.4786Z" fill="#797979"/>
<path d="M13.6528 30.4792H26.9862L22.1253 19.6795C21.7959 18.9476 20.7819 18.8825 20.3616 19.5663L13.6528 30.4792Z" fill="#58595A"/>
<path d="M22.1253 19.6795C21.7959 18.9476 20.7819 18.8825 20.3616 19.5663L13.6528 30.4792H26.9862L22.1253 19.6795Z" fill="#58595A"/>
<path d="M13.6533 15.5212H25.4401C26.1658 15.5212 26.6498 14.7726 26.352 14.1108L21.3514 2.99982L13.6533 15.5212Z" fill="#B1B1B1"/>
<path d="M13.6535 15.5214L21.352 3L5.9563 3.00153L13.6535 15.5214Z" fill="#939393"/>
<path d="M0.319305 15.5217H13.6522L5.95513 3.00177L0.319305 15.5217Z" fill="#797979"/>
<path d="M13.6527 15.5195H0.319305L5.1802 26.3192C5.50962 27.0511 6.52362 27.1163 6.94398 26.4325L13.6527 15.5195Z" fill="#58595A"/>
<path d="M5.1802 26.3192C5.50962 27.0511 6.52362 27.1163 6.94398 26.4325L13.6527 15.5203L0.319305 15.5195L5.1802 26.3192Z" fill="#58595A"/>
<path d="M45.9488 16.3C45.9488 15.2 46.1908 14.2467 46.6748 13.44C47.1735 12.6187 47.8188 11.988 48.6108 11.548C49.4175 11.0933 50.2901 10.866 51.2288 10.866C51.9621 10.866 52.6221 10.9613 53.2088 11.152C53.7955 11.3427 54.3235 11.6067 54.7928 11.944C55.2768 12.2667 55.6948 12.6333 56.0468 13.044V9.964C55.4015 9.436 54.7048 9.03267 53.9568 8.754C53.2088 8.47533 52.2701 8.336 51.1408 8.336C50.0115 8.336 48.9555 8.52667 47.9728 8.908C47.0048 9.28933 46.1615 9.83933 45.4428 10.558C44.7241 11.2767 44.1595 12.1273 43.7488 13.11C43.3528 14.078 43.1548 15.1413 43.1548 16.3C43.1548 17.4587 43.3528 18.5293 43.7488 19.512C44.1595 20.48 44.7241 21.3233 45.4428 22.042C46.1615 22.7607 47.0048 23.3107 47.9728 23.692C48.9555 24.0733 50.0115 24.264 51.1408 24.264C52.2701 24.264 53.2088 24.1247 53.9568 23.846C54.7048 23.5673 55.4015 23.164 56.0468 22.636V19.556C55.6948 19.9667 55.2768 20.3407 54.7928 20.678C54.3235 21.0007 53.7955 21.2573 53.2088 21.448C52.6221 21.6387 51.9621 21.734 51.2288 21.734C50.2901 21.734 49.4175 21.514 48.6108 21.074C47.8188 20.6193 47.1735 19.9813 46.6748 19.16C46.1908 18.3387 45.9488 17.3853 45.9488 16.3ZM66.5717 18.148H71.3017C71.1697 18.6613 70.9717 19.1453 70.7077 19.6C70.4437 20.0547 70.1137 20.458 69.7177 20.81C69.3217 21.162 68.8524 21.4333 68.3097 21.624C67.7671 21.8147 67.1511 21.91 66.4617 21.91C65.4497 21.91 64.5404 21.6753 63.7337 21.206C62.9271 20.7367 62.2817 20.084 61.7977 19.248C61.3284 18.3973 61.0937 17.4147 61.0937 16.3C61.0937 15.1707 61.3357 14.1953 61.8197 13.374C62.3037 12.538 62.9491 11.8927 63.7557 11.438C64.5624 10.9687 65.4644 10.734 66.4617 10.734C67.5324 10.734 68.4417 10.954 69.1897 11.394C69.9524 11.834 70.5464 12.4207 70.9717 13.154L73.0837 11.746C72.6291 11.0273 72.0717 10.4187 71.4117 9.92C70.7664 9.40667 70.0331 9.018 69.2117 8.754C68.3904 8.47533 67.4737 8.336 66.4617 8.336C65.3031 8.336 64.2251 8.52667 63.2277 8.908C62.2451 9.28933 61.3871 9.83933 60.6537 10.558C59.9351 11.262 59.3704 12.1053 58.9597 13.088C58.5637 14.056 58.3657 15.1267 58.3657 16.3C58.3657 17.4733 58.5637 18.5513 58.9597 19.534C59.3557 20.5167 59.9131 21.3673 60.6317 22.086C61.3651 22.8047 62.2231 23.362 63.2057 23.758C64.1884 24.1393 65.2591 24.33 66.4177 24.33C67.6351 24.33 68.7204 24.11 69.6737 23.67C70.6417 23.2153 71.4484 22.5993 72.0937 21.822C72.7391 21.0447 73.2231 20.1573 73.5457 19.16C73.8684 18.148 74.0151 17.0773 73.9857 15.948H66.5717V18.148ZM84.2778 16.938H95.2558V14.54H84.2778V16.938ZM93.5838 8.6V24H96.1798V8.6H93.5838ZM83.2438 8.6V24H85.8398V8.6H83.2438ZM101.463 20.04H109.603L109.097 17.84H101.947L101.463 20.04ZM105.489 12.956L107.931 18.676L107.997 19.314L110.087 24H113.013L105.489 7.742L97.9649 24H100.891L103.025 19.182L103.069 18.61L105.489 12.956ZM117.973 16.652L122.879 24H126.003L120.789 16.652H117.973ZM114.805 8.6V24H117.401V8.6H114.805ZM116.345 10.844H119.447C120.033 10.844 120.547 10.9467 120.987 11.152C121.441 11.3573 121.793 11.6507 122.043 12.032C122.292 12.4133 122.417 12.8827 122.417 13.44C122.417 13.9827 122.292 14.452 122.043 14.848C121.793 15.2293 121.441 15.5227 120.987 15.728C120.547 15.9333 120.033 16.036 119.447 16.036H116.345V18.17H119.557C120.671 18.17 121.639 17.972 122.461 17.576C123.297 17.18 123.942 16.6227 124.397 15.904C124.851 15.1853 125.079 14.342 125.079 13.374C125.079 12.406 124.851 11.57 124.397 10.866C123.942 10.1473 123.297 9.59 122.461 9.194C121.639 8.798 120.671 8.6 119.557 8.6H116.345V10.844ZM127.889 8.6V24H130.529V8.6H127.889ZM132.861 24C134.43 24 135.809 23.6847 136.997 23.054C138.185 22.4087 139.109 21.514 139.769 20.37C140.443 19.2113 140.781 17.8547 140.781 16.3C140.781 14.7453 140.443 13.396 139.769 12.252C139.109 11.0933 138.185 10.1987 136.997 9.568C135.809 8.92267 134.43 8.6 132.861 8.6H129.495V11.042H132.795C133.557 11.042 134.261 11.152 134.907 11.372C135.552 11.592 136.109 11.922 136.579 12.362C137.063 12.802 137.437 13.352 137.701 14.012C137.979 14.672 138.119 15.4347 138.119 16.3C138.119 17.1653 137.979 17.928 137.701 18.588C137.437 19.248 137.063 19.798 136.579 20.238C136.109 20.678 135.552 21.008 134.907 21.228C134.261 21.448 133.557 21.558 132.795 21.558H129.495V24H132.861ZM156.574 18.918L152.152 7.83L147.774 18.918L144.122 8.6H141.108L147.4 24.814L152.152 13.924L156.904 24.814L163.196 8.6H160.182L156.574 18.918ZM164.735 20.04H172.875L172.369 17.84H165.219L164.735 20.04ZM168.761 12.956L171.203 18.676L171.269 19.314L173.359 24H176.285L168.761 7.742L161.237 24H164.163L166.297 19.182L166.341 18.61L168.761 12.956ZM181.244 16.652L186.15 24H189.274L184.06 16.652H181.244ZM178.076 8.6V24H180.672V8.6H178.076ZM179.616 10.844H182.718C183.305 10.844 183.818 10.9467 184.258 11.152C184.713 11.3573 185.065 11.6507 185.314 12.032C185.563 12.4133 185.688 12.8827 185.688 13.44C185.688 13.9827 185.563 14.452 185.314 14.848C185.065 15.2293 184.713 15.5227 184.258 15.728C183.818 15.9333 183.305 16.036 182.718 16.036H179.616V18.17H182.828C183.943 18.17 184.911 17.972 185.732 17.576C186.568 17.18 187.213 16.6227 187.668 15.904C188.123 15.1853 188.35 14.342 188.35 13.374C188.35 12.406 188.123 11.57 187.668 10.866C187.213 10.1473 186.568 9.59 185.732 9.194C184.911 8.798 183.943 8.6 182.828 8.6H179.616V10.844ZM192.766 24H200.532V21.712H192.766V24ZM192.766 10.888H200.532V8.6H192.766V10.888ZM192.766 16.872H200.092V14.628H192.766V16.872ZM191.16 8.6V24H193.712V8.6H191.16Z" fill="#B1B1B1"/>
<path opacity="0.5" d="M51.5588 37.9992H50.3688V33.5612H44.9788V37.9992H43.7888V28.1992H44.9788V32.4412H50.3688V28.1992H51.5588V37.9992ZM54.3679 33.0292L54.0739 32.1332C54.6992 31.7505 55.3992 31.5592 56.1739 31.5592C57.0232 31.5592 57.6392 31.7692 58.0219 32.1892C58.4045 32.6092 58.5959 33.2579 58.5959 34.1352V37.9992H57.5319V37.1872C57.0372 37.7939 56.3652 38.0972 55.5159 38.0972C54.9372 38.0972 54.4705 37.9245 54.1159 37.5792C53.7612 37.2245 53.5839 36.7485 53.5839 36.1512C53.5839 35.5352 53.8032 35.0499 54.2419 34.6952C54.6805 34.3312 55.2545 34.1492 55.9639 34.1492C56.6265 34.1492 57.1492 34.2845 57.5319 34.5552C57.5319 33.8459 57.4339 33.3372 57.2379 33.0292C57.0419 32.7212 56.6639 32.5672 56.1039 32.5672C55.5345 32.5672 54.9559 32.7212 54.3679 33.0292ZM55.9079 37.0892C56.5332 37.0892 57.0745 36.8185 57.5319 36.2772V35.4792C57.1399 35.1992 56.6685 35.0592 56.1179 35.0592C55.7352 35.0592 55.4132 35.1525 55.1519 35.3392C54.8999 35.5165 54.7739 35.7685 54.7739 36.0952C54.7739 36.4032 54.8719 36.6459 55.0679 36.8232C55.2732 37.0005 55.5532 37.0892 55.9079 37.0892ZM61.5913 37.9992H60.4713V31.6992H61.5913V32.4412C61.9647 31.8719 62.492 31.5872 63.1733 31.5872C63.612 31.5872 63.9387 31.6665 64.1533 31.8252L63.7613 32.8752C63.4907 32.7165 63.206 32.6372 62.9073 32.6372C62.338 32.6372 61.8993 32.9359 61.5913 33.5332V37.9992ZM70.9691 37.9992H69.8491V37.2012C69.2891 37.8079 68.6218 38.1112 67.8471 38.1112C66.9231 38.1112 66.1858 37.8172 65.6351 37.2292C65.0845 36.6319 64.8091 35.8525 64.8091 34.8912C64.8091 33.9112 65.1311 33.1132 65.7751 32.4972C66.4285 31.8719 67.2545 31.5592 68.2531 31.5592C68.8878 31.5592 69.4198 31.7085 69.8491 32.0072V28.1992H70.9691V37.9992ZM68.0571 37.0612C68.7478 37.0612 69.3451 36.7812 69.8491 36.2212V33.0992C69.3265 32.7725 68.8085 32.6092 68.2951 32.6092C67.6511 32.6092 67.1051 32.8192 66.6571 33.2392C66.2185 33.6499 65.9991 34.1912 65.9991 34.8632C65.9991 35.5352 66.1858 36.0719 66.5591 36.4732C66.9418 36.8652 67.4411 37.0612 68.0571 37.0612ZM80.5831 31.6992H81.7171L79.7011 38.0552H78.7211L77.1531 33.9532C77.0784 33.7572 76.9991 33.5005 76.9151 33.1832C76.8311 33.4912 76.7424 33.7619 76.6491 33.9952L75.1231 38.0552H74.1991L72.1131 31.6992H73.3171L74.5491 35.6752C74.5678 35.7405 74.5911 35.8339 74.6191 35.9552C74.6564 36.0765 74.6891 36.2025 74.7171 36.3332C74.7544 36.4545 74.7778 36.5292 74.7871 36.5572C74.9551 35.9785 75.0438 35.6845 75.0531 35.6752L76.4811 31.6992H77.4471L78.8891 35.6612L79.1831 36.5712C79.2484 36.2539 79.3324 35.9319 79.4351 35.6052L80.5831 31.6992ZM83.2019 33.0292L82.9079 32.1332C83.5332 31.7505 84.2332 31.5592 85.0079 31.5592C85.8572 31.5592 86.4732 31.7692 86.8559 32.1892C87.2385 32.6092 87.4299 33.2579 87.4299 34.1352V37.9992H86.3659V37.1872C85.8712 37.7939 85.1992 38.0972 84.3499 38.0972C83.7712 38.0972 83.3045 37.9245 82.9499 37.5792C82.5952 37.2245 82.4179 36.7485 82.4179 36.1512C82.4179 35.5352 82.6372 35.0499 83.0759 34.6952C83.5145 34.3312 84.0885 34.1492 84.7979 34.1492C85.4605 34.1492 85.9832 34.2845 86.3659 34.5552C86.3659 33.8459 86.2679 33.3372 86.0719 33.0292C85.8759 32.7212 85.4979 32.5672 84.9379 32.5672C84.3685 32.5672 83.7899 32.7212 83.2019 33.0292ZM84.7419 37.0892C85.3672 37.0892 85.9085 36.8185 86.3659 36.2772V35.4792C85.9739 35.1992 85.5025 35.0592 84.9519 35.0592C84.5692 35.0592 84.2472 35.1525 83.9859 35.3392C83.7339 35.5165 83.6079 35.7685 83.6079 36.0952C83.6079 36.4032 83.7059 36.6459 83.9019 36.8232C84.1072 37.0005 84.3872 37.0892 84.7419 37.0892ZM90.4253 37.9992H89.3053V31.6992H90.4253V32.4412C90.7986 31.8719 91.326 31.5872 92.0073 31.5872C92.446 31.5872 92.7726 31.6665 92.9873 31.8252L92.5953 32.8752C92.3246 32.7165 92.04 32.6372 91.7413 32.6372C91.172 32.6372 90.7333 32.9359 90.4253 33.5332V37.9992ZM99.0331 36.4312L99.3831 37.3132C98.7765 37.8639 97.9878 38.1392 97.0171 38.1392C95.9905 38.1392 95.1738 37.8405 94.5671 37.2432C93.9511 36.6459 93.6431 35.8479 93.6431 34.8492C93.6431 33.9065 93.9325 33.1225 94.5111 32.4972C95.0805 31.8719 95.8738 31.5592 96.8911 31.5592C97.7311 31.5592 98.4265 31.8299 98.9771 32.3712C99.5371 32.9032 99.8171 33.5939 99.8171 34.4432C99.8171 34.7139 99.7938 34.9659 99.7471 35.1992H94.9031C94.9498 35.7872 95.1691 36.2492 95.5611 36.5852C95.9625 36.9212 96.4758 37.0892 97.1011 37.0892C97.9225 37.0892 98.5665 36.8699 99.0331 36.4312ZM96.8351 32.6092C96.2845 32.6092 95.8271 32.7632 95.4631 33.0712C95.1085 33.3792 94.8985 33.7852 94.8331 34.2892H98.6551C98.6271 33.7665 98.4498 33.3559 98.1231 33.0572C97.8058 32.7585 97.3765 32.6092 96.8351 32.6092ZM107.673 36.2912C107.673 36.0672 107.557 35.8805 107.323 35.7312C107.09 35.5819 106.805 35.4605 106.469 35.3672C106.143 35.2645 105.811 35.1479 105.475 35.0172C105.139 34.8865 104.855 34.6812 104.621 34.4012C104.388 34.1119 104.271 33.7572 104.271 33.3372C104.271 32.8052 104.467 32.3759 104.859 32.0492C105.251 31.7225 105.769 31.5592 106.413 31.5592C107.337 31.5592 108.061 31.8065 108.583 32.3012L108.051 33.1552C107.585 32.7445 107.057 32.5392 106.469 32.5392C106.171 32.5392 105.928 32.6139 105.741 32.7632C105.555 32.9125 105.461 33.0992 105.461 33.3232C105.461 33.5659 105.578 33.7665 105.811 33.9252C106.045 34.0745 106.325 34.2005 106.651 34.3032C106.987 34.3965 107.323 34.5085 107.659 34.6392C107.995 34.7605 108.28 34.9565 108.513 35.2272C108.747 35.4979 108.863 35.8339 108.863 36.2352C108.863 36.8605 108.63 37.3365 108.163 37.6632C107.706 37.9805 107.127 38.1392 106.427 38.1392C105.933 38.1392 105.461 38.0365 105.013 37.8312C104.556 37.6165 104.253 37.3925 104.103 37.1592L104.733 36.3612C104.92 36.5759 105.191 36.7625 105.545 36.9212C105.919 37.0799 106.255 37.1592 106.553 37.1592C106.88 37.1592 107.146 37.0845 107.351 36.9352C107.566 36.7765 107.673 36.5619 107.673 36.2912ZM110.357 35.6052V29.9492H111.477V31.6992H113.787V32.7492H111.477V35.4932C111.477 36.5385 111.85 37.0612 112.597 37.0612C112.961 37.0612 113.292 36.9445 113.591 36.7112L113.941 37.5792C113.502 37.9339 112.966 38.1112 112.331 38.1112C111.65 38.1112 111.15 37.9059 110.833 37.4952C110.516 37.0845 110.357 36.4545 110.357 35.6052ZM115.69 37.2152C115.074 36.5805 114.766 35.7919 114.766 34.8492C114.766 33.8972 115.074 33.1132 115.69 32.4972C116.316 31.8719 117.128 31.5592 118.126 31.5592C119.125 31.5592 119.932 31.8719 120.548 32.4972C121.174 33.1132 121.486 33.8972 121.486 34.8492C121.486 35.8012 121.174 36.5899 120.548 37.2152C119.932 37.8312 119.125 38.1392 118.126 38.1392C117.137 38.1392 116.325 37.8312 115.69 37.2152ZM116.572 33.2392C116.162 33.6499 115.956 34.1865 115.956 34.8492C115.956 35.5119 116.157 36.0485 116.558 36.4592C116.969 36.8792 117.492 37.0892 118.126 37.0892C118.761 37.0892 119.279 36.8839 119.68 36.4732C120.091 36.0532 120.296 35.5119 120.296 34.8492C120.296 34.2052 120.091 33.6685 119.68 33.2392C119.279 32.8192 118.761 32.6092 118.126 32.6092C117.492 32.6092 116.974 32.8192 116.572 33.2392ZM124.222 37.9992H123.102V31.6992H124.222V32.4412C124.596 31.8719 125.123 31.5872 125.804 31.5872C126.243 31.5872 126.57 31.6665 126.784 31.8252L126.392 32.8752C126.122 32.7165 125.837 32.6372 125.538 32.6372C124.969 32.6372 124.53 32.9359 124.222 33.5332V37.9992ZM132.83 36.4312L133.18 37.3132C132.574 37.8639 131.785 38.1392 130.814 38.1392C129.788 38.1392 128.971 37.8405 128.364 37.2432C127.748 36.6459 127.44 35.8479 127.44 34.8492C127.44 33.9065 127.73 33.1225 128.308 32.4972C128.878 31.8719 129.671 31.5592 130.688 31.5592C131.528 31.5592 132.224 31.8299 132.774 32.3712C133.334 32.9032 133.614 33.5939 133.614 34.4432C133.614 34.7139 133.591 34.9659 133.544 35.1992H128.7C128.747 35.7872 128.966 36.2492 129.358 36.5852C129.76 36.9212 130.273 37.0892 130.898 37.0892C131.72 37.0892 132.364 36.8699 132.83 36.4312ZM130.632 32.6092C130.082 32.6092 129.624 32.7632 129.26 33.0712C128.906 33.3792 128.696 33.7852 128.63 34.2892H132.452C132.424 33.7665 132.247 33.3559 131.92 33.0572C131.603 32.7585 131.174 32.6092 130.632 32.6092Z" fill="#B1B1B1"/>
</g>
<defs>
<clipPath id="clip0_99_3286">
<rect width="202" height="45" fill="white" transform="translate(0.318756)"/>
</clipPath>
</defs>
</svg>
