<svg width="24" height="25" viewBox="0 0 24 25" fill="none" xmlns="http://www.w3.org/2000/svg">
<path d="M4.47012 21.4999H19.5301C21.0701 21.4999 22.0301 19.8299 21.2601 18.4999L13.7301 5.48993C12.9601 4.15993 11.0401 4.15993 10.2701 5.48993L2.74012 18.4999C1.97012 19.8299 2.93012 21.4999 4.47012 21.4999ZM12.0001 14.4999C11.4501 14.4999 11.0001 14.0499 11.0001 13.4999V11.4999C11.0001 10.9499 11.4501 10.4999 12.0001 10.4999C12.5501 10.4999 13.0001 10.9499 13.0001 11.4999V13.4999C13.0001 14.0499 12.5501 14.4999 12.0001 14.4999ZM13.0001 18.4999H11.0001V16.4999H13.0001V18.4999Z" fill="#BC0000"/>
</svg>
