<svg width="24" height="25" viewBox="0 0 24 25" fill="none" xmlns="http://www.w3.org/2000/svg">
<path d="M4 21C3.45 21 2.979 20.804 2.587 20.412C2.195 20.02 1.99934 19.5493 2 19V7C2 6.45 2.196 5.979 2.588 5.587C2.98 5.195 3.45067 4.99934 4 5H20C20.55 5 21.021 5.196 21.413 5.588C21.805 5.98 22.0007 6.45067 22 7V19C22 19.55 21.804 20.021 21.412 20.413C21.02 20.805 20.5493 21.0007 20 21H4ZM12 13.825C12.0833 13.825 12.171 13.8123 12.263 13.787C12.355 13.7617 12.4423 13.7243 12.525 13.675L19.6 9.25C19.7333 9.16667 19.8333 9.06234 19.9 8.937C19.9667 8.81167 20 8.67434 20 8.525C20 8.19167 19.8583 7.94167 19.575 7.775C19.2917 7.60834 19 7.61667 18.7 7.8L12 12L5.3 7.8C5 7.61667 4.70834 7.61267 4.425 7.788C4.14167 7.96334 4 8.209 4 8.525C4 8.69167 4.03333 8.83767 4.1 8.963C4.16667 9.08834 4.26667 9.184 4.4 9.25L11.475 13.675C11.5583 13.725 11.646 13.7627 11.738 13.788C11.83 13.8133 11.9173 13.8257 12 13.825Z" fill="#B1B1B1"/>
</svg>
