<svg width="28" height="32" viewBox="0 0 28 32" fill="none" xmlns="http://www.w3.org/2000/svg">
<path d="M27.941 8.92505L17.1236 15.6934C16.1602 16.2962 15.0799 16.5976 13.9997 16.5976C12.9195 16.5976 11.8393 16.2962 10.8758 15.6934L0.0590647 8.92542C0.0283337 9.09863 0.0117188 9.27596 0.0117188 9.45585V12.1358L11.8698 19.5552C13.1836 20.3771 14.8158 20.3772 16.1297 19.5552L27.9878 12.1357V9.45585C27.9878 9.27521 27.9715 9.09794 27.941 8.92505Z" fill="#0BC594"/>
<path d="M13.9997 22.0478C12.9195 22.0478 11.8393 21.7464 10.8759 21.1435L0.0117188 14.346V17.5234L11.8698 24.9429C13.1836 25.7649 14.8158 25.7649 16.1297 24.9429L27.9878 17.5235V14.3459L17.1236 21.1435C16.1602 21.7464 15.0799 22.0478 13.9997 22.0478Z" fill="#0BC594"/>
<path d="M16.1299 14.1047L27.0423 7.27701C26.9209 7.16583 26.7903 7.06433 26.6502 6.97663L16.7903 0.807377C15.93 0.269146 14.9649 0 14 0C13.035 0 12.0699 0.269146 11.2097 0.807377L1.34979 6.97663C1.209 7.0647 1.07839 7.16589 0.957031 7.27663L11.8699 14.1047C13.1838 14.9267 14.8162 14.9267 16.1299 14.1047Z" fill="#0BC594"/>
<path d="M13.9998 27.4357C12.9196 27.4357 11.8394 27.1343 10.8759 26.5314L0.0117188 19.7339V22.5443C0.0117188 23.5622 0.52028 24.5046 1.34958 25.0235L11.2094 31.1927C12.0697 31.731 13.0347 32.0001 13.9997 32.0001C14.9647 32.0001 15.9298 31.7309 16.79 31.1927L26.65 25.0235C27.4793 24.5046 27.9878 23.5622 27.9878 22.5443V19.7339L17.1236 26.5315C16.1601 27.1343 15.0799 27.4357 13.9998 27.4357Z" fill="#0BC594"/>
</svg>
