<svg width="24" height="24" viewBox="0 0 24 24" fill="none" xmlns="http://www.w3.org/2000/svg">
<path d="M2.66667 0.273193H21.3333C22.0406 0.273193 22.7189 0.554145 23.219 1.05424C23.719 1.55434 24 2.23262 24 2.93986V21.6065C24 22.3132 23.72 22.9932 23.2133 23.4865C22.72 23.9932 22.04 24.2732 21.3333 24.2732H2.66667C1.96 24.2732 1.28 23.9932 0.786667 23.4865C0.28 22.9932 0 22.3132 0 21.6065V2.93986C0 1.45986 1.18667 0.273193 2.66667 0.273193ZM13.3333 8.27319V5.60653H10.6667V8.27319H13.3333ZM13.3333 18.9399V10.9399H10.6667V18.9399H13.3333Z" fill="#0BC594"/>
</svg>
