<svg width="24" height="20" viewBox="0 0 24 20" fill="none" xmlns="http://www.w3.org/2000/svg">
<path d="M14.0057 13.0092C13.4086 13.4521 12.7151 13.6862 12 13.6862C11.285 13.6862 10.5914 13.4521 9.99431 13.0092L0.159797 5.714C0.105234 5.67353 0.0520781 5.63134 0 5.58794V17.5419C0 18.9124 0.999609 20.0002 2.20936 20.0002H21.7906C23.0224 20.0002 24 18.8879 24 17.5419V5.58789C23.9478 5.63139 23.8945 5.67369 23.8398 5.71421L14.0057 13.0092Z" fill="#0BC594"/>
<path d="M0.939844 4.41196L10.7744 11.7072C11.1466 11.9834 11.5733 12.1214 12 12.1214C12.4267 12.1214 12.8534 11.9833 13.2256 11.7072L23.0602 4.41196C23.6487 3.97568 24 3.2455 24 2.45743C24 1.10237 23.0092 0 21.7914 0H2.20861C0.990797 5.21558e-05 0 1.10242 0 2.45873C0 3.2455 0.351375 3.97568 0.939844 4.41196Z" fill="#0BC594"/>
</svg>
