<svg width="48" height="48" viewBox="0 0 48 48" fill="none" xmlns="http://www.w3.org/2000/svg">
<path id="Vector" d="M20.2667 27.7333L14.5333 22C14.0444 21.5111 13.4222 21.2667 12.6667 21.2667C11.9111 21.2667 11.2889 21.5111 10.8 22C10.3111 22.4889 10.0667 23.1111 10.0667 23.8667C10.0667 24.6222 10.3111 25.2444 10.8 25.7333L18.4 33.3333C18.9333 33.8667 19.5556 34.1333 20.2667 34.1333C20.9778 34.1333 21.6 33.8667 22.1333 33.3333L37.2 18.2667C37.6889 17.7778 37.9333 17.1556 37.9333 16.4C37.9333 15.6444 37.6889 15.0222 37.2 14.5333C36.7111 14.0444 36.0889 13.8 35.3333 13.8C34.5778 13.8 33.9556 14.0444 33.4667 14.5333L20.2667 27.7333ZM5.33334 48C3.86667 48 2.61067 47.4773 1.56534 46.432C0.520004 45.3867 -0.00177325 44.1316 4.52745e-06 42.6667V5.33334C4.52745e-06 3.86667 0.522671 2.61067 1.568 1.56534C2.61334 0.520004 3.86845 -0.00177325 5.33334 4.52745e-06H42.6667C44.1333 4.52745e-06 45.3893 0.522671 46.4347 1.568C47.48 2.61334 48.0018 3.86845 48 5.33334V42.6667C48 44.1333 47.4773 45.3893 46.432 46.4347C45.3867 47.48 44.1316 48.0018 42.6667 48H5.33334Z" fill="#14213D"/>
</svg>
