<svg width="24" height="24" viewBox="0 0 24 24" fill="none" xmlns="http://www.w3.org/2000/svg">
<path d="M23.3958 17.6136L20.0395 14.2643C18.8408 13.0681 16.803 13.5467 16.3236 15.1016C15.964 16.1782 14.7653 16.7763 13.6865 16.537C11.2891 15.9389 8.05263 12.8289 7.45329 10.317C7.09368 9.24036 7.81289 8.04419 8.89171 7.68538C10.45 7.20691 10.9295 5.17343 9.73079 3.97726L6.37447 0.627989C5.41552 -0.209329 3.9771 -0.209329 3.13802 0.627989L0.860519 2.90071C-1.41698 5.29305 1.10026 11.6327 6.73408 17.2547C12.3679 22.8767 18.7209 25.5083 21.1183 23.116L23.3958 20.8432C24.2349 19.8863 24.2349 18.4509 23.3958 17.6136Z" fill="black"/>
</svg>
