<svg width="24" height="24" viewBox="0 0 24 24" fill="none" xmlns="http://www.w3.org/2000/svg">
<g clip-path="url(#clip0_1584_15605)">
<path d="M23.3941 17.6136L20.0378 14.2643C18.8391 13.0681 16.8013 13.5467 16.3218 15.1016C15.9622 16.1782 14.7636 16.7763 13.6847 16.537C11.2874 15.9389 8.05092 12.8289 7.45158 10.317C7.09197 9.24036 7.81118 8.04419 8.89 7.68538C10.4483 7.20691 10.9278 5.17343 9.72908 3.97726L6.37276 0.627989C5.41381 -0.209329 3.97539 -0.209329 3.13631 0.627989L0.85881 2.90071C-1.41869 5.29305 1.09855 11.6327 6.73237 17.2547C12.3662 22.8767 18.7192 25.5083 21.1166 23.116L23.3941 20.8432C24.2332 19.8863 24.2332 18.4509 23.3941 17.6136Z" fill="#0BC594"/>
</g>
<defs>
<clipPath id="clip0_1584_15605">
<rect width="24" height="24" fill="white"/>
</clipPath>
</defs>
</svg>
