<svg width="32" height="32" viewBox="0 0 32 32" fill="none" xmlns="http://www.w3.org/2000/svg">
<path d="M29.1875 26.375H27.6875V18.375C27.6875 17.8575 27.2675 17.4375 26.75 17.4375H21.2775C19.8308 16.7352 18.3842 16.0329 16.9375 15.3306V13.125H21.0625C21.58 13.125 22 12.705 22 12.1875V8.4375C22 7.92 21.58 7.5 21.0625 7.5H16.9375V5.625H21.0625C21.58 5.625 22 5.205 22 4.6875V0.9375C22 0.42 21.58 0 21.0625 0H10.9375C10.42 0 10 0.42 10 0.9375V4.6875C10 5.205 10.42 5.625 10.9375 5.625H15.0625V7.5H10.9375C10.42 7.5 10 7.92 10 8.4375V12.1875C10 12.705 10.42 13.125 10.9375 13.125H15.0625V15.3306C13.6158 16.0329 12.1692 16.7352 10.7225 17.4375H5.25C4.7325 17.4375 4.3125 17.8575 4.3125 18.375V26.375H2.8125C1.26188 26.375 0 27.6369 0 29.1875C0 30.7381 1.26188 32 2.8125 32H7.625C9.17562 32 10.4375 30.7381 10.4375 29.1875C10.4375 27.6369 9.17562 26.375 7.625 26.375H6.1875V19.3125H10.7225C12.3452 20.1002 13.9679 20.8879 15.5906 21.6756C15.8493 21.8016 16.1507 21.8016 16.4094 21.6756C18.0321 20.8879 19.6548 20.1002 21.2775 19.3125H25.8125V26.375H24.375C22.8244 26.375 21.5625 27.6369 21.5625 29.1875C21.5625 30.7381 22.8244 32 24.375 32H29.1875C30.7381 32 32 30.7381 32 29.1875C32 27.6369 30.7381 26.375 29.1875 26.375Z" fill="#0BC594"/>
</svg>
