<svg width="32" height="28" viewBox="0 0 32 28" fill="none" xmlns="http://www.w3.org/2000/svg">
<path d="M15.0624 0.197021C11.4486 0.404459 8.05955 1.80877 5.35449 4.21958L9.53799 8.40308C11.1124 7.0924 13.024 6.30033 15.0624 6.11408V0.197021Z" fill="#0BC594"/>
<path d="M8.2121 9.72885L4.02866 5.54541C1.61579 8.24972 0.209727 11.639 0.000976562 15.2537H5.91829C6.10579 13.2149 6.89954 11.3031 8.2121 9.72885Z" fill="#0BC594"/>
<path d="M26.0819 15.2537H31.9992C31.7905 11.639 30.3845 8.24972 27.9715 5.54541L23.7881 9.72885C25.1006 11.303 25.8944 13.2149 26.0819 15.2537Z" fill="#0BC594"/>
<path d="M26.0804 17.1284C25.9489 18.5724 25.5369 19.7767 25.0495 20.7428C25.5249 21.476 25.9213 22.0956 26.1832 22.5071C26.8963 23.6279 26.7384 25.0665 25.7992 26.0058C25.5711 26.2339 25.3106 26.4176 25.0283 26.5534L26.0026 27.5278C26.186 27.7112 26.4264 27.8029 26.6667 27.8029C26.9071 27.8029 27.1474 27.7112 27.3307 27.5278C30.1384 24.7204 31.7756 21.0569 31.9997 17.1284H26.0804Z" fill="#0BC594"/>
<path d="M5.91937 17.1284H0C0.224063 21.0569 1.86125 24.7204 4.66894 27.5279C4.85231 27.7112 5.09263 27.8029 5.33294 27.8029C5.57325 27.8029 5.81363 27.7112 5.997 27.5279L8.8415 24.6832C9.20819 24.3164 9.20819 23.7218 8.8415 23.355C8.09919 22.6127 6.22937 20.5345 5.91937 17.1284Z" fill="#0BC594"/>
<path d="M26.6454 4.21958C23.9404 1.80871 20.5514 0.404459 16.9375 0.197021V6.11408C18.9759 6.30033 20.8876 7.0924 22.4619 8.40308L26.6454 4.21958Z" fill="#0BC594"/>
<path d="M18.0831 14.1234C16.9345 12.9748 15.0656 12.9748 13.9171 14.1234C12.7685 15.2719 12.7685 17.1408 13.9171 18.2894C15.3681 19.7404 22.499 24.2935 23.3074 24.8079C23.6781 25.0438 24.1629 24.9906 24.4736 24.6799C24.7843 24.3692 24.8376 23.8844 24.6016 23.5136C24.0872 22.7053 19.5341 15.5743 18.0831 14.1234Z" fill="#0BC594"/>
</svg>
