<svg width="32" height="32" viewBox="0 0 32 32" fill="none" xmlns="http://www.w3.org/2000/svg">
<path d="M10.7187 6.96219C10.9188 6.25644 10.9767 5.50725 10.886 4.77787C10.735 3.56319 10.1974 2.46338 9.33131 1.59731C9.10506 1.37106 8.8565 1.16281 8.59256 0.978563C7.676 0.338625 6.59731 0.000187603 5.47331 1.03023e-07C5.15175 -6.2397e-05 4.82812 0.0283126 4.51106 0.0844376C4.17731 0.143563 3.90944 0.369625 3.79469 0.689C3.67944 1.00956 3.74225 1.35569 3.96269 1.61488L5.71106 3.67081L3.67088 5.711L1.615 3.96263C1.35569 3.74213 1.0095 3.67937 0.688938 3.79469C0.3695 3.90963 0.1435 4.1775 0.0844376 4.51106C0.0283126 4.82781 -6.2397e-05 5.15156 1.03023e-07 5.47325C0.000250103 6.59731 0.338625 7.676 0.978563 8.59256C1.16263 8.85625 1.37081 9.10475 1.59731 9.33131C2.46338 10.1974 3.56319 10.735 4.77787 10.886C5.50725 10.9767 6.25637 10.9188 6.96219 10.7187L11.1386 14.8951L14.8951 11.1386L10.7187 6.96219Z" fill="#0BC594"/>
<path d="M21.2819 25.0377C21.0818 25.7434 21.0238 26.4926 21.1146 27.222C21.2656 28.4367 21.8032 29.5365 22.6693 30.4025C22.8958 30.6291 23.1443 30.8372 23.408 31.0213C24.3247 31.6612 25.4033 31.9997 26.5273 31.9999C26.849 31.9999 27.1728 31.9715 27.4895 31.9154C27.8231 31.8563 28.091 31.6304 28.2059 31.3109C28.3213 30.9904 28.2585 30.6442 28.038 30.3849L26.2896 28.329L28.3298 26.2889L30.3857 28.0372C30.6449 28.2577 30.9911 28.3205 31.3116 28.2052C31.631 28.0904 31.8571 27.8225 31.9162 27.4888C31.9723 27.1718 32.0007 26.8481 32.0006 26.5266C32.0004 25.4025 31.662 24.3239 31.022 23.4073C30.8378 23.1434 30.6295 22.8949 30.4033 22.6685C29.5372 21.8025 28.4374 21.2649 27.2227 21.1139C26.4933 21.0232 25.7442 21.081 25.0384 21.2812L20.862 17.1047L17.1055 20.8612L21.2819 25.0377Z" fill="#0BC594"/>
<path d="M31.7243 2.39599L29.6045 0.276114C29.2913 -0.0370109 28.8117 -0.0896359 28.4382 0.148114L24.0628 2.93243C23.8483 3.06893 23.6967 3.29011 23.6468 3.53949L23.272 5.41386L11.8145 16.8714L15.129 20.1859L26.5865 8.72843L28.461 8.35355C28.7103 8.30368 28.9315 8.15205 29.068 7.93755L31.8522 3.5623C32.0901 3.18874 32.0375 2.70911 31.7243 2.39599Z" fill="#0BC594"/>
<path d="M15.681 23.3901L8.60995 16.319C8.24383 15.9529 7.65027 15.9529 7.28414 16.319C6.91802 16.6852 6.91802 17.2787 7.28414 17.6448L7.50514 17.8658L1.37077 24.0002C-0.456922 25.8279 -0.456922 28.8017 1.37077 30.6293C3.19845 32.457 6.1722 32.457 7.99989 30.6293L14.1343 24.495L14.3553 24.716C14.7214 25.0821 15.315 25.0821 15.6811 24.716C16.0471 24.3498 16.0471 23.7562 15.681 23.3901ZM9.43139 23.8945L4.6607 28.6652C4.29458 29.0313 3.70102 29.0313 3.33489 28.6652C2.96877 28.2991 2.96877 27.7055 3.33489 27.3394L8.10558 22.5687C8.4717 22.2026 9.06527 22.2026 9.43139 22.5687C9.79745 22.9348 9.79745 23.5284 9.43139 23.8945Z" fill="#0BC594"/>
</svg>
