<svg width="181" height="40" viewBox="0 0 181 40" fill="none" xmlns="http://www.w3.org/2000/svg">
<g clip-path="url(#clip0_3002_16304)">
<path d="M12.3815 27.0918H1.87844C1.23179 27.0918 0.800462 27.7572 1.06585 28.3455L5.52183 38.2219L12.3815 27.0918Z" fill="#8D8F9E"/>
<path d="M12.3836 27.0918L5.52344 38.2219L19.2424 38.2205L12.3836 27.0918Z" fill="#BDBDBD"/>
<path d="M24.2636 27.0918H12.3828L19.2416 38.2206L24.2636 27.0918Z" fill="#B6B6B6"/>
<path d="M12.3809 27.0926H24.2621L19.9306 17.4928C19.6371 16.8423 18.7335 16.7844 18.359 17.3922L12.3809 27.0926Z" fill="#9F9F9F"/>
<path d="M19.9306 17.4928C19.6371 16.8423 18.7335 16.7844 18.359 17.3922L12.3809 27.0926H24.2621L19.9306 17.4928Z" fill="#9F9F9F"/>
<path d="M12.3828 13.7971H22.8859C23.5326 13.7971 23.9639 13.1317 23.6985 12.5434L19.2425 2.66699L12.3828 13.7971Z" fill="#8D8F9E"/>
<path d="M12.3823 13.7972L19.2423 2.66699L5.52344 2.66835L12.3823 13.7972Z" fill="#BDBDBD"/>
<path d="M0.5 13.7968H12.3808L5.52202 2.66797L0.5 13.7968Z" fill="#B6B6B6"/>
<path d="M12.3813 13.7949H0.5L4.83149 23.3947C5.12503 24.0452 6.0286 24.1032 6.40317 23.4954L12.3813 13.7949Z" fill="#9F9F9F"/>
<path d="M4.83149 23.3947C5.12503 24.0452 6.0286 24.1032 6.40317 23.4954L12.3813 13.7956L0.5 13.7949L4.83149 23.3947Z" fill="#9F9F9F"/>
<path d="M41.1596 14.4889C41.1596 13.5112 41.3753 12.6638 41.8066 11.9467C42.2509 11.2167 42.826 10.6561 43.5317 10.2649C44.2505 9.86077 45.0281 9.65872 45.8646 9.65872C46.518 9.65872 47.1061 9.74344 47.6289 9.91295C48.1517 10.0825 48.6222 10.3171 49.0404 10.6169C49.4717 10.9038 49.8442 11.2297 50.1578 11.5947V8.85695C49.5828 8.38761 48.962 8.0291 48.2955 7.78139C47.6289 7.53368 46.7925 7.40984 45.7862 7.40984C44.7799 7.40984 43.8389 7.57932 42.9632 7.91828C42.1006 8.25724 41.3492 8.74613 40.7087 9.38495C40.0683 10.0238 39.5652 10.7799 39.1992 11.6534C38.8464 12.5138 38.6699 13.459 38.6699 14.4889C38.6699 15.5189 38.8464 16.4705 39.1992 17.3441C39.5652 18.2045 40.0683 18.9541 40.7087 19.5929C41.3492 20.2318 42.1006 20.7207 42.9632 21.0596C43.8389 21.3985 44.7799 21.5681 45.7862 21.5681C46.7925 21.5681 47.6289 21.4442 48.2955 21.1965C48.962 20.9488 49.5828 20.5903 50.1578 20.1209V17.3832C49.8442 17.7482 49.4717 18.0807 49.0404 18.3805C48.6222 18.6673 48.1517 18.8954 47.6289 19.0649C47.1061 19.2345 46.518 19.3192 45.8646 19.3192C45.0281 19.3192 44.2505 19.1236 43.5317 18.7325C42.826 18.3283 42.2509 17.7612 41.8066 17.0312C41.3753 16.3011 41.1596 15.4537 41.1596 14.4889ZM59.5365 16.1316H63.7513C63.6337 16.5879 63.4573 17.0181 63.222 17.4223C62.9868 17.8265 62.6927 18.1849 62.3398 18.4978C61.987 18.8107 61.5688 19.0519 61.0852 19.2214C60.6017 19.3909 60.0528 19.4756 59.4384 19.4756C58.5367 19.4756 57.7264 19.267 57.0076 18.8498C56.2888 18.4327 55.7137 17.8525 55.2824 17.1094C54.8642 16.3532 54.6551 15.4798 54.6551 14.4889C54.6551 13.4851 54.8707 12.6181 55.302 11.8881C55.7333 11.1449 56.3084 10.5713 57.0272 10.1672C57.746 9.75001 58.5498 9.54139 59.4384 9.54139C60.3925 9.54139 61.2028 9.73695 61.8693 10.1281C62.549 10.5192 63.0783 11.0407 63.4573 11.6925L65.3392 10.4409C64.9342 9.8021 64.4375 9.26112 63.8493 8.81784C63.2743 8.36154 62.6209 8.01606 61.8889 7.78139C61.1571 7.53368 60.3402 7.40984 59.4384 7.40984C58.406 7.40984 57.4454 7.57932 56.5567 7.91828C55.6811 8.25724 54.9165 8.74613 54.263 9.38495C53.6227 10.0107 53.1195 10.7603 52.7535 11.6338C52.4006 12.4943 52.2242 13.446 52.2242 14.4889C52.2242 15.5319 52.4006 16.4901 52.7535 17.3636C53.1064 18.2371 53.6031 18.9932 54.2434 19.6321C54.8969 20.2709 55.6615 20.7663 56.5371 21.1183C57.4127 21.4572 58.3668 21.6267 59.3992 21.6267C60.4841 21.6267 61.4511 21.4312 62.3006 21.0401C63.1632 20.6359 63.882 20.0883 64.4571 19.3974C65.0322 18.7065 65.4635 17.9177 65.7509 17.0312C66.0385 16.1316 66.1692 15.1799 66.143 14.1761H59.5365V16.1316ZM75.3142 15.0561H85.0966V12.9245H75.3142V15.0561ZM83.6067 7.6445V21.3334H85.9199V7.6445H83.6067ZM74.3928 7.6445V21.3334H76.7061V7.6445H74.3928ZM90.6275 17.8134H97.881L97.4301 15.8578H91.0588L90.6275 17.8134ZM94.2151 11.5165L96.3911 16.6009L96.4499 17.1681L98.3123 21.3334H100.92L94.2151 6.88184L87.5106 21.3334H90.1178L92.0194 17.0507L92.0586 16.5423L94.2151 11.5165ZM105.339 14.8018L109.711 21.3334H112.495L107.849 14.8018H105.339ZM102.516 7.6445V21.3334H104.83V7.6445H102.516ZM103.889 9.63917H106.653C107.175 9.63917 107.633 9.73046 108.025 9.91295C108.43 10.0954 108.743 10.3562 108.966 10.6952C109.188 11.0341 109.299 11.4513 109.299 11.9467C109.299 12.4291 109.188 12.8463 108.966 13.1983C108.743 13.5372 108.43 13.798 108.025 13.9805C107.633 14.163 107.175 14.2543 106.653 14.2543H103.889V16.1512H106.751C107.744 16.1512 108.606 15.9752 109.339 15.6232C110.084 15.2712 110.658 14.7758 111.064 14.1369C111.468 13.4981 111.672 12.7485 111.672 11.8881C111.672 11.0276 111.468 10.2845 111.064 9.65872C110.658 9.01988 110.084 8.5245 109.339 8.1725C108.606 7.8205 107.744 7.6445 106.751 7.6445H103.889V9.63917ZM114.175 7.6445V21.3334H116.528V7.6445H114.175ZM118.606 21.3334C120.004 21.3334 121.233 21.0531 122.292 20.4925C123.35 19.9189 124.173 19.1236 124.762 18.1067C125.362 17.0768 125.663 15.8709 125.663 14.4889C125.663 13.107 125.362 11.9076 124.762 10.8907C124.173 9.86077 123.35 9.06557 122.292 8.50495C121.233 7.93132 120.004 7.6445 118.606 7.6445H115.607V9.81517H118.547C119.226 9.81517 119.853 9.91295 120.429 10.1085C121.004 10.3041 121.5 10.5974 121.919 10.9885C122.35 11.3796 122.684 11.8685 122.919 12.4552C123.167 13.0418 123.291 13.7198 123.291 14.4889C123.291 15.2581 123.167 15.9361 122.919 16.5227C122.684 17.1094 122.35 17.5983 121.919 17.9894C121.5 18.3805 121.004 18.6738 120.429 18.8694C119.853 19.0649 119.226 19.1627 118.547 19.1627H115.607V21.3334H118.606ZM139.736 16.8161L135.796 6.96006L131.895 16.8161L128.641 7.6445H125.955L131.562 22.0569L135.796 12.3769L140.03 22.0569L145.637 7.6445H142.951L139.736 16.8161ZM147.009 17.8134H154.262L153.811 15.8578H147.44L147.009 17.8134ZM150.596 11.5165L152.772 16.6009L152.831 17.1681L154.693 21.3334H157.301L150.596 6.88184L143.892 21.3334H146.499L148.4 17.0507L148.44 16.5423L150.596 11.5165ZM161.72 14.8018L166.091 21.3334H168.875L164.229 14.8018H161.72ZM158.897 7.6445V21.3334H161.21V7.6445H158.897ZM160.269 9.63917H163.033C163.556 9.63917 164.013 9.73046 164.405 9.91295C164.811 10.0954 165.124 10.3562 165.346 10.6952C165.568 11.0341 165.68 11.4513 165.68 11.9467C165.68 12.4291 165.568 12.8463 165.346 13.1983C165.124 13.5372 164.811 13.798 164.405 13.9805C164.013 14.163 163.556 14.2543 163.033 14.2543H160.269V16.1512H163.131C164.125 16.1512 164.987 15.9752 165.719 15.6232C166.464 15.2712 167.038 14.7758 167.444 14.1369C167.849 13.4981 168.052 12.7485 168.052 11.8881C168.052 11.0276 167.849 10.2845 167.444 9.65872C167.038 9.01988 166.464 8.5245 165.719 8.1725C164.987 7.8205 164.125 7.6445 163.131 7.6445H160.269V9.63917ZM171.987 21.3334H178.907V19.2996H171.987V21.3334ZM171.987 9.67828H178.907V7.6445H171.987V9.67828ZM171.987 14.9974H178.515V13.0027H171.987V14.9974ZM170.556 7.6445V21.3334H172.83V7.6445H170.556Z" fill="#8D8F9E"/>
<path opacity="0.5" d="M46.1601 33.7775H45.0997V29.8326H40.2967V33.7775H39.2363V25.0664H40.2967V28.8371H45.0997V25.0664H46.1601V33.7775ZM48.6632 29.3597L48.4013 28.5633C48.9585 28.2231 49.5822 28.0531 50.2726 28.0531C51.0294 28.0531 51.5783 28.2397 51.9193 28.6131C52.2602 28.9864 52.4308 29.563 52.4308 30.3429V33.7775H51.4827V33.0557C51.0418 33.595 50.443 33.8646 49.6862 33.8646C49.1705 33.8646 48.7547 33.7111 48.4387 33.4042C48.1226 33.0889 47.9646 32.6658 47.9646 32.1349C47.9646 31.5873 48.16 31.1559 48.551 30.8406C48.9418 30.5171 49.4533 30.3553 50.0854 30.3553C50.6759 30.3553 51.1416 30.4756 51.4827 30.7162C51.4827 30.0857 51.3953 29.6335 51.2207 29.3597C51.046 29.086 50.7092 28.9491 50.2102 28.9491C49.7028 28.9491 49.1872 29.086 48.6632 29.3597ZM50.0355 32.9686C50.5927 32.9686 51.0751 32.728 51.4827 32.2468V31.5375C51.1333 31.2886 50.7133 31.1642 50.2227 31.1642C49.8816 31.1642 49.5947 31.2471 49.3619 31.4131C49.1373 31.5707 49.025 31.7947 49.025 32.0851C49.025 32.3589 49.1124 32.5746 49.287 32.7322C49.47 32.8898 49.7195 32.9686 50.0355 32.9686ZM55.0999 33.7775H54.1019V28.1775H55.0999V28.8371C55.4327 28.331 55.9025 28.078 56.5096 28.078C56.9006 28.078 57.1917 28.1485 57.3829 28.2895L57.0336 29.2228C56.7925 29.0818 56.5388 29.0113 56.2726 29.0113C55.7653 29.0113 55.3744 29.2768 55.0999 29.8077V33.7775ZM63.4564 33.7775H62.4584V33.0682C61.9594 33.6075 61.3647 33.8771 60.6744 33.8771C59.851 33.8771 59.194 33.6157 58.7033 33.0931C58.2127 32.5621 57.9673 31.8693 57.9673 31.0148C57.9673 30.1437 58.2542 29.4344 58.8281 28.8869C59.4103 28.331 60.1464 28.0531 61.0362 28.0531C61.6018 28.0531 62.0758 28.1858 62.4584 28.4513V25.0664H63.4564V33.7775ZM60.8615 32.9437C61.477 32.9437 62.0093 32.6949 62.4584 32.1971V29.422C61.9927 29.1316 61.5311 28.9864 61.0736 28.9864C60.4998 28.9864 60.0132 29.1731 59.614 29.5464C59.2232 29.9115 59.0277 30.3926 59.0277 30.99C59.0277 31.5873 59.1941 32.0644 59.5267 32.4211C59.8677 32.7695 60.3126 32.9437 60.8615 32.9437ZM72.0233 28.1775H73.0338L71.2374 33.8273H70.3641L68.9669 30.1811C68.9003 30.0068 68.8297 29.7787 68.7548 29.4966C68.68 29.7704 68.6009 30.011 68.5178 30.2184L67.158 33.8273H66.3346L64.4758 28.1775H65.5487L66.6465 31.7117C66.6632 31.7698 66.6839 31.8528 66.7089 31.9606C66.7421 32.0685 66.7712 32.1804 66.7962 32.2966C66.8294 32.4044 66.8503 32.4708 66.8586 32.4957C67.0083 31.9813 67.0873 31.72 67.0956 31.7117L68.3681 28.1775H69.2289L70.5138 31.6993L70.7758 32.5082C70.834 32.2261 70.9088 31.9399 71.0004 31.6495L72.0233 28.1775ZM74.3569 29.3597L74.0949 28.5633C74.6521 28.2231 75.2759 28.0531 75.9662 28.0531C76.723 28.0531 77.2719 28.2397 77.613 28.6131C77.9539 28.9864 78.1244 29.563 78.1244 30.3429V33.7775H77.1763V33.0557C76.7355 33.595 76.1367 33.8646 75.3799 33.8646C74.8642 33.8646 74.4483 33.7111 74.1324 33.4042C73.8163 33.0889 73.6583 32.6658 73.6583 32.1349C73.6583 31.5873 73.8537 31.1559 74.2446 30.8406C74.6355 30.5171 75.147 30.3553 75.7791 30.3553C76.3695 30.3553 76.8353 30.4756 77.1763 30.7162C77.1763 30.0857 77.089 29.6335 76.9143 29.3597C76.7397 29.086 76.4029 28.9491 75.9038 28.9491C75.3965 28.9491 74.8809 29.086 74.3569 29.3597ZM75.7292 32.9686C76.2864 32.9686 76.7687 32.728 77.1763 32.2468V31.5375C76.827 31.2886 76.407 31.1642 75.9163 31.1642C75.5753 31.1642 75.2884 31.2471 75.0555 31.4131C74.831 31.5707 74.7187 31.7947 74.7187 32.0851C74.7187 32.3589 74.806 32.5746 74.9807 32.7322C75.1636 32.8898 75.4131 32.9686 75.7292 32.9686ZM80.7936 33.7775H79.7956V28.1775H80.7936V28.8371C81.1262 28.331 81.5962 28.078 82.2033 28.078C82.5942 28.078 82.8853 28.1485 83.0766 28.2895L82.7273 29.2228C82.486 29.0818 82.2324 29.0113 81.9663 29.0113C81.459 29.0113 81.0681 29.2768 80.7936 29.8077V33.7775ZM88.4639 32.3837L88.7758 33.1677C88.2353 33.6572 87.5325 33.902 86.6675 33.902C85.7527 33.902 85.0249 33.6364 84.4843 33.1055C83.9354 32.5746 83.661 31.8652 83.661 30.9775C83.661 30.1396 83.9188 29.4427 84.4344 28.8869C84.9418 28.331 85.6487 28.0531 86.5552 28.0531C87.3037 28.0531 87.9234 28.2937 88.414 28.7749C88.913 29.2477 89.1625 29.8617 89.1625 30.6166C89.1625 30.8573 89.1418 31.0813 89.1002 31.2886H84.7837C84.8253 31.8113 85.0208 32.222 85.3701 32.5206C85.7277 32.8193 86.1851 32.9686 86.7423 32.9686C87.4743 32.9686 88.0481 32.7737 88.4639 32.3837ZM86.5053 28.9864C86.0147 28.9864 85.6071 29.1233 85.2827 29.3971C84.9668 29.6708 84.7796 30.0317 84.7213 30.4797H88.1271C88.1021 30.0151 87.9441 29.6501 87.653 29.3846C87.3703 29.1191 86.9877 28.9864 86.5053 28.9864ZM96.1627 32.2593C96.1627 32.0602 96.0593 31.8942 95.8508 31.7615C95.6432 31.6288 95.3892 31.5209 95.0898 31.438C94.7993 31.3467 94.5035 31.243 94.204 31.1269C93.9046 31.0107 93.6516 30.8282 93.4431 30.5793C93.2354 30.3221 93.1312 30.0069 93.1312 29.6335C93.1312 29.1606 93.3058 28.779 93.6551 28.4886C94.0044 28.1982 94.466 28.0531 95.0399 28.0531C95.8633 28.0531 96.5084 28.2729 96.9736 28.7126L96.4995 29.4717C96.0842 29.1067 95.6138 28.9242 95.0898 28.9242C94.8242 28.9242 94.6077 28.9906 94.4411 29.1233C94.2753 29.256 94.1916 29.422 94.1916 29.6211C94.1916 29.8368 94.2958 30.0151 94.5035 30.1562C94.712 30.2889 94.9615 30.4009 95.252 30.4922C95.5514 30.5751 95.8508 30.6747 96.1502 30.7908C96.4496 30.8987 96.7036 31.0729 96.9112 31.3135C97.1197 31.5541 97.2231 31.8528 97.2231 32.2095C97.2231 32.7653 97.0154 33.1885 96.5993 33.4789C96.1921 33.7609 95.6761 33.902 95.0524 33.902C94.6122 33.902 94.1916 33.8107 93.7924 33.6282C93.3851 33.4373 93.1151 33.2382 92.9815 33.0308L93.5429 32.3215C93.7095 32.5124 93.951 32.6782 94.2664 32.8193C94.5997 32.9604 94.8991 33.0308 95.1646 33.0308C95.456 33.0308 95.6931 32.9645 95.8757 32.8317C96.0673 32.6907 96.1627 32.4999 96.1627 32.2593ZM98.5543 31.6495V26.622H99.5524V28.1775H101.611V29.1109H99.5524V31.55C99.5524 32.4791 99.8847 32.9437 100.55 32.9437C100.875 32.9437 101.17 32.84 101.436 32.6326L101.748 33.4042C101.357 33.7195 100.879 33.8771 100.313 33.8771C99.7065 33.8771 99.261 33.6946 98.9785 33.3295C98.696 32.9644 98.5543 32.4044 98.5543 31.6495ZM103.307 33.0806C102.758 32.5164 102.483 31.8155 102.483 30.9775C102.483 30.1313 102.758 29.4344 103.307 28.8869C103.864 28.331 104.588 28.0531 105.477 28.0531C106.367 28.0531 107.087 28.331 107.635 28.8869C108.193 29.4344 108.471 30.1313 108.471 30.9775C108.471 31.8237 108.193 32.5248 107.635 33.0806C107.087 33.6282 106.367 33.902 105.477 33.902C104.596 33.902 103.872 33.6282 103.307 33.0806ZM104.092 29.5464C103.727 29.9115 103.544 30.3884 103.544 30.9775C103.544 31.5666 103.723 32.0436 104.08 32.4086C104.446 32.782 104.912 32.9686 105.477 32.9686C106.043 32.9686 106.505 32.7861 106.862 32.4211C107.228 32.0477 107.411 31.5666 107.411 30.9775C107.411 30.4051 107.228 29.928 106.862 29.5464C106.505 29.1731 106.043 28.9864 105.477 28.9864C104.912 28.9864 104.451 29.1731 104.092 29.5464ZM110.909 33.7775H109.911V28.1775H110.909V28.8371C111.243 28.331 111.712 28.078 112.319 28.078C112.71 28.078 113.002 28.1485 113.192 28.2895L112.843 29.2228C112.602 29.0818 112.348 29.0113 112.082 29.0113C111.575 29.0113 111.184 29.2768 110.909 29.8077V33.7775ZM118.58 32.3837L118.892 33.1677C118.352 33.6572 117.649 33.902 116.783 33.902C115.869 33.902 115.141 33.6364 114.6 33.1055C114.051 32.5746 113.777 31.8652 113.777 30.9775C113.777 30.1396 114.035 29.4427 114.55 28.8869C115.058 28.331 115.765 28.0531 116.671 28.0531C117.42 28.0531 118.04 28.2937 118.53 28.7749C119.029 29.2477 119.278 29.8617 119.278 30.6166C119.278 30.8573 119.258 31.0813 119.216 31.2886H114.9C114.941 31.8113 115.137 32.222 115.486 32.5206C115.844 32.8193 116.301 32.9686 116.858 32.9686C117.591 32.9686 118.165 32.7737 118.58 32.3837ZM116.621 28.9864C116.131 28.9864 115.723 29.1233 115.399 29.3971C115.083 29.6708 114.896 30.0317 114.837 30.4797H118.243C118.218 30.0151 118.06 29.6501 117.769 29.3846C117.486 29.1191 117.104 28.9864 116.621 28.9864Z" fill="#8D8F9E"/>
</g>
<defs>
<clipPath id="clip0_3002_16304">
<rect width="180" height="40" fill="white" transform="translate(0.5)"/>
</clipPath>
</defs>
</svg>
