<svg width="181" height="40" viewBox="0 0 181 40" fill="none" xmlns="http://www.w3.org/2000/svg">
<path d="M65.2956 22.5012C63.4687 22.5012 61.8928 22.2297 60.5676 21.6866C59.26 21.1249 58.2481 20.273 57.5316 19.1308C56.8153 17.9886 56.457 16.5374 56.457 14.7773C56.457 13.0546 56.8064 11.6222 57.5049 10.48C58.2031 9.31915 59.2064 8.45789 60.5136 7.89612C61.8211 7.31567 63.3705 7.02539 65.1616 7.02539C67.0417 7.02539 68.618 7.31567 69.8896 7.89612C71.1793 8.45789 72.1461 9.29102 72.7912 10.3958C73.4358 11.4818 73.758 12.8113 73.758 14.384V15.7323H60.3524C60.4064 16.6498 60.6391 17.3895 61.051 17.9511C61.4808 18.4941 62.0629 18.8873 62.7971 19.1308C63.5496 19.3741 64.4179 19.4959 65.4032 19.4959C65.7971 19.4959 66.236 19.4491 66.7195 19.3555C67.2209 19.2619 67.6957 19.1214 68.1433 18.9341C68.6091 18.7469 69.003 18.5035 69.3256 18.2039C69.648 17.8856 69.8361 17.5017 69.8896 17.0524H73.6509C73.6509 17.8013 73.4628 18.5129 73.0864 19.1869C72.7282 19.8423 72.1912 20.4227 71.4745 20.9282C70.7584 21.4151 69.8807 21.799 68.8418 22.0799C67.8029 22.3607 66.6208 22.5012 65.2956 22.5012ZM60.3524 13.1482H69.8361C69.8361 12.6053 69.7105 12.1372 69.4598 11.744C69.2271 11.3508 68.8958 11.0325 68.4658 10.789C68.036 10.5268 67.5432 10.3396 66.9881 10.2272C66.4332 10.0963 65.8421 10.0307 65.2152 10.0307C64.3018 10.0307 63.4866 10.1524 62.7705 10.3958C62.0719 10.6204 61.5165 10.9669 61.1046 11.435C60.6927 11.9031 60.4419 12.4742 60.3524 13.1482Z" fill="#8D8F9E"/>
<path d="M80.8022 22.164L74.0859 7.3623H78.0889L81.2052 14.5525C81.3307 14.8334 81.4828 15.1985 81.662 15.648C81.8411 16.0973 82.0203 16.556 82.1995 17.0242C82.3962 17.4922 82.5663 17.9136 82.7099 18.288H82.9247C83.0678 17.9136 83.2203 17.4922 83.3815 17.0242C83.5606 16.556 83.7308 16.0973 83.8919 15.648C84.0711 15.1985 84.2232 14.8334 84.3484 14.5525L87.465 7.3623H91.5639L84.644 22.164H80.8022Z" fill="#8D8F9E"/>
<path d="M100.378 22.5012C98.5511 22.5012 96.9748 22.2297 95.6496 21.6866C94.342 21.1249 93.3301 20.273 92.614 19.1308C91.8973 17.9886 91.5391 16.5374 91.5391 14.7773C91.5391 13.0546 91.8884 11.6222 92.587 10.48C93.2855 9.31915 94.2884 8.45789 95.596 7.89612C96.9032 7.31567 98.4525 7.02539 100.244 7.02539C102.124 7.02539 103.7 7.31567 104.972 7.89612C106.261 8.45789 107.229 9.29102 107.873 10.3958C108.518 11.4818 108.84 12.8113 108.84 14.384V15.7323H95.4345C95.4884 16.6498 95.7212 17.3895 96.133 17.9511C96.5628 18.4941 97.1449 18.8873 97.8795 19.1308C98.6317 19.3741 99.5003 19.4959 100.485 19.4959C100.879 19.4959 101.318 19.4491 101.802 19.3555C102.303 19.2619 102.778 19.1214 103.226 18.9341C103.691 18.7469 104.085 18.5035 104.408 18.2039C104.73 17.8856 104.918 17.5017 104.972 17.0524H108.733C108.733 17.8013 108.545 18.5129 108.169 19.1869C107.811 19.8423 107.273 20.4227 106.557 20.9282C105.84 21.4151 104.963 21.799 103.924 22.0799C102.885 22.3607 101.703 22.5012 100.378 22.5012ZM95.4345 13.1482H104.918C104.918 12.6053 104.793 12.1372 104.542 11.744C104.309 11.3508 103.978 11.0325 103.548 10.789C103.118 10.5268 102.626 10.3396 102.07 10.2272C101.515 10.0963 100.924 10.0307 100.297 10.0307C99.3838 10.0307 98.569 10.1524 97.8525 10.3958C97.154 10.6204 96.5989 10.9669 96.187 11.435C95.7748 11.9031 95.524 12.4742 95.4345 13.1482Z" fill="#8D8F9E"/>
<path d="M111.557 22.1641V7.36248H114.539L114.807 9.89026H115.049C115.569 9.15994 116.16 8.58884 116.822 8.17694C117.485 7.76504 118.183 7.47476 118.918 7.30621C119.67 7.119 120.395 7.02539 121.094 7.02539C122.419 7.02539 123.521 7.24074 124.398 7.67143C125.294 8.102 125.965 8.75738 126.414 9.63744C126.86 10.5175 127.085 11.6409 127.085 13.0078V22.1641H123.377V13.682C123.377 13.0453 123.288 12.5116 123.109 12.081C122.947 11.6316 122.706 11.2758 122.383 11.0137C122.079 10.7515 121.703 10.5643 121.255 10.452C120.825 10.3396 120.341 10.2835 119.804 10.2835C119.016 10.2835 118.273 10.452 117.574 10.789C116.894 11.1261 116.339 11.5941 115.909 12.1934C115.479 12.7925 115.264 13.4947 115.264 14.2998V22.1641H111.557Z" fill="#8D8F9E"/>
<path d="M136.067 22.5011C135.029 22.5011 134.187 22.3514 133.541 22.0518C132.897 21.7522 132.422 21.256 132.119 20.5631C131.832 19.8516 131.689 18.8874 131.689 17.6703V10.3677H128.975V7.36247H131.796L132.548 3.03711H135.395V7.36247H139.237V10.3677H135.395V17.3894C135.395 18.0822 135.512 18.6065 135.745 18.9622C135.995 19.318 136.542 19.4959 137.384 19.4959H139.237V22.0236C138.986 22.1174 138.665 22.2015 138.271 22.2765C137.894 22.3514 137.509 22.4075 137.115 22.445C136.722 22.4825 136.372 22.5011 136.067 22.5011Z" fill="#8D8F9E"/>
<path d="M144.274 27.7252C143.772 27.7252 143.316 27.6784 142.904 27.5848C142.492 27.5099 142.106 27.3975 141.749 27.2477V24.7199H143.603C144.425 24.7199 145.08 24.617 145.564 24.411C146.047 24.2238 146.432 23.9428 146.719 23.5684C147.023 23.1938 147.309 22.7258 147.578 22.164L140.646 7.3623H144.704L147.766 14.5244C147.927 14.8615 148.107 15.2827 148.303 15.7884C148.519 16.2752 148.733 16.7714 148.949 17.277C149.163 17.7825 149.351 18.2225 149.513 18.597H149.727C149.727 18.597 149.772 18.4566 149.862 18.1757C149.969 17.8761 150.103 17.511 150.264 17.0803C150.444 16.631 150.623 16.1723 150.802 15.7041C150.981 15.2359 151.142 14.8147 151.286 14.4401L154.026 7.3623H157.921L152.172 20.7597C151.688 21.8644 151.213 22.8475 150.749 23.7088C150.3 24.5701 149.79 25.3004 149.217 25.8996C148.644 26.4987 147.954 26.9481 147.148 27.2477C146.36 27.566 145.402 27.7252 144.274 27.7252Z" fill="#8D8F9E"/>
<path d="M159.434 22.1641V7.36248H162.415L162.684 9.97453H162.899C163.096 9.45023 163.382 8.96339 163.758 8.51403C164.135 8.06466 164.6 7.70878 165.156 7.44675C165.729 7.1658 166.373 7.02539 167.09 7.02539C167.412 7.02539 167.726 7.05352 168.03 7.10966C168.353 7.14713 168.639 7.21261 168.89 7.30621V10.7047H167.036C166.32 10.7047 165.711 10.8358 165.21 11.0979C164.726 11.3414 164.332 11.6784 164.028 12.1091C163.723 12.5398 163.499 13.0173 163.356 13.5416C163.213 14.0471 163.141 14.5714 163.141 15.1144V22.1641H159.434Z" fill="#8D8F9E"/>
<path fill-rule="evenodd" clip-rule="evenodd" d="M20.1272 8.1197C21.6412 7.11205 23.7824 6.37714 26.2484 6.10597C26.934 6.04174 27.6381 6.0127 28.3544 6.0127C29.0703 6.0127 29.7768 6.045 30.4703 6.1033C37.4514 6.70687 43.03 10.2518 44.7006 14.8047C44.9981 15.6113 45.1735 16.455 45.2106 17.3194V18.0639C45.0723 21.1659 43.1832 23.9896 40.1498 26.0498C37.1148 28.1113 32.9554 29.3907 28.3544 29.3907C23.6631 29.3907 19.4313 28.0611 16.3815 25.9287C13.3315 23.7961 11.4844 20.8795 11.4844 17.6902V15.2972C13.5097 20.0069 19.3595 23.4736 26.3841 24.0242L26.3995 24.0253H26.4024C27.0373 24.0878 27.6924 24.1206 28.3579 24.1206C29.0369 24.1206 29.7021 24.0872 30.3498 24.0234C32.9623 23.7638 35.2815 23.002 36.9583 21.9059C38.6312 20.8126 39.7103 19.352 39.7103 17.7C39.7103 16.4879 39.1281 15.3754 38.1585 14.4411C36.1731 12.5254 32.4995 11.2795 28.3579 11.2795C24.4076 11.2795 20.8831 12.4128 18.8432 14.1798C18.1401 13.4098 17.7645 12.564 17.7645 11.6904C17.7645 10.3812 18.609 9.13022 20.1272 8.1197Z" fill="url(#paint0_linear_3002_16108)"/>
<path fill-rule="evenodd" clip-rule="evenodd" d="M11.4844 11.6775C11.4844 8.4902 13.332 5.57929 16.3824 3.45199C19.4326 1.32481 23.6645 0 28.3544 0C32.9557 0 37.1144 1.27453 40.1494 3.33118C43.1825 5.38657 45.0723 8.20527 45.214 11.3071V14.05C43.2001 9.40387 37.4567 5.98544 30.5463 5.38364C29.8362 5.30675 29.1056 5.26669 28.3579 5.26669C27.6086 5.26669 26.8765 5.30695 26.1652 5.3841C23.5999 5.66554 21.3293 6.43194 19.6896 7.52251C18.0533 8.61095 17.0019 10.0558 17.0019 11.6873C17.0019 12.8996 17.5841 14.0119 18.5537 14.9463C20.5391 16.862 24.2127 18.108 28.3544 18.108C32.3049 18.108 35.8296 16.9744 37.8695 15.2072C38.5719 15.9748 38.9477 16.8232 38.9477 17.697C38.9477 19.0237 38.0807 20.2901 36.5255 21.3065C34.9751 22.3197 32.7857 23.0502 30.2724 23.3006C29.6419 23.3489 29.0014 23.3747 28.3509 23.3747C27.7059 23.3747 27.0709 23.3488 26.446 23.3003L26.4306 23.2991H26.4239C19.3546 22.7404 13.6877 19.1611 11.9981 14.5634C11.6631 13.6437 11.4844 12.6747 11.4844 11.6775Z" fill="url(#paint1_linear_3002_16108)"/>
<path d="M56.457 34.9682V29.4609H56.9615L58.9418 33.4371L60.9079 29.4609H61.4123V34.9682H60.8568V30.6639L59.1393 34.1167H58.7446L57.0054 30.6717V34.9682H56.457Z" fill="#8D8F9E"/>
<path d="M64.2145 35.0386C63.6541 35.0386 63.2108 34.8642 62.8843 34.515C62.5579 34.1612 62.3945 33.6819 62.3945 33.0779C62.3945 32.6873 62.4677 32.3436 62.6138 32.0468C62.7599 31.7447 62.9597 31.513 63.2131 31.3515C63.4712 31.185 63.7684 31.1016 64.105 31.1016C64.5873 31.1016 64.9647 31.2682 65.2376 31.6016C65.5104 31.9296 65.6468 32.3827 65.6468 32.9608V33.2029H62.972C62.9915 33.6353 63.1085 33.9657 63.3228 34.1948C63.5372 34.419 63.8344 34.5307 64.2145 34.5307C64.4288 34.5307 64.6335 34.4971 64.8284 34.4292C65.0232 34.3563 65.2083 34.2392 65.3837 34.0777L65.5884 34.5228C65.4275 34.6843 65.223 34.8121 64.9745 34.9057C64.726 34.9944 64.4726 35.0386 64.2145 35.0386ZM64.1196 31.5703C63.7831 31.5703 63.5177 31.6823 63.3228 31.9062C63.1279 32.1301 63.0132 32.4244 62.9791 32.7889H65.1353C65.1206 32.4035 65.0258 32.1041 64.8504 31.8905C64.68 31.677 64.4363 31.5703 64.1196 31.5703Z" fill="#8D8F9E"/>
<path d="M66.5195 34.9685V31.1719H67.0972V31.8125C67.2042 31.5833 67.3531 31.4089 67.5431 31.2892C67.7331 31.1641 67.9546 31.1016 68.2079 31.1016C68.7634 31.1016 69.119 31.3594 69.2749 31.8749C69.3821 31.6354 69.5406 31.448 69.7501 31.3126C69.9596 31.1719 70.201 31.1016 70.4738 31.1016C71.2631 31.1016 71.6578 31.6016 71.6578 32.6014V34.9685H71.0656V32.6326C71.0656 32.2837 71.0071 32.0286 70.8902 31.8671C70.7781 31.7006 70.5907 31.6172 70.3276 31.6172C70.0402 31.6172 69.8112 31.7266 69.6404 31.9453C69.4698 32.164 69.3847 32.4556 69.3847 32.8201V34.9685H68.7925V32.6326C68.7925 32.2837 68.7341 32.0286 68.6171 31.8671C68.5051 31.7006 68.3177 31.6172 68.0546 31.6172C67.7623 31.6172 67.5307 31.7266 67.3602 31.9453C67.1945 32.164 67.1117 32.4556 67.1117 32.8201V34.9685H66.5195Z" fill="#8D8F9E"/>
<path d="M74.5618 35.0383C74.2793 35.0383 74.0305 34.9706 73.816 34.8354C73.6066 34.6997 73.4484 34.5148 73.3412 34.2805V34.9682H72.7637V29.4609H73.3559V31.8278C73.4581 31.6038 73.6163 31.4268 73.8307 31.2966C74.045 31.1664 74.289 31.1013 74.5618 31.1013C74.8785 31.1013 75.1537 31.1821 75.3875 31.3435C75.6262 31.4998 75.8091 31.7262 75.9358 32.0231C76.0674 32.3147 76.1329 32.6636 76.1329 33.0698C76.1329 33.4709 76.0674 33.8197 75.9358 34.1167C75.8091 34.4082 75.6262 34.6348 75.3875 34.7962C75.1537 34.9576 74.8785 35.0383 74.5618 35.0383ZM74.4374 34.5304C74.7688 34.5304 75.0344 34.4055 75.2342 34.1554C75.434 33.9003 75.5336 33.5386 75.5336 33.0698C75.5336 32.5959 75.434 32.2339 75.2342 31.984C75.0344 31.734 74.7688 31.6091 74.4374 31.6091C74.1061 31.6091 73.8404 31.734 73.6406 31.984C73.4409 32.2339 73.3412 32.5959 73.3412 33.0698C73.3412 33.5386 73.4409 33.9003 73.6406 34.1554C73.8404 34.4055 74.1061 34.5304 74.4374 34.5304Z" fill="#8D8F9E"/>
<path d="M78.6266 35.0386C78.0658 35.0386 77.6225 34.8642 77.2961 34.515C76.9696 34.1612 76.8066 33.6819 76.8066 33.0779C76.8066 32.6873 76.8798 32.3436 77.0259 32.0468C77.172 31.7447 77.3718 31.513 77.6252 31.3515C77.8833 31.185 78.1805 31.1016 78.5167 31.1016C78.9991 31.1016 79.3768 31.2682 79.6497 31.6016C79.9225 31.9296 80.0589 32.3827 80.0589 32.9608V33.2029H77.3838C77.4033 33.6353 77.5203 33.9657 77.7346 34.1948C77.949 34.419 78.2462 34.5307 78.6266 34.5307C78.8409 34.5307 79.0456 34.4971 79.2405 34.4292C79.4353 34.3563 79.6204 34.2392 79.7958 34.0777L80.0005 34.5228C79.8397 34.6843 79.6351 34.8121 79.3866 34.9057C79.1381 34.9944 78.8847 35.0386 78.6266 35.0386ZM78.5313 31.5703C78.1952 31.5703 77.9295 31.6823 77.7346 31.9062C77.5397 32.1301 77.4253 32.4244 77.3912 32.7889H79.5474C79.5327 32.4035 79.4375 32.1041 79.2622 31.8905C79.0916 31.677 78.848 31.5703 78.5313 31.5703Z" fill="#8D8F9E"/>
<path d="M80.9141 34.9685V31.1719H81.4912V31.8515C81.6813 31.3932 82.0713 31.1406 82.6609 31.0937L82.8727 31.0703L82.9165 31.6171L82.544 31.6641C82.2078 31.6953 81.9519 31.8098 81.7765 32.0078C81.6011 32.2003 81.5134 32.466 81.5134 32.8045V34.9685H80.9141Z" fill="#8D8F9E"/>
<path d="M87.6563 35.0383C87.1789 35.0383 86.7621 34.9238 86.4065 34.6946C86.0558 34.4603 85.7829 34.1323 85.588 33.7103C85.398 33.2885 85.3027 32.7885 85.3027 32.2106C85.3027 31.6325 85.398 31.1326 85.588 30.7107C85.778 30.2889 86.0482 29.9633 86.399 29.7343C86.755 29.5051 87.174 29.3906 87.6563 29.3906C88.1436 29.3906 88.5626 29.5051 88.9134 29.7343C89.269 29.9633 89.5418 30.2889 89.7318 30.7107C89.9267 31.1273 90.0242 31.6246 90.0242 32.2027C90.0242 32.7808 89.9267 33.2833 89.7318 33.7103C89.537 34.1323 89.2615 34.4603 88.9059 34.6946C88.5551 34.9238 88.1387 35.0383 87.6563 35.0383ZM87.6563 34.4681C88.2069 34.4681 88.6331 34.2702 88.9351 33.8745C89.2372 33.4786 89.3882 32.9239 89.3882 32.2106C89.3882 31.497 89.2372 30.9451 88.9351 30.5545C88.6331 30.1587 88.2069 29.9607 87.6563 29.9607C87.1156 29.9607 86.694 30.1587 86.3918 30.5545C86.0898 30.9451 85.9388 31.497 85.9388 32.2106C85.9388 32.9187 86.0898 33.4735 86.3918 33.8745C86.694 34.2702 87.1156 34.4681 87.6563 34.4681Z" fill="#8D8F9E"/>
<path d="M91.2058 34.9682V31.6638H90.5039V31.1716H91.2058V31.0389C91.2058 30.5337 91.3228 30.1509 91.5566 29.8906C91.7954 29.6302 92.1607 29.4843 92.6528 29.4532L92.9377 29.4375L92.989 29.9218L92.6528 29.9452C92.3508 29.9713 92.1316 30.0676 91.9951 30.2343C91.8636 30.401 91.7977 30.6431 91.7977 30.9607V31.1716H92.8208V31.6638H91.7977V34.9682H91.2058Z" fill="#8D8F9E"/>
<path d="M97.0728 35.0383C96.6684 35.0383 96.3031 34.9834 95.9766 34.8741C95.6501 34.7596 95.3675 34.5954 95.1289 34.3823L95.3406 33.8666C95.5891 34.0695 95.8499 34.2209 96.1227 34.3196C96.3956 34.4187 96.7123 34.4681 97.0728 34.4681C97.5113 34.4681 97.8355 34.3823 98.045 34.2103C98.2594 34.0332 98.3666 33.8015 98.3666 33.5151C98.3666 33.2859 98.2885 33.1037 98.1326 32.9683C97.9816 32.8328 97.7257 32.726 97.3652 32.648L96.6051 32.4839C96.1472 32.3797 95.8035 32.2106 95.5745 31.9762C95.3503 31.7367 95.2383 31.419 95.2383 31.0232C95.2383 30.695 95.3162 30.4086 95.4721 30.1639C95.6329 29.9192 95.8548 29.7291 96.1374 29.5937C96.4199 29.4583 96.7464 29.3906 97.1167 29.3906C97.4626 29.3906 97.7841 29.4505 98.0813 29.5702C98.3785 29.6848 98.6297 29.8514 98.8342 30.0702L98.6221 30.5701C98.4028 30.3566 98.1717 30.203 97.928 30.1092C97.6844 30.0103 97.4116 29.9607 97.1096 29.9607C96.7247 29.9607 96.4174 30.0572 96.1884 30.2498C95.9594 30.4374 95.8451 30.6873 95.8451 30.9998C95.8451 31.2497 95.9155 31.4476 96.0568 31.5934C96.203 31.7393 96.4394 31.846 96.7659 31.9137L97.5259 32.0856C98.018 32.1949 98.3812 32.3615 98.615 32.5855C98.8537 32.8042 98.9729 33.1037 98.9729 33.4837C98.9729 33.7909 98.8949 34.0617 98.7391 34.2961C98.588 34.5305 98.3688 34.7127 98.0813 34.8431C97.7987 34.9732 97.4626 35.0383 97.0728 35.0383Z" fill="#8D8F9E"/>
<path d="M99.748 30.2265V29.5156H100.479V30.2265H99.748ZM99.8212 34.9683V31.1717H100.413V34.9683H99.8212Z" fill="#8D8F9E"/>
<path d="M103.09 36.4447C102.782 36.4447 102.492 36.4004 102.22 36.3118C101.952 36.2287 101.713 36.101 101.503 35.929L101.701 35.4681C101.92 35.6351 102.137 35.7546 102.351 35.8275C102.57 35.9003 102.807 35.9368 103.06 35.9368C103.762 35.9368 104.113 35.5515 104.113 34.7808V34.1091C104.01 34.3485 103.85 34.5385 103.63 34.6793C103.416 34.8149 103.17 34.8822 102.892 34.8822C102.565 34.8822 102.283 34.8016 102.044 34.6401C101.806 34.4787 101.62 34.2576 101.489 33.9763C101.362 33.6897 101.299 33.359 101.299 32.9842C101.299 32.6092 101.362 32.2811 101.489 31.9999C101.62 31.7135 101.806 31.4922 102.044 31.336C102.283 31.1797 102.565 31.1016 102.892 31.1016C103.17 31.1016 103.416 31.1693 103.63 31.3047C103.85 31.4401 104.01 31.625 104.113 31.8593V31.1719H104.69V34.6949C104.69 35.2781 104.553 35.7157 104.281 36.0074C104.012 36.2989 103.616 36.4447 103.09 36.4447ZM103.001 34.3669C103.343 34.3669 103.613 34.2419 103.813 33.9919C104.013 33.7419 104.113 33.406 104.113 32.9842C104.113 32.5623 104.013 32.2291 103.813 31.9842C103.613 31.7343 103.343 31.6093 103.001 31.6093C102.665 31.6093 102.397 31.7343 102.197 31.9842C101.998 32.2291 101.898 32.5623 101.898 32.9842C101.898 33.406 101.998 33.7419 102.197 33.9919C102.397 34.2419 102.665 34.3669 103.001 34.3669Z" fill="#8D8F9E"/>
<path d="M105.818 34.9685V31.1719H106.396V31.8125C106.503 31.5833 106.651 31.4089 106.841 31.2892C107.032 31.1641 107.253 31.1016 107.507 31.1016C108.062 31.1016 108.418 31.3594 108.574 31.8749C108.681 31.6354 108.839 31.448 109.049 31.3126C109.258 31.1719 109.499 31.1016 109.773 31.1016C110.562 31.1016 110.956 31.6016 110.956 32.6014V34.9685H110.364V32.6326C110.364 32.2837 110.306 32.0286 110.189 31.8671C110.077 31.7006 109.89 31.6172 109.626 31.6172C109.339 31.6172 109.11 31.7266 108.939 31.9453C108.769 32.164 108.683 32.4556 108.683 32.8201V34.9685H108.091V32.6326C108.091 32.2837 108.033 32.0286 107.916 31.8671C107.804 31.7006 107.617 31.6172 107.353 31.6172C107.061 31.6172 106.83 31.7266 106.659 31.9453C106.493 32.164 106.411 32.4556 106.411 32.8201V34.9685H105.818Z" fill="#8D8F9E"/>
<path d="M113.179 35.0386C112.936 35.0386 112.717 34.9893 112.522 34.8901C112.332 34.7859 112.181 34.6456 112.069 34.4685C111.957 34.2913 111.9 34.0934 111.9 33.8747C111.9 33.5988 111.966 33.3798 112.098 33.2184C112.234 33.0571 112.456 32.9425 112.763 32.8749C113.075 32.8019 113.498 32.7655 114.034 32.7655H114.269V32.5234C114.269 32.2005 114.205 31.9687 114.079 31.8281C113.956 31.6823 113.759 31.6093 113.486 31.6093C113.272 31.6093 113.065 31.6432 112.865 31.7109C112.665 31.7734 112.461 31.8776 112.251 32.0233L112.047 31.5625C112.232 31.4218 112.456 31.3099 112.719 31.2265C112.987 31.1433 113.243 31.1016 113.486 31.1016C113.944 31.1016 114.283 31.2214 114.502 31.4609C114.727 31.7006 114.839 32.0729 114.839 32.578V34.9685H114.283V34.3121C114.191 34.5362 114.047 34.7129 113.852 34.8435C113.662 34.9736 113.438 35.0386 113.179 35.0386ZM113.274 34.5621C113.567 34.5621 113.805 34.4555 113.991 34.2419C114.176 34.0233 114.269 33.747 114.269 33.4139V33.1795H114.042C113.647 33.1795 113.335 33.2003 113.106 33.242C112.882 33.2784 112.724 33.3462 112.631 33.4452C112.544 33.5388 112.5 33.6691 112.5 33.8356C112.5 34.0491 112.568 34.2235 112.704 34.359C112.846 34.4943 113.036 34.5621 113.274 34.5621Z" fill="#8D8F9E"/>
<path d="M119.563 35.0383C119.159 35.0383 118.794 34.9834 118.467 34.8741C118.141 34.7596 117.858 34.5954 117.619 34.3823L117.831 33.8666C118.08 34.0695 118.34 34.2209 118.613 34.3196C118.886 34.4187 119.203 34.4681 119.563 34.4681C120.002 34.4681 120.326 34.3823 120.535 34.2103C120.75 34.0332 120.857 33.8015 120.857 33.5151C120.857 33.2859 120.779 33.1037 120.623 32.9683C120.472 32.8328 120.216 32.726 119.856 32.648L119.096 32.4839C118.637 32.3797 118.294 32.2106 118.065 31.9762C117.841 31.7367 117.729 31.419 117.729 31.0232C117.729 30.695 117.807 30.4086 117.963 30.1639C118.124 29.9192 118.345 29.7291 118.628 29.5937C118.911 29.4583 119.237 29.3906 119.607 29.3906C119.953 29.3906 120.275 29.4505 120.572 29.5702C120.869 29.6848 121.12 29.8514 121.325 30.0702L121.113 30.5701C120.894 30.3566 120.662 30.203 120.418 30.1092C120.175 30.0103 119.902 29.9607 119.6 29.9607C119.215 29.9607 118.908 30.0572 118.679 30.2498C118.45 30.4374 118.335 30.6873 118.335 30.9998C118.335 31.2497 118.406 31.4476 118.547 31.5934C118.694 31.7393 118.93 31.846 119.256 31.9137L120.017 32.0856C120.509 32.1949 120.871 32.3615 121.105 32.5855C121.344 32.8042 121.464 33.1037 121.464 33.4837C121.464 33.7909 121.386 34.0617 121.23 34.2961C121.079 34.5305 120.859 34.7127 120.572 34.8431C120.289 34.9732 119.953 35.0383 119.563 35.0383Z" fill="#8D8F9E"/>
<path d="M123.787 35.0386C123.441 35.0386 123.142 34.9579 122.888 34.7965C122.635 34.635 122.438 34.4085 122.296 34.1169C122.16 33.8199 122.092 33.4711 122.092 33.0701C122.092 32.6691 122.16 32.3228 122.296 32.0312C122.438 31.7344 122.635 31.5051 122.888 31.3438C123.142 31.1823 123.441 31.1016 123.787 31.1016C124.128 31.1016 124.425 31.1823 124.679 31.3438C124.937 31.5051 125.135 31.7344 125.271 32.0312C125.412 32.3228 125.483 32.6691 125.483 33.0701C125.483 33.4711 125.412 33.8199 125.271 34.1169C125.135 34.4085 124.937 34.635 124.679 34.7965C124.425 34.9579 124.128 35.0386 123.787 35.0386ZM123.787 34.5307C124.118 34.5307 124.384 34.4057 124.584 34.1558C124.784 33.9006 124.883 33.5388 124.883 33.0701C124.883 32.5962 124.784 32.2343 124.584 31.9842C124.384 31.7343 124.118 31.6093 123.787 31.6093C123.451 31.6093 123.183 31.7343 122.983 31.9842C122.788 32.2343 122.691 32.5962 122.691 33.0701C122.691 33.5388 122.788 33.9006 122.983 34.1558C123.183 34.4057 123.451 34.5307 123.787 34.5307Z" fill="#8D8F9E"/>
<path d="M126.525 34.9682V31.6638H125.824V31.1716H126.525V31.0389C126.525 30.5337 126.642 30.1509 126.877 29.8906C127.116 29.6302 127.481 29.4843 127.973 29.4532L128.258 29.4375L128.309 29.9218L127.973 29.9452C127.671 29.9713 127.452 30.0676 127.316 30.2343C127.183 30.401 127.118 30.6431 127.118 30.9607V31.1716H128.141V31.6638H127.118V34.9682H126.525Z" fill="#8D8F9E"/>
<path d="M130.018 35.0384C129.599 35.0384 129.284 34.9212 129.076 34.687C128.866 34.4475 128.761 34.1038 128.761 33.6559V31.6639H128.066V31.1717H128.761V30.0078H129.353V31.1717H130.478V31.6639H129.353V33.5932C129.353 33.8902 129.412 34.1167 129.529 34.2727C129.646 34.4239 129.835 34.4996 130.099 34.4996C130.177 34.4996 130.254 34.489 130.332 34.4682C130.411 34.4475 130.482 34.4263 130.544 34.4055L130.647 34.8899C130.583 34.9263 130.491 34.9604 130.368 34.9914C130.247 35.0228 130.13 35.0384 130.018 35.0384Z" fill="#8D8F9E"/>
<path d="M132.133 34.9683L130.811 31.1719H131.432L132.433 34.2262L133.47 31.1719H133.975L134.999 34.234L136.015 31.1719H136.606L135.276 34.9683H134.714L133.712 32.0233L132.704 34.9683H132.133Z" fill="#8D8F9E"/>
<path d="M138.383 35.0386C138.14 35.0386 137.92 34.9893 137.725 34.8901C137.535 34.7859 137.384 34.6456 137.272 34.4685C137.16 34.2913 137.104 34.0934 137.104 33.8747C137.104 33.5988 137.17 33.3798 137.301 33.2184C137.437 33.0571 137.66 32.9425 137.966 32.8749C138.278 32.8019 138.702 32.7655 139.238 32.7655H139.472V32.5234C139.472 32.2005 139.409 31.9687 139.281 31.8281C139.16 31.6823 138.962 31.6093 138.69 31.6093C138.476 31.6093 138.268 31.6432 138.068 31.7109C137.87 31.7734 137.665 31.8776 137.455 32.0233L137.25 31.5625C137.436 31.4218 137.66 31.3099 137.923 31.2265C138.191 31.1433 138.447 31.1016 138.69 31.1016C139.148 31.1016 139.486 31.2214 139.706 31.4609C139.93 31.7006 140.042 32.0729 140.042 32.578V34.9685H139.486V34.3121C139.394 34.5362 139.25 34.7129 139.055 34.8435C138.866 34.9736 138.641 35.0386 138.383 35.0386ZM138.478 34.5621C138.771 34.5621 139.009 34.4555 139.195 34.2419C139.379 34.0233 139.472 33.747 139.472 33.4139V33.1795H139.245C138.85 33.1795 138.539 33.2003 138.309 33.242C138.085 33.2784 137.927 33.3462 137.835 33.4452C137.747 33.5388 137.703 33.6691 137.703 33.8356C137.703 34.0491 137.772 34.2235 137.908 34.359C138.049 34.4943 138.239 34.5621 138.478 34.5621Z" fill="#8D8F9E"/>
<path d="M141.139 34.9685V31.1719H141.716V31.8515C141.906 31.3932 142.295 31.1406 142.885 31.0937L143.097 31.0703L143.141 31.6171L142.769 31.6641C142.432 31.6953 142.176 31.8098 142.001 32.0078C141.825 32.2003 141.737 32.466 141.737 32.8045V34.9685H141.139Z" fill="#8D8F9E"/>
<path d="M145.317 35.0386C144.757 35.0386 144.314 34.8642 143.987 34.515C143.661 34.1612 143.498 33.6819 143.498 33.0779C143.498 32.6873 143.572 32.3436 143.717 32.0468C143.863 31.7447 144.063 31.513 144.316 31.3515C144.575 31.185 144.871 31.1016 145.209 31.1016C145.69 31.1016 146.068 31.2682 146.341 31.6016C146.613 31.9296 146.751 32.3827 146.751 32.9608V33.2029H144.075C144.094 33.6353 144.211 33.9657 144.426 34.1948C144.64 34.419 144.938 34.5307 145.317 34.5307C145.531 34.5307 145.736 34.4971 145.931 34.4292C146.127 34.3563 146.312 34.2392 146.487 34.0777L146.692 34.5228C146.531 34.6843 146.327 34.8121 146.078 34.9057C145.829 34.9944 145.576 35.0386 145.317 35.0386ZM145.223 31.5703C144.887 31.5703 144.621 31.6823 144.426 31.9062C144.23 32.1301 144.117 32.4244 144.082 32.7889H146.239C146.224 32.4035 146.129 32.1041 145.953 31.8905C145.783 31.677 145.54 31.5703 145.223 31.5703Z" fill="#8D8F9E"/>
<path d="M151.917 35.0383C151.088 35.0383 150.457 34.7883 150.024 34.2882C149.59 33.7886 149.373 33.0985 149.373 32.2183C149.373 31.6351 149.471 31.1326 149.666 30.7107C149.861 30.2889 150.14 29.9633 150.507 29.7343C150.872 29.5051 151.312 29.3906 151.829 29.3906C152.194 29.3906 152.53 29.4505 152.838 29.5702C153.145 29.6848 153.405 29.8541 153.619 30.078L153.386 30.5936C153.152 30.3748 152.911 30.2159 152.662 30.1171C152.414 30.0181 152.134 29.9686 151.822 29.9686C151.237 29.9686 150.788 30.1665 150.478 30.5622C150.164 30.9528 150.009 31.5049 150.009 32.2183C150.009 32.9473 150.169 33.5045 150.492 33.8901C150.814 34.2753 151.293 34.4681 151.932 34.4681C152.345 34.4681 152.742 34.3924 153.123 34.2415V32.6089H151.815V32.1011H153.642V34.6476C153.505 34.726 153.34 34.7934 153.145 34.851C152.954 34.9081 152.752 34.9524 152.538 34.9834C152.323 35.0199 152.116 35.0383 151.917 35.0383Z" fill="#8D8F9E"/>
<path d="M154.785 34.9685V31.1719H155.363V31.8515C155.554 31.3932 155.943 31.1406 156.533 31.0937L156.745 31.0703L156.788 31.6171L156.416 31.6641C156.079 31.6953 155.824 31.8098 155.648 32.0078C155.473 32.2003 155.385 32.466 155.385 32.8045V34.9685H154.785Z" fill="#8D8F9E"/>
<path d="M158.839 35.0386C158.492 35.0386 158.193 34.9579 157.939 34.7965C157.686 34.635 157.488 34.4085 157.347 34.1169C157.211 33.8199 157.143 33.4711 157.143 33.0701C157.143 32.6691 157.211 32.3228 157.347 32.0312C157.488 31.7344 157.686 31.5051 157.939 31.3438C158.193 31.1823 158.492 31.1016 158.839 31.1016C159.18 31.1016 159.477 31.1823 159.73 31.3438C159.988 31.5051 160.185 31.7344 160.322 32.0312C160.463 32.3228 160.534 32.6691 160.534 33.0701C160.534 33.4711 160.463 33.8199 160.322 34.1169C160.185 34.4085 159.988 34.635 159.73 34.7965C159.477 34.9579 159.18 35.0386 158.839 35.0386ZM158.839 34.5307C159.17 34.5307 159.435 34.4057 159.635 34.1558C159.835 33.9006 159.935 33.5388 159.935 33.0701C159.935 32.5962 159.835 32.2343 159.635 31.9842C159.435 31.7343 159.17 31.6093 158.839 31.6093C158.501 31.6093 158.234 31.7343 158.034 31.9842C157.839 32.2343 157.741 32.5962 157.741 33.0701C157.741 33.5388 157.839 33.9006 158.034 34.1558C158.234 34.4057 158.501 34.5307 158.839 34.5307Z" fill="#8D8F9E"/>
<path d="M162.68 35.0385C161.827 35.0385 161.4 34.5362 161.4 33.531V31.1719H161.993V33.5231C161.993 33.8617 162.056 34.1117 162.182 34.2728C162.315 34.4342 162.519 34.515 162.797 34.515C163.099 34.515 163.345 34.4083 163.535 34.1948C163.724 33.9761 163.819 33.687 163.819 33.328V31.1719H164.412V34.9683H163.835V34.3276C163.723 34.5569 163.564 34.7341 163.359 34.8587C163.159 34.9785 162.933 35.0385 162.68 35.0385Z" fill="#8D8F9E"/>
<path d="M165.521 36.3745V31.1719H166.099V31.8515C166.206 31.6172 166.364 31.4349 166.573 31.3047C166.788 31.1693 167.036 31.1016 167.319 31.1016C167.636 31.1016 167.911 31.1823 168.145 31.3438C168.384 31.5 168.566 31.7266 168.693 32.0233C168.825 32.315 168.891 32.6639 168.891 33.0701C168.891 33.4711 168.825 33.8199 168.693 34.1169C168.566 34.4085 168.384 34.635 168.145 34.7965C167.911 34.9579 167.636 35.0386 167.319 35.0386C167.047 35.0386 166.802 34.9736 166.588 34.8435C166.373 34.7129 166.215 34.5334 166.113 34.3043V36.3745H165.521ZM167.195 34.5307C167.526 34.5307 167.791 34.4057 167.991 34.1558C168.191 33.9006 168.291 33.5388 168.291 33.0701C168.291 32.5962 168.191 32.2343 167.991 31.9842C167.791 31.7343 167.526 31.6093 167.195 31.6093C166.863 31.6093 166.597 31.7343 166.398 31.9842C166.198 32.2343 166.099 32.5962 166.099 33.0701C166.099 33.5388 166.198 33.9006 166.398 34.1558C166.597 34.4057 166.863 34.5307 167.195 34.5307Z" fill="#8D8F9E"/>
<defs>
<linearGradient id="paint0_linear_3002_16108" x1="38.0791" y1="24.6493" x2="15.7439" y2="25.271" gradientUnits="userSpaceOnUse">
<stop stop-color="#BEBEBE"/>
<stop offset="1" stop-color="#9F9F9F"/>
</linearGradient>
<linearGradient id="paint1_linear_3002_16108" x1="38.0817" y1="18.6341" x2="15.7443" y2="19.256" gradientUnits="userSpaceOnUse">
<stop stop-color="#BEBEBE"/>
<stop offset="1" stop-color="#9F9F9F"/>
</linearGradient>
</defs>
</svg>
