<svg width="181" height="38" viewBox="0 0 181 38" fill="none" xmlns="http://www.w3.org/2000/svg">
<path d="M24.4844 3H156.191V5.50859H24.4844V3ZM24.4844 32.4922H156.186V35H24.4844V32.4922ZM136.21 6.76623H156.192V13.672H150.776V31.1827H141.606V13.672H136.21V6.76623ZM122.469 6.76623V31.1827H139.12V23.9055H131.625V6.76539L122.469 6.76623ZM103.718 6.76288H113.777L121.488 31.1827H112.529L111.611 27.4659H105.993L105.158 31.1827H95.8068L103.718 6.76288ZM107.243 22.0337H110.363L108.838 14.9238L107.243 22.0337ZM98.8894 6.76288H89.9403L87.4435 18.685L84.7349 6.76288H76.8242L74.2713 18.685L71.8296 6.76288H62.8914L69.5729 31.1827H77.871L80.6616 19.2673L83.5249 31.1827H92.023L98.8886 6.76205M49.7159 11.9918H63.047V17.0165H56.5948V19.1017H62.212V24.128H56.5948V26.2116H63.0462V31.1819H49.7167V11.9926L49.7159 11.9918ZM24.4902 31.1819V6.76372H35.8751C42.5984 6.76372 47.9445 10.4421 47.9445 19.023C47.9445 27.3738 42.7683 31.1836 35.8316 31.1836H24.4902V31.1819ZM33.8887 23.8703C36.7721 23.8703 38.6774 22.6529 38.6774 18.9418C38.6774 14.8685 36.7897 13.7816 33.9071 13.7816H33.1707V23.8703H33.8887ZM152.016 29.1486C152.016 28.0005 152.942 27.1538 154.037 27.1538C155.123 27.1538 156.049 28.0005 156.049 29.1486C156.049 30.3075 155.123 31.1543 154.037 31.1543C152.942 31.1543 152.016 30.3075 152.016 29.1486ZM154.037 30.8221C154.939 30.8221 155.649 30.1125 155.649 29.1486C155.649 28.2022 154.939 27.4876 154.037 27.4876C153.128 27.4876 152.416 28.2022 152.416 29.1486C152.416 30.1125 153.128 30.8221 154.037 30.8221ZM153.649 29.4096H153.975L154.41 30.146H154.906L154.395 29.3787C154.739 29.3368 154.975 29.1235 154.975 28.7026C154.975 28.3511 154.699 28.0901 154.146 28.0901H153.268V30.1452H153.649V29.4096ZM153.649 29.0649V28.4039H154.093C154.34 28.4039 154.62 28.4206 154.62 28.7235C154.62 29.0691 154.394 29.0649 154.092 29.0649H153.649Z" fill="#8D8F9E"/>
</svg>
