<svg width="181" height="40" viewBox="0 0 181 40" fill="none" xmlns="http://www.w3.org/2000/svg">
<path d="M13.0579 0C13.2475 0.142218 13.4913 0.113774 13.708 0.170662C15.0354 0.511986 15.9835 1.33685 16.5794 2.61681C17.0129 3.49857 17.4463 4.38031 17.9068 5.26208C18.6382 6.68425 19.3425 8.13488 20.0739 9.55705C21.2388 11.8894 22.4307 14.2218 23.5955 16.5542C23.6226 16.5826 23.6226 16.6111 23.6497 16.6395C23.7581 16.7817 23.8123 16.7817 23.8935 16.6395C24.1373 16.1844 24.354 15.7293 24.5707 15.3027C25.7627 12.9703 26.9546 10.6379 28.1465 8.2771C29.1488 6.31448 30.124 4.38031 31.1263 2.41771C31.6139 1.47907 32.2912 0.767977 33.2664 0.39821C34.1332 0.085331 35.0001 0.0284437 35.894 0.255993C36.0837 0.31288 36.2462 0.39821 36.4086 0.54043C36.517 0.654203 36.5984 0.79642 36.5984 0.995527C36.5984 1.1093 36.5984 1.22308 36.5984 1.33685C36.5984 9.21574 36.5984 17.0662 36.5984 24.9451C36.5984 25.7699 36.3275 26.0829 35.5418 26.2251C35.0815 26.3103 34.5937 26.3103 34.1332 26.1965C33.5644 26.0829 33.1851 25.713 33.1851 25.0304C33.1851 18.8581 33.1851 12.6574 33.1851 6.48516C33.1851 6.34294 33.2122 6.17226 33.158 6.03004C33.0226 6.03004 33.0226 6.14382 32.9955 6.2007C32.0744 7.93576 31.1805 9.67083 30.2865 11.4059C29.5552 12.8281 28.7967 14.2502 28.0382 15.6724C27.4422 16.8102 26.8462 17.9479 26.2774 19.0572C25.9252 19.7399 25.6001 20.4225 25.2209 21.0767C24.4353 22.442 22.7016 22.4705 21.916 21.1336C21.5368 20.4794 21.2117 19.7683 20.8866 19.1141C20.101 17.5497 19.3154 15.9853 18.5299 14.4209C17.3109 12.0032 16.1189 9.61396 14.8999 7.19624C14.6832 6.74113 14.4394 6.28604 14.2227 5.85939C14.1956 5.80251 14.1685 5.71717 14.0872 5.71717C13.9789 5.77405 14.033 5.85939 14.033 5.91626C14.033 6.14382 14.033 6.37138 14.033 6.59891C14.033 12.6859 14.033 18.7444 14.033 24.8313C14.033 24.9166 14.033 25.0304 14.033 25.1157C14.0602 25.7415 13.8164 26.0259 13.1933 26.1965C12.6244 26.3673 12.0285 26.3389 11.4596 26.1965C11.1616 26.1113 10.8636 25.9691 10.7011 25.6561C10.5927 25.5993 10.5656 25.5424 10.4844 25.5424C10.4844 17.2937 10.4844 9.04506 10.4844 0.79642C10.5386 0.79642 10.5927 0.79642 10.6198 0.71109C10.7282 0.426654 10.972 0.284437 11.2429 0.170662C11.3783 0.085331 11.5679 0.142218 11.7034 0C12.1639 0 12.5973 0 13.0579 0Z" fill="#8D8F9E"/>
<path d="M179.386 33.4787C179.359 33.5355 179.332 33.5925 179.332 33.6493C179.142 34.5311 178.546 35.0147 177.788 35.3561C177.192 35.6121 176.569 35.7256 175.892 35.6972C175.485 35.6972 175.052 35.6972 174.646 35.6972C174.348 35.6972 174.321 35.7256 174.321 36.0386C174.321 37.1194 174.321 38.2004 174.321 39.2812C174.321 39.3382 174.321 39.4234 174.321 39.4804C174.321 39.7932 174.321 39.7932 174.022 39.7932C173.86 39.7932 173.698 39.7932 173.562 39.7932C173.372 39.7932 173.318 39.7077 173.318 39.5372C173.318 39.4804 173.318 39.395 173.318 39.3382C173.318 36.4936 173.318 33.6779 173.318 30.8333C173.318 30.7765 173.318 30.6911 173.318 30.6343C173.318 30.3784 173.345 30.35 173.562 30.35C174.591 30.35 175.648 30.3213 176.677 30.3784C177.327 30.4067 177.95 30.606 178.492 31.0041C178.953 31.3453 179.278 31.8005 179.359 32.3979C179.359 32.4547 179.386 32.5115 179.413 32.5685C179.386 32.8813 179.386 33.1943 179.386 33.4787ZM174.321 32.9951C174.321 33.5355 174.321 34.0761 174.321 34.6165C174.321 34.8725 174.348 34.9009 174.591 34.9009C175.052 34.9009 175.54 34.9292 176 34.8725C176.379 34.8441 176.786 34.7871 177.165 34.6733C177.842 34.4173 178.276 33.9623 178.357 33.1943C178.411 32.5115 178.14 31.6583 177.3 31.3169C176.975 31.1747 176.65 31.118 176.325 31.118C175.783 31.0893 175.214 31.0893 174.673 31.118C174.348 31.118 174.321 31.1463 174.321 31.4878C174.321 31.9997 174.321 32.5115 174.321 32.9951Z" fill="#8D8F9E"/>
<path d="M84.2468 14.0524C84.3282 14.1946 84.4636 14.2515 84.599 14.3368C85.5202 14.9626 86.2514 15.759 86.739 16.8114C87.0371 17.4941 87.1995 18.2336 87.1995 18.9731C87.1995 21.1348 87.1995 23.2966 87.1995 25.4867C87.1995 25.9704 87.01 26.1977 86.5765 26.3115C86.0889 26.4537 85.5742 26.4253 85.0596 26.4253C84.8158 26.4253 84.599 26.3686 84.3552 26.3115C83.8946 26.1977 83.7052 25.9133 83.7052 25.4014C83.7052 23.4672 83.6781 21.5046 83.7052 19.5704C83.7052 18.8593 83.4884 18.262 83.1632 17.6647C82.4591 16.3563 81.3485 15.7305 79.9667 15.4746C79.3437 15.3608 78.7207 15.3608 78.0706 15.3608C76.0388 15.3608 74.0073 15.3608 71.9755 15.3608C71.5149 15.3608 71.5149 15.3608 71.5149 15.8443C71.5149 19.03 71.5149 22.2157 71.5149 25.4014C71.5149 25.9988 71.3254 26.2548 70.7835 26.397C70.0793 26.5675 69.3749 26.5675 68.6706 26.397C68.5081 26.3686 68.3727 26.3115 68.2373 26.1977C68.0746 26.0839 67.9662 25.9133 67.9391 25.7143C67.9391 25.572 67.9121 25.4014 67.9121 25.2592C67.9121 17.039 67.9121 8.81874 67.9121 0.598542C67.9121 0.0581148 67.9121 0.115002 68.3727 0.115002C71.6233 0.115002 74.9011 0.115002 78.1517 0.115002C79.398 0.115002 80.6441 0.200333 81.8631 0.456325C83.1905 0.740762 84.4093 1.25275 85.4388 2.21983C86.4681 3.18691 87.1455 4.38155 87.4433 5.80372C87.7955 7.59566 87.6871 9.33073 87.01 11.0374C86.4952 12.3173 85.6013 13.2275 84.4636 13.9386C84.3823 13.9386 84.3012 13.967 84.2468 14.0524ZM71.5422 7.70944C71.5422 9.13164 71.5422 10.5538 71.5422 11.976C71.5422 12.3173 71.5422 12.3458 71.8941 12.3458C74.0884 12.3458 76.2826 12.3742 78.5039 12.3173C79.6418 12.2889 80.7525 12.0613 81.7818 11.5209C82.757 11.0374 83.4343 10.2694 83.7592 9.16008C83.949 8.56275 83.949 7.96544 83.949 7.36813C83.9219 5.60463 82.784 3.84112 80.9419 3.32913C80.1021 3.10157 79.2353 3.07313 78.3955 3.07313C76.2826 3.07313 74.1427 3.07313 72.0298 3.07313C71.9755 3.07313 71.8941 3.07313 71.84 3.07313C71.6233 3.10157 71.5962 3.10157 71.5962 3.35757C71.5962 3.44291 71.5962 3.55669 71.5962 3.642C71.5422 5.00729 71.5422 6.37259 71.5422 7.70944Z" fill="#8D8F9E"/>
<path d="M122.198 0.171173C122.686 0.171173 123.146 0.22806 123.607 0.370279C124.067 0.512496 124.392 0.825376 124.609 1.30892C125.476 3.32843 126.37 5.34791 127.237 7.33897C128.32 9.78512 129.377 12.2313 130.46 14.7059C131.517 17.1236 132.573 19.5697 133.657 21.9874C134.144 23.0967 134.632 24.2345 135.12 25.3438C135.147 25.4007 135.174 25.4576 135.201 25.5144C135.282 25.7704 135.255 25.8557 135.038 25.9695C134.767 26.1117 134.47 26.1687 134.171 26.2255C133.521 26.3393 132.871 26.3393 132.221 26.2255C131.977 26.1687 131.761 26.0833 131.544 25.9695C131.327 25.8557 131.192 25.6851 131.083 25.4576C130.704 24.5758 130.352 23.6941 129.973 22.8408C129.35 21.3901 128.727 19.9395 128.131 18.4889C127.562 17.152 126.993 15.7867 126.397 14.4499C125.801 13.0561 125.205 11.6339 124.609 10.2402C124.04 8.93182 123.498 7.6234 122.93 6.31499C122.794 6.00211 122.659 5.68924 122.523 5.37637C122.496 5.29103 122.469 5.14881 122.334 5.14881C122.225 5.14881 122.225 5.29103 122.198 5.37637C121.954 5.97368 121.684 6.57098 121.44 7.16831C120.844 8.59048 120.248 10.0127 119.652 11.4348C118.947 13.1415 118.216 14.8481 117.512 16.5832C116.78 18.3467 116.049 20.0817 115.318 21.8452C114.857 22.9545 114.369 24.0638 113.936 25.2016C113.719 25.7989 113.313 26.0833 112.744 26.1971C112.04 26.3109 111.335 26.3393 110.631 26.1971C110.496 26.1687 110.36 26.1403 110.252 26.0549C109.981 25.9127 109.9 25.7704 110.035 25.4576C110.225 24.9456 110.441 24.462 110.631 23.95C111.2 22.5279 111.796 21.1341 112.365 19.712C113.259 17.5218 114.18 15.3316 115.074 13.113C115.67 11.6624 116.265 10.2118 116.834 8.76114C117.62 6.85542 118.406 4.92125 119.191 3.01553C119.435 2.44666 119.652 1.87779 119.896 1.30892C120.085 0.825376 120.437 0.512496 120.925 0.341836C121.304 0.199617 121.765 0.14273 122.198 0.171173Z" fill="#8D8F9E"/>
<path d="M52.0387 5.09209C51.8763 5.14899 51.8763 5.26277 51.822 5.34808C50.8197 7.73736 49.8445 10.1266 48.8422 12.5159C47.9484 14.6776 47.0272 16.8393 46.1333 18.9726C45.3476 20.8499 44.5621 22.7272 43.7766 24.6044C43.6683 24.8889 43.5328 25.1449 43.4244 25.4293C43.3161 25.7137 43.1263 25.8844 42.8555 25.9982C42.6117 26.112 42.3679 26.1687 42.097 26.1974C41.447 26.2825 40.7967 26.3109 40.1466 26.1404C39.5236 25.9982 39.4422 25.799 39.686 25.2017C40.2009 23.9787 40.6883 22.7556 41.1759 21.561C41.7719 20.1388 42.3408 18.7166 42.9368 17.2944C43.5328 15.8722 44.1015 14.4216 44.6975 12.9994C45.4019 11.2928 46.1063 9.58618 46.8104 7.87958C47.4064 6.42894 48.0024 4.97834 48.5984 3.5277C48.8963 2.78818 49.1944 2.07708 49.4923 1.33755C49.682 0.882446 49.9799 0.569566 50.4135 0.427349C51.4157 0.086025 52.418 0.086025 53.3932 0.455792C53.7454 0.569566 53.9892 0.825559 54.1516 1.16688C54.4768 1.93486 54.829 2.70284 55.1812 3.49926C55.8853 5.12055 56.5897 6.74184 57.2941 8.36311C58.0796 10.1266 58.838 11.9186 59.6237 13.6821C60.5176 15.7016 61.3845 17.6926 62.2786 19.7121C63.1181 21.6179 63.9579 23.552 64.7977 25.4577C64.9331 25.7706 64.9061 25.8844 64.6082 25.9982C64.3644 26.112 64.1206 26.1687 63.8495 26.2258C63.1724 26.3396 62.4951 26.368 61.818 26.2258C61.2761 26.112 60.8428 25.856 60.599 25.2586C59.7321 23.1538 58.838 21.0774 57.9441 19.001C57.267 17.3798 56.5627 15.7585 55.8853 14.1372C55.0458 12.1746 54.206 10.1835 53.3391 8.22089C52.9599 7.31071 52.5534 6.37207 52.1742 5.46186C52.1471 5.31965 52.0928 5.23433 52.0387 5.09209Z" fill="#8D8F9E"/>
<path d="M99.6343 14.4783C99.6343 10.8659 99.6343 7.28205 99.6343 3.6697C99.6343 3.04396 99.6343 3.10083 99.1197 3.10083C97.0068 3.10083 94.8936 3.10083 92.7807 3.10083C92.1307 3.10083 91.7785 2.8733 91.6701 2.07687C91.616 1.7071 91.6431 1.30889 91.6971 0.939122C91.7242 0.768461 91.7785 0.626244 91.8598 0.484025C91.9953 0.256476 92.1847 0.114258 92.4556 0.114258C92.5369 0.114258 92.6453 0.114258 92.7267 0.114258C98.5507 0.114258 104.375 0.114258 110.199 0.114258C110.795 0.114258 110.985 0.284918 111.12 0.910678C111.201 1.36578 111.201 1.82087 111.147 2.24753C111.093 2.84484 110.876 3.12927 110.226 3.12927C108.059 3.12927 105.919 3.12927 103.752 3.12927C103.183 3.12927 103.237 3.10083 103.237 3.69817C103.237 10.8375 103.237 17.9768 103.237 25.1446C103.237 25.2584 103.237 25.3722 103.237 25.486C103.237 25.7989 103.102 25.9978 102.831 26.1117C102.587 26.2255 102.343 26.2825 102.072 26.2825C101.53 26.3393 100.989 26.3393 100.447 26.2538C100.312 26.2255 100.203 26.1971 100.095 26.1403C99.6884 25.9695 99.6073 25.8557 99.6073 25.4006C99.6343 21.7599 99.6343 18.1191 99.6343 14.4783Z" fill="#8D8F9E"/>
<path d="M138.481 13.4539C138.481 9.47183 138.481 5.48973 138.481 1.50762C138.481 0.910299 138.725 0.568976 139.185 0.341429C139.808 0.0569917 140.459 0.000104394 141.109 0.142322C141.759 0.284539 142.084 0.625865 142.084 1.45073C142.057 6.34303 142.084 11.2353 142.084 16.1276C142.084 18.204 142.084 20.2804 142.084 22.3568C142.084 22.4706 142.084 22.5559 142.084 22.6697C142.084 22.8403 142.165 22.8972 142.328 22.8972C142.436 22.8972 142.517 22.8972 142.626 22.8972C146.526 22.8972 150.4 22.8972 154.301 22.8972C155.168 22.8972 155.628 23.3239 155.683 24.2625C155.71 24.6323 155.71 24.9736 155.547 25.3149C155.385 25.6847 155.087 25.8553 154.707 25.9123C154.518 25.9407 154.355 25.9407 154.166 25.9407C149.1 25.9407 144.007 25.9407 138.941 25.9407C138.4 25.9407 138.481 25.9691 138.481 25.4287C138.481 21.4182 138.481 17.436 138.481 13.4539Z" fill="#8D8F9E"/>
<path d="M155.493 30.2078C156.388 30.2078 157.173 30.35 157.931 30.6914C158.771 31.0896 159.394 31.7152 159.801 32.5402C160.559 34.0478 160.559 35.6405 159.99 37.2049C159.53 38.4281 158.663 39.2528 157.444 39.651C156.523 39.9354 155.575 40.0208 154.6 39.8786C154.166 39.8216 153.76 39.7081 153.353 39.5656C152.189 39.0823 151.376 38.2289 150.97 36.9773C150.536 35.6973 150.536 34.4173 150.97 33.1089C151.241 32.2842 151.728 31.6016 152.405 31.0896C153.272 30.4922 154.356 30.1794 155.493 30.2078ZM159.367 35.1001C159.34 34.446 159.259 33.7918 158.988 33.1944C158.555 32.2558 157.904 31.5446 156.929 31.2032C156.306 30.9758 155.656 30.9188 155.006 31.0042C153.597 31.2032 152.622 31.9712 152.08 33.3082C151.62 34.446 151.62 35.6405 152.053 36.8067C152.46 37.9445 153.245 38.6841 154.329 39.0536C155.006 39.2528 155.71 39.3096 156.415 39.139C157.39 38.9401 158.175 38.4281 158.717 37.5179C159.151 36.7783 159.34 35.9819 159.367 35.1001Z" fill="#8D8F9E"/>
<path d="M139.51 37.1189C139.51 37.7447 139.51 38.3989 139.51 39.0247C139.51 39.3943 139.51 39.4229 139.185 39.5081C138.589 39.7073 138.02 39.8211 137.397 39.8779C136.855 39.9349 136.313 39.9633 135.772 39.9633C134.715 39.9062 133.686 39.7073 132.765 39.1669C131.356 38.3135 130.625 37.0335 130.57 35.327C130.543 34.4736 130.652 33.6204 131.058 32.8524C131.573 31.8568 132.358 31.1456 133.361 30.719C134.607 30.1787 135.88 30.1503 137.18 30.2641C137.614 30.2925 138.047 30.3492 138.48 30.463C139.131 30.6336 139.049 30.6052 138.941 31.2878C138.914 31.4016 138.86 31.4303 138.778 31.4016C138.616 31.3448 138.426 31.2878 138.264 31.231C136.963 30.8896 135.663 30.8328 134.363 31.231C132.927 31.6862 131.898 32.7386 131.627 34.4168C131.491 35.3837 131.6 36.2939 132.06 37.1189C132.385 37.7731 132.9 38.2567 133.523 38.5979C134.58 39.1669 135.717 39.2807 136.882 39.1669C137.316 39.1383 137.749 39.0815 138.182 38.9677C138.48 38.8823 138.507 38.8539 138.507 38.5411C138.507 37.6309 138.507 36.7207 138.507 35.8106C138.507 35.4975 138.48 35.4692 138.209 35.4692C137.559 35.4692 136.909 35.4692 136.259 35.4692C135.961 35.4692 135.961 35.4692 135.961 35.1564C135.961 35.0994 135.961 35.0139 135.961 34.9572C135.961 34.815 136.042 34.7295 136.178 34.7295C136.313 34.7295 136.422 34.7295 136.557 34.7295C137.451 34.7295 138.345 34.7295 139.239 34.7295C139.564 34.7295 139.564 34.7295 139.564 35.0993C139.51 35.7535 139.51 36.4361 139.51 37.1189Z" fill="#8D8F9E"/>
<path d="M146.176 34.9571C146.257 35.1279 146.365 35.1279 146.446 35.1563C146.663 35.2131 146.853 35.3556 146.988 35.5545C147.178 35.7821 147.313 36.0381 147.449 36.2941C147.991 37.3181 148.532 38.3705 149.047 39.4228C149.101 39.5366 149.183 39.6504 149.183 39.821C148.857 39.9064 148.532 39.8494 148.18 39.8494C148.045 39.8494 148.018 39.7072 147.964 39.5934C147.638 38.9679 147.341 38.3137 147.015 37.6879C146.772 37.2327 146.555 36.7777 146.311 36.3225C145.986 35.7251 145.471 35.4123 144.821 35.4123C144.442 35.4123 144.063 35.4123 143.683 35.4123C143.44 35.4123 143.413 35.4407 143.413 35.6967C143.413 36.2371 143.413 36.7491 143.413 37.2897C143.413 38.0577 143.413 38.797 143.413 39.565C143.413 39.8494 143.413 39.8494 143.142 39.8781C143.006 39.8781 142.898 39.8781 142.762 39.8781C142.41 39.8781 142.41 39.8781 142.41 39.4799C142.41 36.8629 142.41 34.2462 142.41 31.6294C142.41 31.3164 142.41 31.0036 142.41 30.7192C142.41 30.4632 142.437 30.4632 142.654 30.4632C143.711 30.4632 144.767 30.4346 145.823 30.4916C146.474 30.52 147.124 30.6906 147.665 31.1174C148.045 31.4302 148.316 31.8 148.37 32.312C148.505 33.336 148.37 34.0469 147.286 34.6727C146.961 34.7581 146.609 34.9003 146.176 34.9571ZM143.413 32.824C143.413 33.3076 143.413 33.7909 143.413 34.2745C143.413 34.5021 143.44 34.5589 143.656 34.5589C144.307 34.5589 144.93 34.5876 145.58 34.4738C146.013 34.3883 146.419 34.2462 146.772 33.9902C147.259 33.6204 147.476 33.1368 147.395 32.511C147.313 31.8854 146.988 31.4872 146.419 31.288C146.257 31.2312 146.094 31.2026 145.932 31.1742C145.2 31.0604 144.469 31.0888 143.738 31.0888C143.467 31.0888 143.44 31.1174 143.44 31.4302C143.413 31.9138 143.413 32.3688 143.413 32.824Z" fill="#8D8F9E"/>
<path d="M170.581 34.0758C170.554 34.9006 170.635 35.9532 170.554 36.9772C170.5 37.9158 170.066 38.6554 169.362 39.1674C168.82 39.5655 168.17 39.7929 167.52 39.9067C167.114 39.9637 166.707 40.0205 166.301 39.9921C165.407 39.9067 164.513 39.7361 163.755 39.1387C163.132 38.6554 162.752 38.0296 162.644 37.2046C162.617 36.9486 162.59 36.7212 162.59 36.4652C162.59 34.5878 162.59 32.7104 162.59 30.8617C162.59 30.8049 162.59 30.7195 162.59 30.6627C162.59 30.4067 162.617 30.3781 162.861 30.3781C163.7 30.3781 163.592 30.2643 163.592 31.1177C163.592 32.7959 163.592 34.4456 163.592 36.1238C163.592 36.522 163.592 36.9202 163.7 37.29C163.944 38.1434 164.459 38.7405 165.244 39.0249C166.111 39.3379 166.978 39.3379 167.872 39.0249C168.82 38.6838 169.47 37.802 169.498 36.7496C169.525 35.5264 169.498 34.2751 169.498 33.0519C169.498 32.2839 169.498 31.4875 169.498 30.7195C169.498 30.4067 169.497 30.4067 169.795 30.4067C169.985 30.4067 170.175 30.4067 170.364 30.4067C170.473 30.4067 170.527 30.4635 170.527 30.5773C170.527 30.6911 170.527 30.7763 170.527 30.8901C170.581 31.8573 170.581 32.8813 170.581 34.0758Z" fill="#8D8F9E"/>
</svg>
