<svg width="86" height="40" viewBox="0 0 86 40" fill="none" xmlns="http://www.w3.org/2000/svg">
<path fill-rule="evenodd" clip-rule="evenodd" d="M42.4103 16.1272C42.4103 23.1863 37.7012 28.9089 29.6285 28.9089C26.8258 28.9089 24.6189 28.3426 22.9013 27.3609V38.9989H17.5195V15.4545V8.05366H13.4844V2.67188H17.5195H21.5559H21.5571L21.559 2.67976L22.4918 5.01146C24.8365 3.14953 27.9394 2.0002 31.6467 2C40.3921 1.99953 42.4103 9.06803 42.4103 16.1272ZM22.9013 21.2602V11.1962C24.2406 9.29543 26.4526 8.05371 28.9546 8.05371C33.6637 8.05371 35.6819 11.3668 35.6819 15.4537C35.6819 19.5405 33.0415 23.5263 28.9546 23.5263C25.7711 23.5263 23.9434 22.6337 22.9013 21.2602Z" fill="#8D8F9E"/>
<rect x="49.8105" y="33.6182" width="22.8726" height="5.38178" fill="#BDBDBD"/>
</svg>
