<svg width="562" height="161" viewBox="0 0 562 161" fill="none" xmlns="http://www.w3.org/2000/svg">
<g clip-path="url(#clip0_1584_15320)">
<path d="M155.683 100.24V29.84H155.243L97.1627 100.24H155.683ZM66.8027 123.56V97.6L150.403 2.11999H184.723V100.24H212.443V123.56H184.723V157H155.683V123.56H66.8027ZM374.194 80.66C374.194 126.64 351.754 160.52 299.834 160.52C253.194 160.52 230.754 126.64 230.754 80.66C230.754 35.12 253.194 1.24 305.114 1.24C351.754 1.24 374.194 35.12 374.194 80.66ZM342.514 80.66C342.514 51.4 331.514 24.56 302.474 24.56C273.434 24.56 262.434 51.4 262.434 80.66C262.434 110.36 273.434 137.2 302.474 137.2C331.514 137.2 342.514 110.36 342.514 80.66ZM481.386 100.24V29.84H480.946L422.866 100.24H481.386ZM392.506 123.56V97.6L476.106 2.11999H510.426V100.24H538.146V123.56H510.426V157H481.386V123.56H392.506Z" fill="#14213D"/>
</g>
<g clip-path="url(#clip1_1584_15320)">
<path d="M134.183 104.24V33.84H133.743L75.6627 104.24H134.183ZM45.3027 127.56V101.6L128.903 6.11999H163.223V104.24H190.943V127.56H163.223V161H134.183V127.56H45.3027ZM352.694 84.66C352.694 130.64 330.254 164.52 278.334 164.52C231.694 164.52 209.254 130.64 209.254 84.66C209.254 39.12 231.694 5.24 283.614 5.24C330.254 5.24 352.694 39.12 352.694 84.66ZM321.014 84.66C321.014 55.4 310.014 28.56 280.974 28.56C251.934 28.56 240.934 55.4 240.934 84.66C240.934 114.36 251.934 141.2 280.974 141.2C310.014 141.2 321.014 114.36 321.014 84.66ZM459.886 104.24V33.84H459.446L401.366 104.24H459.886ZM371.006 127.56V101.6L454.606 6.11999H488.926V104.24H516.646V127.56H488.926V161H459.886V127.56H371.006Z" fill="#14213D"/>
</g>
<defs>
<clipPath id="clip0_1584_15320">
<rect width="562" height="93" fill="white"/>
</clipPath>
<clipPath id="clip1_1584_15320">
<rect width="519" height="68" fill="white" transform="translate(21.5 93)"/>
</clipPath>
</defs>
</svg>
