<svg width="111" height="111" viewBox="0 0 111 111" fill="none" xmlns="http://www.w3.org/2000/svg">
<path opacity="0.2" d="M101.48 45.631C100.262 39.7417 97.9262 34.2731 94.738 29.4133L100.539 22.3948L88.1291 9.98524L81.1107 15.786C76.2509 12.5978 70.7823 10.262 64.893 9.04428L64.0406 0H46.4834L45.631 9.04428C39.7417 10.262 34.2731 12.5978 29.4133 15.786L22.3948 9.98524L9.98523 22.3948L15.786 29.4133C12.5978 34.2731 10.262 39.7417 9.04426 45.631L0 46.4834V64.0406L9.04426 64.893C10.262 70.7823 12.5978 76.2509 15.786 81.1107L9.98523 88.1292L22.3948 100.539L29.4133 94.7269C34.2731 97.9151 39.7417 100.251 45.631 101.469L46.4834 110.513H64.0406L64.893 101.469C70.7823 100.251 76.2509 97.9151 81.1107 94.7269L88.1291 100.539L100.539 88.1292L94.738 81.1218C97.9262 76.262 100.262 70.7934 101.48 64.9041L110.524 64.0517V46.4945L101.48 45.6421V45.631ZM79.0406 55.262C79.0406 68.3911 68.4022 79.0295 55.2731 79.0295C42.1439 79.0295 31.5055 68.3911 31.5055 55.262C31.5055 42.1328 42.1439 31.4945 55.2731 31.4945C68.4022 31.4945 79.0406 42.1328 79.0406 55.262Z" fill="#F0F0F0"/>
</svg>
