<svg width="63" height="63" viewBox="0 0 63 63" fill="none" xmlns="http://www.w3.org/2000/svg">
<path opacity="0.2" d="M4.88695 15.8235L0.513672 32.1375L5.50573 33.4754C6.97742 33.8684 8.06447 35.0642 8.38222 36.5526C8.55782 37.3721 8.77523 38.1915 9.03445 38.9943C9.50271 40.4325 9.15153 42.0129 8.0812 43.0916L4.42706 46.7458L16.3762 58.6949L20.0304 55.0408C21.1007 53.9704 22.6811 53.6192 24.1277 54.0875C24.9304 54.3467 25.7499 54.5641 26.5694 54.7397C28.0578 55.0575 29.2535 56.1445 29.6465 57.6162L30.9844 62.6083L47.2985 58.235L45.9522 53.2262C45.5592 51.7545 46.0693 50.2243 47.1982 49.2042C47.5075 48.9282 47.8086 48.6439 48.1013 48.3512C48.3939 48.0586 48.6782 47.7575 48.9541 47.4482C49.9659 46.3277 51.4962 45.8176 52.9595 46.2106L57.9933 47.5569L62.3667 31.2428L57.3579 29.8965C55.8862 29.5035 54.7991 28.2994 54.4814 26.811C54.3058 25.9915 54.0967 25.1804 53.8375 24.3777C53.3692 22.9394 53.7205 21.359 54.7908 20.2887L58.4449 16.6346L46.4957 4.6854L42.8416 8.33955C41.7713 9.40987 40.1909 9.76108 38.7527 9.29281C37.9499 9.03359 37.1388 8.81618 36.3193 8.64894C34.8309 8.33955 33.6352 7.24414 33.2338 5.77245L31.8875 0.763672L15.5735 5.13694L16.9197 10.1457C17.3127 11.6091 16.8027 13.1393 15.6738 14.1594C15.3644 14.4354 15.0634 14.728 14.7624 15.0207C14.4697 15.3134 14.1854 15.6144 13.9011 15.9238C12.8809 17.0527 11.3423 17.5627 9.87064 17.1697L4.87024 15.8318L4.88695 15.8235ZM21.6526 21.9026C27.0544 16.5008 35.8093 16.5008 41.2111 21.9026C46.6129 27.3043 46.6212 36.0676 41.2194 41.4694C35.8176 46.8712 27.046 46.8712 21.6442 41.4694C16.2424 36.0676 16.2508 27.3043 21.6526 21.9026Z" fill="#14213D"/>
</svg>
