<svg version="1.1" xmlns="http://www.w3.org/2000/svg">
    <defs>
        <symbol viewBox="0 0 66 24" id="icon-arrow">
            <path d="M2 10.5C1.17157 10.5 0.5 11.1716 0.5 12C0.5 12.8284 1.17157 13.5 2 13.5L2 10.5ZM65.0607 13.0607C65.6464 12.4749 65.6464 11.5251 65.0607 10.9393L55.5147 1.39339C54.9289 0.807607 53.9792 0.807607 53.3934 1.39339C52.8076 1.97918 52.8076 2.92893 53.3934 3.51471L61.8787 12L53.3934 20.4853C52.8076 21.0711 52.8076 22.0208 53.3934 22.6066C53.9792 23.1924 54.9289 23.1924 55.5147 22.6066L65.0607 13.0607ZM2 13.5L64 13.5L64 10.5L2 10.5L2 13.5Z"/>
        </symbol>
        <svg viewBox="0 0 16 16" id="icon-tags">
            <path d="M0 0.816271C0 0.3655 0.341136 0 0.76198 0H1.77782C9.63256 0 16 6.82227 16 15.2381C16 15.6589 15.6817 16 15.2889 16H0V0.816271Z"/>
        </svg>
        <symbol viewBox="0 0 24 24" id="icon-linkedin">
            <path d="M4.7031 0C2.11677 0 0 2.11672 0 4.7031V19.2977C0 21.884 2.11672 24 4.7031 24H19.2977C21.884 24 24 21.884 24 19.2977V4.7031C24 2.11677 21.884 0 19.2977 0H4.7031ZM5.886 3.96048C7.1261 3.96048 7.88994 4.77458 7.91352 5.84471C7.91352 6.8912 7.12605 7.72819 5.86202 7.72819H5.83875C4.62226 7.72819 3.83599 6.89125 3.83599 5.84471C3.83599 4.77461 4.64605 3.96048 5.88598 3.96048H5.886ZM16.5726 8.96211C18.9575 8.96211 20.7454 10.5209 20.7454 13.8707V20.1242H17.1209V14.29C17.1209 12.8239 16.5964 11.8237 15.2847 11.8237C14.2834 11.8237 13.6865 12.4978 13.4245 13.1491C13.3287 13.3821 13.3052 13.7075 13.3052 14.0335V20.1242H9.68074C9.68074 20.1242 9.72831 10.2412 9.68074 9.21787H13.3059V10.7623C13.7876 10.0192 14.6491 8.96208 16.5726 8.96208V8.96211ZM4.04978 9.21866H7.67423V20.1243H4.04978V9.21866Z"/>
        </symbol>
        <symbol viewBox="0 0 24 24" id="icon-telegram">
            <path d="M20.7273 0H3.27273C2.40475 0 1.57232 0.344804 0.95856 0.95856C0.344804 1.57232 0 2.40475 0 3.27273L0 20.7273C0 21.5953 0.344804 22.4277 0.95856 23.0414C1.57232 23.6552 2.40475 24 3.27273 24H20.7273C21.5953 24 22.4277 23.6552 23.0414 23.0414C23.6552 22.4277 24 21.5953 24 20.7273V3.27273C24 2.40475 23.6552 1.57232 23.0414 0.95856C22.4277 0.344804 21.5953 0 20.7273 0ZM19.485 6.94636L17.1423 17.2977C17.0318 17.7832 16.4155 18.0027 15.9832 17.7068L12.4459 15.3068L10.6445 17.01C10.5711 17.0789 10.4819 17.1289 10.3848 17.1555C10.2877 17.1822 10.1855 17.1848 10.0871 17.163C9.9888 17.1412 9.89725 17.0958 9.82044 17.0306C9.74363 16.9655 9.68387 16.8826 9.64636 16.7891L8.99591 14.88L8.34546 12.9709L4.85864 12.0164C4.76115 11.9951 4.67342 11.9422 4.60909 11.8659C4.54477 11.7896 4.50745 11.6942 4.50294 11.5945C4.49843 11.4948 4.52698 11.3964 4.58415 11.3147C4.64133 11.2329 4.72392 11.1723 4.81909 11.1423L18.2891 6.28909L18.5373 6.20045C19.0595 6.01773 19.5995 6.44045 19.485 6.94636Z"/>
        </symbol>
        <symbol viewBox="0 0 24 24" id="icon-instagram">
            <path d="M17.5385 0H6.46154C4.74839 0.00183257 3.10594 0.683188 1.89456 1.89456C0.683188 3.10594 0.00183257 4.74839 0 6.46154V17.5385C0.00183257 19.2516 0.683188 20.8941 1.89456 22.1054C3.10594 23.3168 4.74839 23.9982 6.46154 24H17.5385C19.2516 23.9982 20.8941 23.3168 22.1054 22.1054C23.3168 20.8941 23.9982 19.2516 24 17.5385V6.46154C23.9982 4.74839 23.3168 3.10594 22.1054 1.89456C20.8941 0.683188 19.2516 0.00183257 17.5385 0ZM12 17.5385C10.9046 17.5385 9.83379 17.2136 8.923 16.6051C8.0122 15.9965 7.30232 15.1315 6.88313 14.1195C6.46394 13.1075 6.35426 11.9939 6.56796 10.9195C6.78166 9.84514 7.30915 8.85828 8.08372 8.08372C8.85828 7.30915 9.84514 6.78166 10.9195 6.56796C11.9939 6.35426 13.1075 6.46394 14.1195 6.88313C15.1315 7.30232 15.9965 8.0122 16.6051 8.923C17.2136 9.83379 17.5385 10.9046 17.5385 12C17.5369 13.4684 16.9529 14.8763 15.9146 15.9146C14.8763 16.9529 13.4684 17.5369 12 17.5385ZM18.9231 6.46154C18.6492 6.46154 18.3815 6.38033 18.1538 6.22819C17.9261 6.07605 17.7487 5.8598 17.6439 5.60679C17.5391 5.35379 17.5116 5.07539 17.5651 4.8068C17.6185 4.53821 17.7504 4.29149 17.944 4.09785C18.1376 3.90421 18.3844 3.77234 18.653 3.71891C18.9215 3.66549 19.1999 3.69291 19.4529 3.79771C19.706 3.9025 19.9222 4.07997 20.0743 4.30767C20.2265 4.53537 20.3077 4.80307 20.3077 5.07692C20.3077 5.44415 20.1618 5.79633 19.9021 6.05599C19.6425 6.31566 19.2903 6.46154 18.9231 6.46154ZM15.6923 12C15.6923 12.7303 15.4758 13.4441 15.07 14.0513C14.6643 14.6585 14.0877 15.1318 13.413 15.4112C12.7383 15.6907 11.9959 15.7638 11.2797 15.6214C10.5634 15.4789 9.90552 15.1272 9.38914 14.6109C8.87277 14.0945 8.52111 13.4366 8.37864 12.7203C8.23617 12.0041 8.30929 11.2617 8.58875 10.587C8.86821 9.91233 9.34147 9.33567 9.94866 8.92996C10.5559 8.52424 11.2697 8.30769 12 8.30769C12.9793 8.30769 13.9184 8.6967 14.6109 9.38914C15.3033 10.0816 15.6923 11.0207 15.6923 12Z"/>
        </symbol>
        <symbol viewBox="0 0 28 28" id="icon-plus">
            <path d="M14 1.08008V27.0801M1 14.0001H27" stroke-width="1.71429"
                  stroke-linecap="round" stroke-linejoin="round"/>
        </symbol>
        <symbol viewBox="0 0 32 32" id="icon-wrench">
            <path d="M10.7187 6.96219C10.9188 6.25644 10.9767 5.50725 10.886 4.77787C10.735 3.56319 10.1974 2.46338 9.33131 1.59731C9.10506 1.37106 8.8565 1.16281 8.59256 0.978563C7.676 0.338625 6.59731 0.000187603 5.47331 1.03023e-07C5.15175 -6.2397e-05 4.82812 0.0283126 4.51106 0.0844376C4.17731 0.143563 3.90944 0.369625 3.79469 0.689C3.67944 1.00956 3.74225 1.35569 3.96269 1.61488L5.71106 3.67081L3.67088 5.711L1.615 3.96263C1.35569 3.74213 1.0095 3.67937 0.688938 3.79469C0.3695 3.90963 0.1435 4.1775 0.0844376 4.51106C0.0283126 4.82781 -6.2397e-05 5.15156 1.03023e-07 5.47325C0.000250103 6.59731 0.338625 7.676 0.978563 8.59256C1.16263 8.85625 1.37081 9.10475 1.59731 9.33131C2.46338 10.1974 3.56319 10.735 4.77787 10.886C5.50725 10.9767 6.25637 10.9188 6.96219 10.7187L11.1386 14.8951L14.8951 11.1386L10.7187 6.96219Z"/>
            <path d="M21.2819 25.0377C21.0818 25.7434 21.0238 26.4926 21.1146 27.222C21.2656 28.4367 21.8032 29.5365 22.6693 30.4025C22.8958 30.6291 23.1443 30.8372 23.408 31.0213C24.3247 31.6612 25.4033 31.9997 26.5273 31.9999C26.849 31.9999 27.1728 31.9715 27.4895 31.9154C27.8231 31.8563 28.091 31.6304 28.2059 31.3109C28.3213 30.9904 28.2585 30.6442 28.038 30.3849L26.2896 28.329L28.3298 26.2889L30.3857 28.0372C30.6449 28.2577 30.9911 28.3205 31.3116 28.2052C31.631 28.0904 31.8571 27.8225 31.9162 27.4888C31.9723 27.1718 32.0007 26.8481 32.0006 26.5266C32.0004 25.4025 31.662 24.3239 31.022 23.4073C30.8378 23.1434 30.6295 22.8949 30.4033 22.6685C29.5372 21.8025 28.4374 21.2649 27.2227 21.1139C26.4933 21.0232 25.7442 21.081 25.0384 21.2812L20.862 17.1047L17.1055 20.8612L21.2819 25.0377Z"/>
            <path d="M31.7243 2.39599L29.6045 0.276114C29.2913 -0.0370109 28.8117 -0.0896359 28.4382 0.148114L24.0628 2.93243C23.8483 3.06893 23.6967 3.29011 23.6468 3.53949L23.272 5.41386L11.8145 16.8714L15.129 20.1859L26.5865 8.72843L28.461 8.35355C28.7103 8.30368 28.9315 8.15205 29.068 7.93755L31.8522 3.5623C32.0901 3.18874 32.0375 2.70911 31.7243 2.39599Z"/>
            <path d="M15.681 23.3901L8.60995 16.319C8.24383 15.9529 7.65027 15.9529 7.28414 16.319C6.91802 16.6852 6.91802 17.2787 7.28414 17.6448L7.50514 17.8658L1.37077 24.0002C-0.456922 25.8279 -0.456922 28.8017 1.37077 30.6293C3.19845 32.457 6.1722 32.457 7.99989 30.6293L14.1343 24.495L14.3553 24.716C14.7214 25.0821 15.315 25.0821 15.6811 24.716C16.0471 24.3498 16.0471 23.7562 15.681 23.3901ZM9.43139 23.8945L4.6607 28.6652C4.29458 29.0313 3.70102 29.0313 3.33489 28.6652C2.96877 28.2991 2.96877 27.7055 3.33489 27.3394L8.10558 22.5687C8.4717 22.2026 9.06527 22.2026 9.43139 22.5687C9.79745 22.9348 9.79745 23.5284 9.43139 23.8945Z"/>
        </symbol>
        <symbol viewBox="0 0 28 32" id="icon-hosting">
            <path d="M27.941 8.92505L17.1236 15.6934C16.1602 16.2962 15.0799 16.5976 13.9997 16.5976C12.9195 16.5976 11.8393 16.2962 10.8758 15.6934L0.0590647 8.92542C0.0283337 9.09863 0.0117188 9.27596 0.0117188 9.45585V12.1358L11.8698 19.5552C13.1836 20.3771 14.8158 20.3772 16.1297 19.5552L27.9878 12.1357V9.45585C27.9878 9.27521 27.9715 9.09794 27.941 8.92505Z"/>
            <path d="M13.9997 22.0478C12.9195 22.0478 11.8393 21.7464 10.8759 21.1435L0.0117188 14.346V17.5234L11.8698 24.9429C13.1836 25.7649 14.8158 25.7649 16.1297 24.9429L27.9878 17.5235V14.3459L17.1236 21.1435C16.1602 21.7464 15.0799 22.0478 13.9997 22.0478Z"/>
            <path d="M16.1299 14.1047L27.0423 7.27701C26.9209 7.16583 26.7903 7.06433 26.6502 6.97663L16.7903 0.807377C15.93 0.269146 14.9649 0 14 0C13.035 0 12.0699 0.269146 11.2097 0.807377L1.34979 6.97663C1.209 7.0647 1.07839 7.16589 0.957031 7.27663L11.8699 14.1047C13.1838 14.9267 14.8162 14.9267 16.1299 14.1047Z"/>
            <path d="M13.9998 27.4357C12.9196 27.4357 11.8394 27.1343 10.8759 26.5314L0.0117188 19.7339V22.5443C0.0117188 23.5622 0.52028 24.5046 1.34958 25.0235L11.2094 31.1927C12.0697 31.731 13.0347 32.0001 13.9997 32.0001C14.9647 32.0001 15.9298 31.7309 16.79 31.1927L26.65 25.0235C27.4793 24.5046 27.9878 23.5622 27.9878 22.5443V19.7339L17.1236 26.5315C16.1601 27.1343 15.0799 27.4357 13.9998 27.4357Z"/>
        </symbol>
        <symbol viewBox="0 0 32 32" id="icon-design">
            <path d="M16 0C7.16442 0 0 7.16442 0 16C0 24.8356 7.16442 32 16 32C17.4756 32 18.6667 30.8089 18.6667 29.3333C18.6667 28.64 18.4089 28.0177 17.9733 27.5467C17.5556 27.0756 17.3067 26.4623 17.3067 25.7778C17.3067 24.3022 18.4977 23.1111 19.9733 23.1111H23.1111C28.0178 23.1111 32 19.1288 32 14.2222C32 6.36442 24.8356 0 16 0ZM6.22225 16C4.74667 16 3.55558 14.8089 3.55558 13.3333C3.55558 11.8577 4.74667 10.6667 6.22225 10.6667C7.69783 10.6667 8.88892 11.8577 8.88892 13.3333C8.88892 14.8089 7.69775 16 6.22225 16ZM11.5556 8.88892C10.08 8.88892 8.88892 7.69783 8.88892 6.22225C8.88892 4.74667 10.08 3.55558 11.5556 3.55558C13.0312 3.55558 14.2223 4.74667 14.2223 6.22225C14.2223 7.69783 13.0311 8.88892 11.5556 8.88892ZM20.4444 8.88892C18.9688 8.88892 17.7778 7.69783 17.7778 6.22225C17.7778 4.74667 18.9688 3.55558 20.4444 3.55558C21.92 3.55558 23.1111 4.74667 23.1111 6.22225C23.1111 7.69783 21.92 8.88892 20.4444 8.88892ZM25.7778 16C24.3022 16 23.1111 14.8089 23.1111 13.3333C23.1111 11.8577 24.3022 10.6667 25.7778 10.6667C27.2533 10.6667 28.4444 11.8577 28.4444 13.3333C28.4444 14.8089 27.2533 16 25.7778 16Z"/>
        </symbol>
        <symbol viewBox="0 0 32 24" id="icon-code">
            <path d="M27.4713 0.293701H4.52875C2.03187 0.293701 0 2.32558 0 4.82308V19.1768C0 21.6743 2.03187 23.7062 4.52875 23.7062H27.4713C29.9681 23.7062 32 21.6743 32 19.1768V4.82308C32 2.32558 29.9681 0.293701 27.4713 0.293701ZM11.6131 7.49933L6.84875 12.2637L11.0856 16.5006C11.4519 16.8668 11.4519 17.4606 11.0856 17.8262C10.72 18.1925 10.1263 18.1925 9.76 17.8262L4.86 12.9262C4.49375 12.56 4.49375 11.9668 4.86 11.6006L10.2869 6.1737C10.6531 5.80745 11.2469 5.80745 11.6131 6.1737C11.9788 6.53933 11.9788 7.13308 11.6131 7.49933ZM19.3463 5.2937L14.3888 19.3306C14.2163 19.8193 13.6806 20.075 13.1925 19.9025C12.7044 19.7299 12.4481 19.1943 12.6206 18.7062L17.5781 4.66933C17.7506 4.1812 18.2856 3.92495 18.7744 4.09745C19.2625 4.26995 19.5188 4.80558 19.3463 5.2937ZM27.14 12.3993L21.7131 17.8262C21.3469 18.1925 20.7531 18.1925 20.3869 17.8262C20.0212 17.4606 20.0212 16.8668 20.3869 16.5006L25.1513 11.7362L20.9144 7.49933C20.5481 7.13308 20.5481 6.53933 20.9144 6.1737C21.28 5.80745 21.8738 5.80745 22.24 6.1737L27.14 11.0737C27.5062 11.44 27.5062 12.0331 27.14 12.3993Z"/>
        </symbol>
        <symbol viewBox="0 0 32 32" id="icon-safety">
            <path d="M29.1875 26.375H27.6875V18.375C27.6875 17.8575 27.2675 17.4375 26.75 17.4375H21.2775C19.8308 16.7352 18.3842 16.0329 16.9375 15.3306V13.125H21.0625C21.58 13.125 22 12.705 22 12.1875V8.4375C22 7.92 21.58 7.5 21.0625 7.5H16.9375V5.625H21.0625C21.58 5.625 22 5.205 22 4.6875V0.9375C22 0.42 21.58 0 21.0625 0H10.9375C10.42 0 10 0.42 10 0.9375V4.6875C10 5.205 10.42 5.625 10.9375 5.625H15.0625V7.5H10.9375C10.42 7.5 10 7.92 10 8.4375V12.1875C10 12.705 10.42 13.125 10.9375 13.125H15.0625V15.3306C13.6158 16.0329 12.1692 16.7352 10.7225 17.4375H5.25C4.7325 17.4375 4.3125 17.8575 4.3125 18.375V26.375H2.8125C1.26188 26.375 0 27.6369 0 29.1875C0 30.7381 1.26188 32 2.8125 32H7.625C9.17562 32 10.4375 30.7381 10.4375 29.1875C10.4375 27.6369 9.17562 26.375 7.625 26.375H6.1875V19.3125H10.7225C12.3452 20.1002 13.9679 20.8879 15.5906 21.6756C15.8493 21.8016 16.1507 21.8016 16.4094 21.6756C18.0321 20.8879 19.6548 20.1002 21.2775 19.3125H25.8125V26.375H24.375C22.8244 26.375 21.5625 27.6369 21.5625 29.1875C21.5625 30.7381 22.8244 32 24.375 32H29.1875C30.7381 32 32 30.7381 32 29.1875C32 27.6369 30.7381 26.375 29.1875 26.375Z"/>
        </symbol>
        <symbol viewBox="0 0 32 28" id="icon-speed">
            <path d="M15.0624 0.197021C11.4486 0.404459 8.05955 1.80877 5.35449 4.21958L9.53799 8.40308C11.1124 7.0924 13.024 6.30033 15.0624 6.11408V0.197021Z"/>
            <path d="M8.2121 9.72885L4.02866 5.54541C1.61579 8.24972 0.209727 11.639 0.000976562 15.2537H5.91829C6.10579 13.2149 6.89954 11.3031 8.2121 9.72885Z"/>
            <path d="M26.0819 15.2537H31.9992C31.7905 11.639 30.3845 8.24972 27.9715 5.54541L23.7881 9.72885C25.1006 11.303 25.8944 13.2149 26.0819 15.2537Z"/>
            <path d="M26.0804 17.1284C25.9489 18.5724 25.5369 19.7767 25.0495 20.7428C25.5249 21.476 25.9213 22.0956 26.1832 22.5071C26.8963 23.6279 26.7384 25.0665 25.7992 26.0058C25.5711 26.2339 25.3106 26.4176 25.0283 26.5534L26.0026 27.5278C26.186 27.7112 26.4264 27.8029 26.6667 27.8029C26.9071 27.8029 27.1474 27.7112 27.3307 27.5278C30.1384 24.7204 31.7756 21.0569 31.9997 17.1284H26.0804Z"/>
            <path d="M5.91937 17.1284H0C0.224063 21.0569 1.86125 24.7204 4.66894 27.5279C4.85231 27.7112 5.09263 27.8029 5.33294 27.8029C5.57325 27.8029 5.81363 27.7112 5.997 27.5279L8.8415 24.6832C9.20819 24.3164 9.20819 23.7218 8.8415 23.355C8.09919 22.6127 6.22937 20.5345 5.91937 17.1284Z"/>
            <path d="M26.6454 4.21958C23.9404 1.80871 20.5514 0.404459 16.9375 0.197021V6.11408C18.9759 6.30033 20.8876 7.0924 22.4619 8.40308L26.6454 4.21958Z"/>
            <path d="M18.0831 14.1234C16.9345 12.9748 15.0656 12.9748 13.9171 14.1234C12.7685 15.2719 12.7685 17.1408 13.9171 18.2894C15.3681 19.7404 22.499 24.2935 23.3074 24.8079C23.6781 25.0438 24.1629 24.9906 24.4736 24.6799C24.7843 24.3692 24.8376 23.8844 24.6016 23.5136C24.0872 22.7053 19.5341 15.5743 18.0831 14.1234Z"/>
        </symbol>
        <symbol viewBox="0 0 32 32" id="icon-puzzle">
            <path d="M17.3645 13.473H15.0624V7.53121H10.0582V5.22915C10.0582 3.83352 8.92681 2.70215 7.53119 2.70215C6.13556 2.70215 5.00419 3.83352 5.00419 5.22915V7.53121H0V24.4687H5.00425V22.1666C5.00425 20.771 6.13562 19.6396 7.53125 19.6396C8.92688 19.6396 10.0583 20.771 10.0583 22.1666V24.4687H15.0625V18.527H17.3646C18.7602 18.527 19.8916 17.3956 19.8916 16C19.8916 14.6043 18.7601 13.473 17.3645 13.473Z"/>
            <path d="M26.9958 7.53121V5.22915C26.9958 3.83352 25.8644 2.70215 24.4688 2.70215C23.0731 2.70215 21.9417 3.83352 21.9417 5.22915V7.53121H16.9375V11.5979H17.3644C19.7917 11.5979 21.7665 13.5726 21.7665 16C21.7665 18.4273 19.7917 20.402 17.3644 20.402H16.9375V24.4687H21.9417V26.7708C21.9417 28.1664 23.0731 29.2978 24.4688 29.2978C25.8644 29.2978 26.9958 28.1664 26.9958 26.7708V24.4687H32V7.53121H26.9958Z"/>
        </symbol>
        <symbol viewBox="0 0 32 32" id="icon-horn">
            <g clip-path="url(#clip0_1357_973)">
                <path d="M31.2116 10.6113C31.5654 10.32 31.6568 9.81565 31.4277 9.41878L29.0726 5.33971C28.8434 4.94277 28.3609 4.76984 27.9318 4.93052L27.1299 5.23096L30.5505 11.1555L31.2116 10.6113Z"/>
                <path d="M18.3478 22.3162C16.6651 22.8435 14.9707 23.5277 13.4304 24.4165L12.6152 24.887L16.1084 30.9373C16.282 31.2382 16.5971 31.4063 16.9211 31.4062C17.0802 31.4062 17.2414 31.3657 17.389 31.2805L21.1779 29.093C21.3932 28.9687 21.5503 28.7639 21.6147 28.5237C21.679 28.2835 21.6453 28.0277 21.521 27.8123L18.3478 22.3162Z"/>
                <path d="M4.00254 17.3712C3.49647 17.6634 3.13454 18.1351 2.98329 18.6994C2.91772 18.9441 2.89535 19.1934 2.9146 19.4386L0.475599 20.8196C0.258099 20.9427 0.098724 21.1477 0.032974 21.3889C-0.032776 21.6301 0.000661515 21.8876 0.125599 22.1041L2.33335 25.928C2.50685 26.2286 2.82191 26.3969 3.1461 26.3969C3.3026 26.3969 3.46129 26.3577 3.60716 26.2751L6.00322 24.9186C6.39516 25.2351 6.88422 25.4062 7.3826 25.4062C7.75347 25.4062 8.12904 25.312 8.4726 25.1136L10.8653 23.7322L6.39504 15.99L4.00254 17.3712Z"/>
                <path d="M31.874 17.1992L22.5572 1.06237C22.3901 0.773062 22.0817 0.594563 21.7476 0.59375C21.7468 0.59375 21.7461 0.59375 21.7452 0.59375C21.4121 0.59375 21.1038 0.770688 20.9357 1.0585C20.8781 1.15713 15.0927 10.9683 8.01855 15.0524L12.4888 22.7946C16.4357 20.516 21.2539 19.498 24.601 19.0453C28.2523 18.5514 30.9978 18.6043 31.0406 18.6052C31.3784 18.6132 31.6958 18.4374 31.8686 18.146C32.0413 17.8546 32.0434 17.4926 31.874 17.1992Z"/>
            </g>
            <defs>
                <clipPath id="clip0_1357_973">
                    <rect width="32" height="32" fill="white"/>
                </clipPath>
            </defs>
        </symbol>
        <symbol viewBox="0 0 40 40" id="icon-phase">
            <path d="M19.8575 6.33219C21.6061 6.33219 23.0236 4.91468 23.0236 3.16609C23.0236 1.41751 21.6061 0 19.8575 0C18.1089 0 16.6914 1.41751 16.6914 3.16609C16.6914 4.91468 18.1089 6.33219 19.8575 6.33219Z"/>
            <path d="M5.16609 19.4785C6.91468 19.4785 8.33219 18.061 8.33219 16.3124C8.33219 14.5638 6.91468 13.1463 5.16609 13.1463C3.41751 13.1463 2 14.5638 2 16.3124C2 18.061 3.41751 19.4785 5.16609 19.4785Z"/>
            <path d="M34.3651 17.3679C35.9194 17.3679 37.1794 16.1078 37.1794 14.5536C37.1794 12.9993 35.9194 11.7393 34.3651 11.7393C32.8108 11.7393 31.5508 12.9993 31.5508 14.5536C31.5508 16.1078 32.8108 17.3679 34.3651 17.3679Z"/>
            <path d="M24.9244 39.6665V16.3249C24.9244 16.1408 24.7751 15.9915 24.5909 15.9915H14.5873C14.4032 15.9915 14.2539 16.1408 14.2539 16.3249V39.6665C14.2539 39.8506 14.4032 39.9999 14.5873 39.9999H24.5909C24.7751 40 24.9244 39.8507 24.9244 39.6665Z"/>
            <path d="M26.5922 40H36.5957C36.7799 40 36.9292 39.8507 36.9292 39.6665V23.3274C36.9292 23.1433 36.7799 22.994 36.5957 22.994H26.5922C26.4081 22.994 26.2588 23.1433 26.2588 23.3274V39.6665C26.2588 39.8507 26.408 40 26.5922 40Z"/>
            <path d="M12.587 26.3285H2.58344C2.3993 26.3285 2.25 26.4778 2.25 26.6619V39.6665C2.25 39.8507 2.3993 40 2.58344 40H12.587C12.7711 40 12.9204 39.8507 12.9204 39.6665V26.6619C12.9204 26.4778 12.7712 26.3285 12.587 26.3285Z"/>
            <path d="M8.37625 13.5662L16.0056 5.9368C15.7225 5.48321 15.5127 4.97961 15.392 4.4425L7.32227 12.5122C7.72531 12.8074 8.08102 13.1631 8.37625 13.5662Z"/>
            <path d="M31.019 12.1932C31.2854 11.7678 31.621 11.3903 32.0103 11.0765L24.3757 3.44202C24.3679 4.0617 24.2431 4.65342 24.0225 5.19663L31.019 12.1932Z"/>
        </symbol>
        <symbol viewBox="0 0 60 60" id="icon-call">
            <g clip-path="url(#clip0_1070_12841)">
                <path d="M11.25 15.6248V4.37476C11.25 3.72476 11.325 3.09976 11.5 2.49976H4.375C1.975 2.49976 0 4.47476 0 6.87476V18.1248C0 20.5248 1.975 22.4998 4.375 22.4998H5.3L8.5 26.7498C8.85 27.1998 9.375 27.4748 9.925 27.4998H10C10.55 27.4998 11.05 27.2748 11.4 26.8498L15.15 22.5748C12.825 21.1248 11.25 18.5498 11.25 15.6248Z"/>
                <path d="M55.6256 2.49976H48.5006C48.6756 3.09976 48.7506 3.72476 48.7506 4.37476V15.6248C48.7506 18.5498 47.1756 21.1248 44.8506 22.5748L48.6006 26.8498C48.9506 27.2748 49.4506 27.4998 50.0006 27.4998H50.0756C50.6256 27.4748 51.1506 27.1998 51.5006 26.7498L54.6756 22.4998H55.6256C58.0256 22.4998 60.0006 20.5248 60.0006 18.1248V6.87476C60.0006 4.47476 58.0256 2.49976 55.6256 2.49976Z"/>
                <path d="M30 25C29.9775 25 29.9525 25 29.93 25C29.365 24.9775 28.84 24.7025 28.5 24.25L25.3125 20H19.375C16.9625 20 15 18.0375 15 15.625V4.375C15 1.9625 16.9625 0 19.375 0H40.625C43.0375 0 45 1.9625 45 4.375V15.625C45 18.0375 43.0375 20 40.625 20H35.225L31.41 24.36C31.055 24.7675 30.54 25 30 25Z"/>
                <path d="M10 42.4997C12.7614 42.4997 15 40.2612 15 37.4998C15 34.7383 12.7614 32.4998 10 32.4998C7.23857 32.4998 5 34.7383 5 37.4998C5 40.2612 7.23857 42.4997 10 42.4997Z"/>
                <path d="M16.675 46C14.15 47.9 12.5 50.95 12.5 54.375V55H1.875C0.85 55 0 54.15 0 53.125V51.875C0 48.075 3.075 45 6.875 45H13.125C14.425 45 15.65 45.375 16.675 46Z"/>
                <path d="M50 42.4997C52.7614 42.4997 55 40.2612 55 37.4998C55 34.7383 52.7614 32.4998 50 32.4998C47.2386 32.4998 45 34.7383 45 37.4998C45 40.2612 47.2386 42.4997 50 42.4997Z"/>
                <path d="M60.0012 51.875V53.125C60.0012 54.15 59.1512 55 58.1262 55H47.5012V54.375C47.5012 50.95 45.8512 47.9 43.3262 46C44.3512 45.375 45.5762 45 46.8762 45H53.1262C56.9262 45 60.0012 48.075 60.0012 51.875Z"/>
                <path d="M30 43.7498C34.1421 43.7498 37.5 40.3919 37.5 36.2498C37.5 32.1076 34.1421 28.7498 30 28.7498C25.8579 28.7498 22.5 32.1076 22.5 36.2498C22.5 40.3919 25.8579 43.7498 30 43.7498Z"/>
                <path d="M36.875 47.4998H23.125C19.3325 47.4998 16.25 50.5823 16.25 54.3748V58.1248C16.25 59.1598 17.09 59.9998 18.125 59.9998H41.875C42.91 59.9998 43.75 59.1598 43.75 58.1248V54.3748C43.75 50.5823 40.6675 47.4998 36.875 47.4998Z"/>
            </g>
            <defs>
                <clipPath id="clip0_1070_12841">
                    <rect width="60" height="60" fill="white"/>
                </clipPath>
            </defs>
        </symbol>
        <symbol viewBox="0 0 40 40" id="icon-communication">
            <g clip-path="url(#clip0_1070_13027)">
                <path fill-rule="evenodd" clip-rule="evenodd"
                      d="M8.93781 21.4253C9.84759 21.4253 10.7369 21.6951 11.4934 22.2005C12.2498 22.706 12.8394 23.4244 13.1876 24.2649C13.5357 25.1054 13.6268 26.0303 13.4493 26.9226C13.2719 27.8149 12.8338 28.6345 12.1904 29.2779C11.5471 29.9212 10.7275 30.3593 9.83521 30.5368C8.94291 30.7142 8.01802 30.6231 7.1775 30.275C6.33697 29.9268 5.61856 29.3372 5.11312 28.5808C4.60767 27.8243 4.33789 26.935 4.33789 26.0252C4.34119 24.8063 4.82688 23.6382 5.68882 22.7762C6.55076 21.9143 7.71885 21.4286 8.93781 21.4253Z"/>
                <path fill-rule="evenodd" clip-rule="evenodd"
                      d="M1 40H16.8747L16.7247 38.1501C16.6086 36.7209 15.9593 35.3876 14.9057 34.4151C13.8521 33.4425 12.4712 32.9017 11.0373 32.9001H6.8374C5.40352 32.9017 4.02266 33.4425 2.96904 34.4151C1.91541 35.3876 1.26609 36.7209 1.15 38.1501L1 40Z"/>
                <path fill-rule="evenodd" clip-rule="evenodd"
                      d="M30.1868 21.4254C31.0966 21.4254 31.986 21.6951 32.7424 22.2006C33.4989 22.706 34.0885 23.4244 34.4366 24.265C34.7848 25.1055 34.8759 26.0304 34.6984 26.9227C34.5209 27.815 34.0828 28.6346 33.4395 29.2779C32.7962 29.9212 31.9765 30.3593 31.0842 30.5368C30.1919 30.7143 29.267 30.6232 28.4265 30.2751C27.586 29.9269 26.8676 29.3373 26.3621 28.5809C25.8567 27.8244 25.5869 26.9351 25.5869 26.0253C25.5902 24.8063 26.0759 23.6382 26.9378 22.7763C27.7998 21.9143 28.9679 21.4287 30.1868 21.4254Z"/>
                <path fill-rule="evenodd" clip-rule="evenodd"
                      d="M38.1247 40L37.9747 38.1501C37.8586 36.7209 37.2093 35.3876 36.1557 34.4151C35.1021 33.4425 33.7212 32.9017 32.2873 32.9001H28.0874C26.6535 32.9017 25.2727 33.4425 24.219 34.4151C23.1654 35.3876 22.5161 36.7209 22.4 38.1501L22.25 40H38.1247Z"/>
                <path fill-rule="evenodd" clip-rule="evenodd"
                      d="M28.1249 0.000686095H11.0002C10.6238 -0.000968283 10.2508 0.0719419 9.90281 0.215208C9.55477 0.358473 9.23856 0.569257 8.97243 0.83539C8.70629 1.10152 8.49551 1.41773 8.35224 1.76577C8.20898 2.11381 8.13607 2.48677 8.13772 2.86314V14.2879C8.13608 14.6633 8.20858 15.0352 8.35106 15.3824C8.49355 15.7296 8.70322 16.0453 8.96802 16.3112C9.23283 16.5772 9.54756 16.7883 9.89415 16.9323C10.2407 17.0763 10.6124 17.1504 10.9877 17.1504H14.7376C14.9252 17.1491 15.1112 17.1849 15.285 17.2557C15.4587 17.3265 15.6168 17.4309 15.7501 17.5629L18.6 20.4253C18.7325 20.5591 18.8902 20.6653 19.064 20.7378C19.2378 20.8103 19.4242 20.8476 19.6125 20.8476C19.8008 20.8476 19.9872 20.8103 20.161 20.7378C20.3348 20.6653 20.4925 20.5591 20.625 20.4253L23.425 17.5004C23.5583 17.3684 23.7163 17.264 23.8901 17.1932C24.0638 17.1224 24.2498 17.0866 24.4374 17.0879H28.1874C28.5627 17.0879 28.9343 17.0138 29.2809 16.8698C29.6275 16.7258 29.9422 16.5147 30.207 16.2487C30.4718 15.9828 30.6815 15.6671 30.824 15.3199C30.9665 14.9727 31.039 14.6008 31.0373 14.2254V2.86314C31.0391 2.48251 30.9646 2.10538 30.8182 1.75402C30.6718 1.40265 30.4566 1.08417 30.1851 0.81736C29.9136 0.550552 29.5915 0.340827 29.2376 0.200562C28.8838 0.060297 28.5054 -0.0076652 28.1249 0.000686095ZM15.2751 9.63802C15.0625 9.63802 14.8547 9.57497 14.6779 9.45685C14.5011 9.33873 14.3633 9.17084 14.2819 8.97442C14.2006 8.77799 14.1793 8.56185 14.2208 8.35332C14.2623 8.1448 14.3646 7.95325 14.515 7.80291C14.6653 7.65257 14.8569 7.55019 15.0654 7.50871C15.2739 7.46724 15.4901 7.48852 15.6865 7.56989C15.8829 7.65125 16.0508 7.78903 16.1689 7.96581C16.287 8.14259 16.3501 8.35043 16.3501 8.56304C16.3501 8.84814 16.2368 9.12157 16.0352 9.32317C15.8336 9.52476 15.5602 9.63802 15.2751 9.63802ZM19.5625 9.63802C19.3499 9.63802 19.1421 9.57497 18.9653 9.45685C18.7885 9.33873 18.6507 9.17084 18.5694 8.97442C18.488 8.77799 18.4667 8.56185 18.5082 8.35332C18.5497 8.1448 18.6521 7.95325 18.8024 7.80291C18.9527 7.65257 19.1443 7.55019 19.3528 7.50871C19.5613 7.46724 19.7775 7.48852 19.9739 7.56989C20.1703 7.65125 20.3382 7.78903 20.4563 7.96581C20.5745 8.14259 20.6375 8.35043 20.6375 8.56304C20.6375 8.84814 20.5243 9.12157 20.3227 9.32317C20.1211 9.52476 19.8476 9.63802 19.5625 9.63802ZM23.85 9.63802C23.6373 9.63802 23.4295 9.57497 23.2527 9.45685C23.0759 9.33873 22.9382 9.17084 22.8568 8.97442C22.7754 8.77799 22.7541 8.56185 22.7956 8.35332C22.8371 8.1448 22.9395 7.95325 23.0898 7.80291C23.2402 7.65257 23.4317 7.55019 23.6402 7.50871C23.8488 7.46724 24.0649 7.48852 24.2613 7.56989C24.4578 7.65125 24.6256 7.78903 24.7438 7.96581C24.8619 8.14259 24.9249 8.35043 24.9249 8.56304C24.9249 8.84814 24.8117 9.12157 24.6101 9.32317C24.4085 9.52476 24.1351 9.63802 23.85 9.63802Z"/>
                <path d="M15.2751 9.63802C15.0625 9.63802 14.8547 9.57497 14.6779 9.45685C14.5011 9.33873 14.3633 9.17084 14.2819 8.97442C14.2006 8.77799 14.1793 8.56185 14.2208 8.35332C14.2623 8.1448 14.3646 7.95325 14.515 7.80291C14.6653 7.65257 14.8569 7.55019 15.0654 7.50871C15.2739 7.46724 15.4901 7.48852 15.6865 7.56989C15.8829 7.65125 16.0508 7.78903 16.1689 7.96581C16.287 8.14259 16.3501 8.35043 16.3501 8.56304C16.3501 8.84814 16.2368 9.12157 16.0352 9.32317C15.8336 9.52476 15.5602 9.63802 15.2751 9.63802Z"/>
                <path d="M19.5625 9.63802C19.3499 9.63802 19.1421 9.57497 18.9653 9.45685C18.7885 9.33873 18.6507 9.17084 18.5694 8.97442C18.488 8.77799 18.4667 8.56185 18.5082 8.35332C18.5497 8.1448 18.6521 7.95325 18.8024 7.80291C18.9527 7.65257 19.1443 7.55019 19.3528 7.50871C19.5613 7.46724 19.7775 7.48852 19.9739 7.56989C20.1703 7.65125 20.3382 7.78903 20.4563 7.96581C20.5745 8.14259 20.6375 8.35043 20.6375 8.56304C20.6375 8.84814 20.5243 9.12157 20.3227 9.32317C20.1211 9.52476 19.8476 9.63802 19.5625 9.63802Z"/>
                <path d="M23.85 9.63802C23.6373 9.63802 23.4295 9.57497 23.2527 9.45685C23.0759 9.33873 22.9382 9.17084 22.8568 8.97442C22.7754 8.77799 22.7541 8.56185 22.7956 8.35332C22.8371 8.1448 22.9395 7.95325 23.0898 7.80291C23.2402 7.65257 23.4317 7.55019 23.6402 7.50871C23.8488 7.46724 24.0649 7.48852 24.2613 7.56989C24.4578 7.65125 24.6256 7.78903 24.7438 7.96581C24.8619 8.14259 24.9249 8.35043 24.9249 8.56304C24.9249 8.84814 24.8117 9.12157 24.6101 9.32317C24.4085 9.52476 24.1351 9.63802 23.85 9.63802Z"/>
            </g>
            <defs>
                <clipPath id="clip0_1070_13027">
                    <rect width="40" height="40" fill="white"/>
                </clipPath>
            </defs>
        </symbol>
        <symbol viewBox="0 0 40 40" id="icon-dev">
            <g clip-path="url(#clip0_1070_13074)">
                <path d="M37.5562 17.9863C37.1261 10.3617 31.476 4.00783 23.9296 2.7175C23.8123 1.21212 22.5611 0 21.0166 0H19.0616C17.5171 0 16.2854 1.19257 16.1485 2.69795C8.56306 3.94917 2.8739 10.3226 2.4438 17.9863C1.05572 18.2209 0 19.4135 0 20.8602V22.8153C0 24.438 1.30987 25.7478 2.93256 25.7478H4.88759C6.51027 25.7478 7.82015 24.438 7.82015 22.8153V20.8602C7.82015 19.4135 6.76443 18.2209 5.37635 17.9863C5.78691 11.8866 10.2639 6.82308 16.2463 5.65006C16.5787 6.90128 17.7126 7.82015 19.0616 7.82015H21.0166C22.3656 7.82015 23.4799 6.90128 23.8318 5.66961C29.7752 6.86218 34.2131 11.9257 34.6236 17.9863C33.2356 18.2209 32.1799 19.4135 32.1799 20.8602V22.8153C32.1799 24.438 33.4897 25.7478 35.1124 25.7478H37.0674C38.6901 25.7478 40 24.438 40 22.8153V20.8602C40 19.4135 38.9443 18.2014 37.5562 17.9863Z"/>
                <path d="M27.3727 29.4215L24.1664 32.2563H15.8575L12.6513 29.4215C10.794 27.8966 10.794 26.7236 12.2016 24.9249L17.8516 17.7695C18.2427 17.2807 18.6923 16.9484 19.2006 16.7724C19.7285 16.5965 20.2954 16.5965 20.8428 16.7724C21.3316 16.9484 21.7813 17.2807 22.1918 17.7695L27.8223 24.9054C29.2495 26.704 29.1713 27.8184 27.3727 29.4215Z"/>
                <path d="M22.5824 40.0777H17.5188C15.7201 40.0777 14.3712 38.6115 14.7231 37.0474L15.3291 34.3299C15.4464 33.7825 15.9352 33.4111 16.4827 33.4111H23.6185C24.166 33.4111 24.6352 33.7825 24.772 34.3299L25.3781 37.0474C25.7495 38.7092 24.4983 40.0777 22.5824 40.0777Z"/>
            </g>
            <defs>
                <clipPath id="clip0_1070_13074">
                    <rect width="40" height="40" fill="white"/>
                </clipPath>
            </defs>
        </symbol>
        <symbol viewBox="0 0 40 40" id="icon-front">
            <g clip-path="url(#clip0_1070_12933)">
                <path d="M36.6665 0H3.3335C1.5005 0 0 1.5005 0 3.3335V30C0 31.8325 1.5005 33.3335 3.3335 33.3335H18.3335V36.6665H13.3335C11.4925 36.6665 10 38.1575 10 40L30 39.9965C30 38.1575 28.5075 36.6635 26.6665 36.6635H21.6665V33.3335H36.6665C38.4995 33.3335 40 31.8325 40 30V3.3335C40 1.5005 38.4995 0 36.6665 0ZM13.5775 20.7325L11.81 22.5L7.1545 17.845C6.5035 17.1935 6.5035 16.139 7.1545 15.488L11.81 10.833L13.5775 12.6005L9.5115 16.666L13.5775 20.7325ZM19.6145 24.1665H17.051L20.386 9.1665H22.9495L19.6145 24.1665ZM32.845 17.845L28.19 22.5L26.4225 20.7325L30.4885 16.6665L26.4225 12.601L28.19 10.8335L32.8455 15.4885C33.496 16.136 33.496 17.194 32.845 17.845Z"/>
            </g>
            <defs>
                <clipPath id="clip0_1070_12933">
                    <rect width="40" height="40" fill="white"/>
                </clipPath>
            </defs>
        </symbol>
        <symbol viewBox="0 0 40 40" id="icon-backend">
            <g clip-path="url(#clip0_1070_13121)">
                <g clip-path="url(#clip1_1070_13121)">
                    <path d="M31.7188 23.5156H29.9466C29.8224 23.1646 29.6797 22.8205 29.5187 22.4845L30.7723 21.231C31.2297 20.7738 31.23 20.0313 30.7723 19.5738L27.4574 16.2588C27.0002 15.8015 26.2577 15.8012 25.8002 16.2588L24.5466 17.5124C24.2106 17.3515 23.8666 17.2088 23.5155 17.0846V15.3125C23.5155 14.6653 22.9909 14.1406 22.3437 14.1406H17.6562C17.009 14.1406 16.4843 14.6653 16.4843 15.3125V17.0847C16.1333 17.2088 15.7892 17.3516 15.4532 17.5125L14.1997 16.2589C13.7425 15.8016 12.9999 15.8012 12.5424 16.2589L9.2275 19.5738C8.77016 20.031 8.76984 20.7736 9.2275 21.2311L10.4811 22.4846C10.3202 22.8206 10.1774 23.1647 10.0533 23.5157H8.28125C7.63406 23.5157 7.10938 24.0404 7.10938 24.6876V29.3751C7.10938 30.0223 7.63406 30.547 8.28125 30.547H10.0534C10.1776 30.898 10.3203 31.242 10.4813 31.578L9.22766 32.8316C8.77031 33.2887 8.77 34.0313 9.22766 34.4888L12.5426 37.8037C12.9998 38.2611 13.7423 38.2614 14.1998 37.8037L15.4534 36.5502C15.7894 36.7111 16.1334 36.8538 16.4845 36.978V38.75C16.4845 39.3972 17.0091 39.9219 17.6563 39.9219H22.3438C22.991 39.9219 23.5157 39.3972 23.5157 38.75V36.9778C23.8667 36.8537 24.2108 36.7109 24.5468 36.55L25.8003 37.8036C26.2575 38.2609 27.0001 38.2612 27.4576 37.8036L30.7725 34.4887C31.2298 34.0315 31.2302 33.2889 30.7725 32.8314L29.5189 31.5779C29.6798 31.2419 29.8226 30.8978 29.9467 30.5468H31.7188C32.3659 30.5468 32.8906 30.0221 32.8906 29.3749V24.6874C32.8906 24.0403 32.3659 23.5156 31.7188 23.5156ZM20 32.8906C16.7691 32.8906 14.1406 30.2621 14.1406 27.0312C14.1406 23.8004 16.7691 21.1719 20 21.1719C23.2309 21.1719 25.8594 23.8004 25.8594 27.0312C25.8594 30.2621 23.2309 32.8906 20 32.8906Z"/>
                    <path d="M36.4844 0.078125H3.51562C1.57734 0.078125 0 1.65547 0 3.59375V9.45312H40V3.59375C40 1.65547 38.4227 0.078125 36.4844 0.078125ZM5.9375 7.10938C5.29063 7.10938 4.76562 6.58437 4.76562 5.9375C4.76562 5.29063 5.29063 4.76562 5.9375 4.76562C6.58437 4.76562 7.10938 5.29063 7.10938 5.9375C7.10938 6.58437 6.58437 7.10938 5.9375 7.10938ZM10.625 7.10938C9.97812 7.10938 9.45312 6.58437 9.45312 5.9375C9.45312 5.29063 9.97812 4.76562 10.625 4.76562C11.2719 4.76562 11.7969 5.29063 11.7969 5.9375C11.7969 6.58437 11.2719 7.10938 10.625 7.10938ZM15.3125 7.10938C14.6656 7.10938 14.1406 6.58437 14.1406 5.9375C14.1406 5.29063 14.6656 4.76562 15.3125 4.76562C15.9594 4.76562 16.4844 5.29063 16.4844 5.9375C16.4844 6.58437 15.9594 7.10938 15.3125 7.10938ZM34.0625 7.10938H27.0312C26.3844 7.10938 25.8594 6.58437 25.8594 5.9375C25.8594 5.29063 26.3844 4.76562 27.0312 4.76562H34.0625C34.7094 4.76562 35.2344 5.29063 35.2344 5.9375C35.2344 6.58437 34.7094 7.10938 34.0625 7.10938Z"/>
                    <path d="M6.72578 32.5273C5.56562 31.9531 4.76562 30.7555 4.76562 29.375V24.6875C4.76562 23.307 5.56562 22.1094 6.72578 21.5352C6.60391 21.175 6.54063 20.7937 6.54063 20.4023C6.54063 19.4633 6.90625 18.5805 7.57031 17.9164L10.8852 14.6016C11.5492 13.9375 12.432 13.5719 13.3711 13.5719C13.7625 13.5719 14.1437 13.6352 14.5039 13.757C15.0781 12.5969 16.2758 11.7969 17.6562 11.7969H0V31.7188C0 33.657 1.57734 35.2344 3.51562 35.2344H6.91094C6.66875 34.7523 6.54063 34.2156 6.54063 33.6602C6.54063 33.2688 6.60391 32.8875 6.72578 32.5273Z"/>
                    <path d="M25.4961 13.757C25.8563 13.6352 26.2375 13.5719 26.6289 13.5719C27.568 13.5719 28.4508 13.9375 29.1148 14.6016L32.4297 17.9164C33.0938 18.5805 33.4594 19.4633 33.4594 20.4023C33.4594 20.7937 33.3961 21.175 33.2742 21.5352C34.4344 22.1094 35.2344 23.307 35.2344 24.6875V29.375C35.2344 30.7555 34.4344 31.9531 33.2742 32.5273C33.3961 32.8875 33.4594 33.2688 33.4594 33.6602C33.4594 34.2156 33.3313 34.7523 33.0891 35.2344H36.4844C38.4227 35.2344 40 33.657 40 31.7188V11.7969H22.3438C23.7242 11.7969 24.9219 12.5969 25.4961 13.757Z"/>
                </g>
            </g>
            <defs>
                <clipPath id="clip0_1070_13121">
                    <rect width="40" height="40" fill="white"/>
                </clipPath>
                <clipPath id="clip1_1070_13121">
                    <rect width="40" height="40" fill="white"/>
                </clipPath>
            </defs>
        </symbol>
        <symbol viewBox="0 0 40 40" id="icon-final">
            <g clip-path="url(#clip0_1070_12980)">
                <path d="M26.8109 9.68221L17.2137 3.167L20.4766 2.54962L30.0738 9.06453L27.8226 9.49056L33.1787 8.47676L23.5815 1.96185L11.835 4.18537L21.4322 10.7003L26.8109 9.68221Z"/>
                <path d="M38.2354 7.51945C38.5409 7.46177 38.811 7.28477 38.9862 7.0275C39.161 6.77054 39.227 6.45438 39.1687 6.1489L38.6776 3.56893C38.2254 1.19283 35.9198 -0.373643 33.5366 0.0774081L26.8447 1.3442L36.4419 7.85911L38.2354 7.51945Z"/>
                <path d="M6.84802 20.2542L6.84375 33.8077L33.5272 33.815L33.5314 20.2615L6.84802 20.2542Z"/>
                <path d="M35.4301 40H35.4313C37.8553 40 39.8283 38.0331 39.8295 35.6152L39.8347 20.2633L35.876 20.2624L35.8714 34.9875C35.8711 35.6347 35.3465 36.159 34.6995 36.159C34.6992 36.159 34.6992 36.159 34.6992 36.159L5.67201 36.1511C5.36104 36.1511 5.06318 36.0275 4.84346 35.8078C4.62373 35.5878 4.50044 35.2896 4.50044 34.9789L4.50502 20.2535L0.547181 20.2523L0.541993 35.6033C0.541382 36.7758 0.998842 37.8781 1.83045 38.7073C2.66083 39.5352 3.76466 39.9997 4.93867 40H35.4301Z"/>
                <path d="M5.4675 5.39081L15.0644 11.9057L11.8014 12.5234L2.40749 6.14612L2.40322 6.14795C1.75106 6.47785 1.18862 6.96766 0.765034 7.58717C0.103106 8.5561 -0.14073 9.72401 0.0783864 10.8761L0.548969 13.3492L0.547443 17.9085L39.835 17.9198L39.8368 13.2494C39.8368 12.9387 39.7135 12.6406 39.4938 12.4206C39.2741 12.2008 38.9759 12.0772 38.6652 12.0772L34.0046 12.076C34.0043 12.076 34.0043 12.076 34.0043 12.076L27.5232 12.0742C27.5229 12.0742 27.5229 12.0742 27.5226 12.0742L14.194 12.0705L18.169 11.318L8.57206 4.80304L5.4675 5.39081Z"/>
            </g>
            <defs>
                <clipPath id="clip0_1070_12980">
                    <rect width="40" height="40" fill="white"/>
                </clipPath>
            </defs>
        </symbol>
        <symbol viewBox="0 0 32 32" id="icon-grid">
            <path d="M0 2.85714C0 1.27919 1.27919 0 2.85714 0H10.8571C12.4351 0 13.7143 1.27919 13.7143 2.85714V10.8571C13.7143 12.4351 12.4351 13.7143 10.8571 13.7143H2.85714C1.27919 13.7143 0 12.4351 0 10.8571V2.85714Z"/>
            <path d="M0 21.1429C0 19.5649 1.27919 18.2857 2.85714 18.2857H10.8571C12.4351 18.2857 13.7143 19.5649 13.7143 21.1429V29.1429C13.7143 30.7208 12.4351 32 10.8571 32H2.85714C1.27919 32 0 30.7208 0 29.1429V21.1429Z"/>
            <path d="M18.2857 2.85714C18.2857 1.27919 19.5649 0 21.1429 0H29.1429C30.7208 0 32 1.27919 32 2.85714V10.8571C32 12.4351 30.7208 13.7143 29.1429 13.7143H21.1429C19.5649 13.7143 18.2857 12.4351 18.2857 10.8571V2.85714Z"/>
            <path d="M18.2857 21.1429C18.2857 19.5649 19.5649 18.2857 21.1429 18.2857H29.1429C30.7208 18.2857 32 19.5649 32 21.1429V29.1429C32 30.7208 30.7208 32 29.1429 32H21.1429C19.5649 32 18.2857 30.7208 18.2857 29.1429V21.1429Z"/>
        </symbol>
        <symbol viewBox="0 0 32 32" id="icon-list">
            <path d="M0 3.33333C0 1.49238 1.49238 0 3.33333 0H28.6667C30.5076 0 32 1.49238 32 3.33333V10C32 11.8409 30.5076 13.3333 28.6667 13.3333H3.33333C1.49238 13.3333 0 11.8409 0 10V3.33333Z"/>
            <path d="M0 22C0 20.1591 1.49238 18.6667 3.33333 18.6667H28.6667C30.5076 18.6667 32 20.1591 32 22V28.6667C32 30.5076 30.5076 32 28.6667 32H3.33333C1.49238 32 0 30.5076 0 28.6667V22Z"/>
        </symbol>


    </defs>
</svg>
