<svg width="40" height="40" viewBox="0 0 40 40" fill="none" xmlns="http://www.w3.org/2000/svg">
<g clip-path="url(#clip0_1070_13121)">
<g clip-path="url(#clip1_1070_13121)">
<path d="M31.7188 23.5156H29.9466C29.8224 23.1646 29.6797 22.8205 29.5187 22.4845L30.7723 21.231C31.2297 20.7738 31.23 20.0313 30.7723 19.5738L27.4574 16.2588C27.0002 15.8015 26.2577 15.8012 25.8002 16.2588L24.5466 17.5124C24.2106 17.3515 23.8666 17.2088 23.5155 17.0846V15.3125C23.5155 14.6653 22.9909 14.1406 22.3437 14.1406H17.6562C17.009 14.1406 16.4843 14.6653 16.4843 15.3125V17.0847C16.1333 17.2088 15.7892 17.3516 15.4532 17.5125L14.1997 16.2589C13.7425 15.8016 12.9999 15.8012 12.5424 16.2589L9.2275 19.5738C8.77016 20.031 8.76984 20.7736 9.2275 21.2311L10.4811 22.4846C10.3202 22.8206 10.1774 23.1647 10.0533 23.5157H8.28125C7.63406 23.5157 7.10938 24.0404 7.10938 24.6876V29.3751C7.10938 30.0223 7.63406 30.547 8.28125 30.547H10.0534C10.1776 30.898 10.3203 31.242 10.4813 31.578L9.22766 32.8316C8.77031 33.2887 8.77 34.0313 9.22766 34.4888L12.5426 37.8037C12.9998 38.2611 13.7423 38.2614 14.1998 37.8037L15.4534 36.5502C15.7894 36.7111 16.1334 36.8538 16.4845 36.978V38.75C16.4845 39.3972 17.0091 39.9219 17.6563 39.9219H22.3438C22.991 39.9219 23.5157 39.3972 23.5157 38.75V36.9778C23.8667 36.8537 24.2108 36.7109 24.5468 36.55L25.8003 37.8036C26.2575 38.2609 27.0001 38.2612 27.4576 37.8036L30.7725 34.4887C31.2298 34.0315 31.2302 33.2889 30.7725 32.8314L29.5189 31.5779C29.6798 31.2419 29.8226 30.8978 29.9467 30.5468H31.7188C32.3659 30.5468 32.8906 30.0221 32.8906 29.3749V24.6874C32.8906 24.0403 32.3659 23.5156 31.7188 23.5156ZM20 32.8906C16.7691 32.8906 14.1406 30.2621 14.1406 27.0312C14.1406 23.8004 16.7691 21.1719 20 21.1719C23.2309 21.1719 25.8594 23.8004 25.8594 27.0312C25.8594 30.2621 23.2309 32.8906 20 32.8906Z" fill="#0BC594"/>
<path d="M36.4844 0.078125H3.51562C1.57734 0.078125 0 1.65547 0 3.59375V9.45312H40V3.59375C40 1.65547 38.4227 0.078125 36.4844 0.078125ZM5.9375 7.10938C5.29063 7.10938 4.76562 6.58437 4.76562 5.9375C4.76562 5.29063 5.29063 4.76562 5.9375 4.76562C6.58437 4.76562 7.10938 5.29063 7.10938 5.9375C7.10938 6.58437 6.58437 7.10938 5.9375 7.10938ZM10.625 7.10938C9.97812 7.10938 9.45312 6.58437 9.45312 5.9375C9.45312 5.29063 9.97812 4.76562 10.625 4.76562C11.2719 4.76562 11.7969 5.29063 11.7969 5.9375C11.7969 6.58437 11.2719 7.10938 10.625 7.10938ZM15.3125 7.10938C14.6656 7.10938 14.1406 6.58437 14.1406 5.9375C14.1406 5.29063 14.6656 4.76562 15.3125 4.76562C15.9594 4.76562 16.4844 5.29063 16.4844 5.9375C16.4844 6.58437 15.9594 7.10938 15.3125 7.10938ZM34.0625 7.10938H27.0312C26.3844 7.10938 25.8594 6.58437 25.8594 5.9375C25.8594 5.29063 26.3844 4.76562 27.0312 4.76562H34.0625C34.7094 4.76562 35.2344 5.29063 35.2344 5.9375C35.2344 6.58437 34.7094 7.10938 34.0625 7.10938Z" fill="#0BC594"/>
<path d="M6.72578 32.5273C5.56562 31.9531 4.76562 30.7555 4.76562 29.375V24.6875C4.76562 23.307 5.56562 22.1094 6.72578 21.5352C6.60391 21.175 6.54063 20.7937 6.54063 20.4023C6.54063 19.4633 6.90625 18.5805 7.57031 17.9164L10.8852 14.6016C11.5492 13.9375 12.432 13.5719 13.3711 13.5719C13.7625 13.5719 14.1437 13.6352 14.5039 13.757C15.0781 12.5969 16.2758 11.7969 17.6562 11.7969H0V31.7188C0 33.657 1.57734 35.2344 3.51562 35.2344H6.91094C6.66875 34.7523 6.54063 34.2156 6.54063 33.6602C6.54063 33.2688 6.60391 32.8875 6.72578 32.5273Z" fill="#0BC594"/>
<path d="M25.4961 13.757C25.8563 13.6352 26.2375 13.5719 26.6289 13.5719C27.568 13.5719 28.4508 13.9375 29.1148 14.6016L32.4297 17.9164C33.0938 18.5805 33.4594 19.4633 33.4594 20.4023C33.4594 20.7937 33.3961 21.175 33.2742 21.5352C34.4344 22.1094 35.2344 23.307 35.2344 24.6875V29.375C35.2344 30.7555 34.4344 31.9531 33.2742 32.5273C33.3961 32.8875 33.4594 33.2688 33.4594 33.6602C33.4594 34.2156 33.3313 34.7523 33.0891 35.2344H36.4844C38.4227 35.2344 40 33.657 40 31.7188V11.7969H22.3438C23.7242 11.7969 24.9219 12.5969 25.4961 13.757Z" fill="#0BC594"/>
</g>
</g>
<defs>
<clipPath id="clip0_1070_13121">
<rect width="40" height="40" fill="white"/>
</clipPath>
<clipPath id="clip1_1070_13121">
<rect width="40" height="40" fill="white"/>
</clipPath>
</defs>
</svg>
