<svg width="60" height="60" viewBox="0 0 60 60" fill="none" xmlns="http://www.w3.org/2000/svg">
<g clip-path="url(#clip0_1070_12841)">
<path d="M11.25 15.6248V4.37476C11.25 3.72476 11.325 3.09976 11.5 2.49976H4.375C1.975 2.49976 0 4.47476 0 6.87476V18.1248C0 20.5248 1.975 22.4998 4.375 22.4998H5.3L8.5 26.7498C8.85 27.1998 9.375 27.4748 9.925 27.4998H10C10.55 27.4998 11.05 27.2748 11.4 26.8498L15.15 22.5748C12.825 21.1248 11.25 18.5498 11.25 15.6248Z" fill="#0BC594"/>
<path d="M55.6256 2.49976H48.5006C48.6756 3.09976 48.7506 3.72476 48.7506 4.37476V15.6248C48.7506 18.5498 47.1756 21.1248 44.8506 22.5748L48.6006 26.8498C48.9506 27.2748 49.4506 27.4998 50.0006 27.4998H50.0756C50.6256 27.4748 51.1506 27.1998 51.5006 26.7498L54.6756 22.4998H55.6256C58.0256 22.4998 60.0006 20.5248 60.0006 18.1248V6.87476C60.0006 4.47476 58.0256 2.49976 55.6256 2.49976Z" fill="#0BC594"/>
<path d="M30 25C29.9775 25 29.9525 25 29.93 25C29.365 24.9775 28.84 24.7025 28.5 24.25L25.3125 20H19.375C16.9625 20 15 18.0375 15 15.625V4.375C15 1.9625 16.9625 0 19.375 0H40.625C43.0375 0 45 1.9625 45 4.375V15.625C45 18.0375 43.0375 20 40.625 20H35.225L31.41 24.36C31.055 24.7675 30.54 25 30 25Z" fill="#0BC594"/>
<path d="M10 42.4997C12.7614 42.4997 15 40.2612 15 37.4998C15 34.7383 12.7614 32.4998 10 32.4998C7.23857 32.4998 5 34.7383 5 37.4998C5 40.2612 7.23857 42.4997 10 42.4997Z" fill="#0BC594"/>
<path d="M16.675 46C14.15 47.9 12.5 50.95 12.5 54.375V55H1.875C0.85 55 0 54.15 0 53.125V51.875C0 48.075 3.075 45 6.875 45H13.125C14.425 45 15.65 45.375 16.675 46Z" fill="#0BC594"/>
<path d="M50 42.4997C52.7614 42.4997 55 40.2612 55 37.4998C55 34.7383 52.7614 32.4998 50 32.4998C47.2386 32.4998 45 34.7383 45 37.4998C45 40.2612 47.2386 42.4997 50 42.4997Z" fill="#0BC594"/>
<path d="M60.0012 51.875V53.125C60.0012 54.15 59.1512 55 58.1262 55H47.5012V54.375C47.5012 50.95 45.8512 47.9 43.3262 46C44.3512 45.375 45.5762 45 46.8762 45H53.1262C56.9262 45 60.0012 48.075 60.0012 51.875Z" fill="#0BC594"/>
<path d="M30 43.7498C34.1421 43.7498 37.5 40.3919 37.5 36.2498C37.5 32.1076 34.1421 28.7498 30 28.7498C25.8579 28.7498 22.5 32.1076 22.5 36.2498C22.5 40.3919 25.8579 43.7498 30 43.7498Z" fill="#0BC594"/>
<path d="M36.875 47.4998H23.125C19.3325 47.4998 16.25 50.5823 16.25 54.3748V58.1248C16.25 59.1598 17.09 59.9998 18.125 59.9998H41.875C42.91 59.9998 43.75 59.1598 43.75 58.1248V54.3748C43.75 50.5823 40.6675 47.4998 36.875 47.4998Z" fill="#0BC594"/>
</g>
<defs>
<clipPath id="clip0_1070_12841">
<rect width="60" height="60" fill="white"/>
</clipPath>
</defs>
</svg>
