<svg width="40" height="40" viewBox="0 0 40 40" fill="none" xmlns="http://www.w3.org/2000/svg">
<g clip-path="url(#clip0_1070_13027)">
<path fill-rule="evenodd" clip-rule="evenodd" d="M8.93781 21.4253C9.84759 21.4253 10.7369 21.6951 11.4934 22.2005C12.2498 22.706 12.8394 23.4244 13.1876 24.2649C13.5357 25.1054 13.6268 26.0303 13.4493 26.9226C13.2719 27.8149 12.8338 28.6345 12.1904 29.2779C11.5471 29.9212 10.7275 30.3593 9.83521 30.5368C8.94291 30.7142 8.01802 30.6231 7.1775 30.275C6.33697 29.9268 5.61856 29.3372 5.11312 28.5808C4.60767 27.8243 4.33789 26.935 4.33789 26.0252C4.34119 24.8063 4.82688 23.6382 5.68882 22.7762C6.55076 21.9143 7.71885 21.4286 8.93781 21.4253Z" fill="#0BC594"/>
<path fill-rule="evenodd" clip-rule="evenodd" d="M1 40H16.8747L16.7247 38.1501C16.6086 36.7209 15.9593 35.3876 14.9057 34.4151C13.8521 33.4425 12.4712 32.9017 11.0373 32.9001H6.8374C5.40352 32.9017 4.02266 33.4425 2.96904 34.4151C1.91541 35.3876 1.26609 36.7209 1.15 38.1501L1 40Z" fill="#0BC594"/>
<path fill-rule="evenodd" clip-rule="evenodd" d="M30.1868 21.4254C31.0966 21.4254 31.986 21.6951 32.7424 22.2006C33.4989 22.706 34.0885 23.4244 34.4366 24.265C34.7848 25.1055 34.8759 26.0304 34.6984 26.9227C34.5209 27.815 34.0828 28.6346 33.4395 29.2779C32.7962 29.9212 31.9765 30.3593 31.0842 30.5368C30.1919 30.7143 29.267 30.6232 28.4265 30.2751C27.586 29.9269 26.8676 29.3373 26.3621 28.5809C25.8567 27.8244 25.5869 26.9351 25.5869 26.0253C25.5902 24.8063 26.0759 23.6382 26.9378 22.7763C27.7998 21.9143 28.9679 21.4287 30.1868 21.4254Z" fill="#0BC594"/>
<path fill-rule="evenodd" clip-rule="evenodd" d="M38.1247 40L37.9747 38.1501C37.8586 36.7209 37.2093 35.3876 36.1557 34.4151C35.1021 33.4425 33.7212 32.9017 32.2873 32.9001H28.0874C26.6535 32.9017 25.2727 33.4425 24.219 34.4151C23.1654 35.3876 22.5161 36.7209 22.4 38.1501L22.25 40H38.1247Z" fill="#0BC594"/>
<path fill-rule="evenodd" clip-rule="evenodd" d="M28.1249 0.000686095H11.0002C10.6238 -0.000968283 10.2508 0.0719419 9.90281 0.215208C9.55477 0.358473 9.23856 0.569257 8.97243 0.83539C8.70629 1.10152 8.49551 1.41773 8.35224 1.76577C8.20898 2.11381 8.13607 2.48677 8.13772 2.86314V14.2879C8.13608 14.6633 8.20858 15.0352 8.35106 15.3824C8.49355 15.7296 8.70322 16.0453 8.96802 16.3112C9.23283 16.5772 9.54756 16.7883 9.89415 16.9323C10.2407 17.0763 10.6124 17.1504 10.9877 17.1504H14.7376C14.9252 17.1491 15.1112 17.1849 15.285 17.2557C15.4587 17.3265 15.6168 17.4309 15.7501 17.5629L18.6 20.4253C18.7325 20.5591 18.8902 20.6653 19.064 20.7378C19.2378 20.8103 19.4242 20.8476 19.6125 20.8476C19.8008 20.8476 19.9872 20.8103 20.161 20.7378C20.3348 20.6653 20.4925 20.5591 20.625 20.4253L23.425 17.5004C23.5583 17.3684 23.7163 17.264 23.8901 17.1932C24.0638 17.1224 24.2498 17.0866 24.4374 17.0879H28.1874C28.5627 17.0879 28.9343 17.0138 29.2809 16.8698C29.6275 16.7258 29.9422 16.5147 30.207 16.2487C30.4718 15.9828 30.6815 15.6671 30.824 15.3199C30.9665 14.9727 31.039 14.6008 31.0373 14.2254V2.86314C31.0391 2.48251 30.9646 2.10538 30.8182 1.75402C30.6718 1.40265 30.4566 1.08417 30.1851 0.81736C29.9136 0.550552 29.5915 0.340827 29.2376 0.200562C28.8838 0.060297 28.5054 -0.0076652 28.1249 0.000686095ZM15.2751 9.63802C15.0625 9.63802 14.8547 9.57497 14.6779 9.45685C14.5011 9.33873 14.3633 9.17084 14.2819 8.97442C14.2006 8.77799 14.1793 8.56185 14.2208 8.35332C14.2623 8.1448 14.3646 7.95325 14.515 7.80291C14.6653 7.65257 14.8569 7.55019 15.0654 7.50871C15.2739 7.46724 15.4901 7.48852 15.6865 7.56989C15.8829 7.65125 16.0508 7.78903 16.1689 7.96581C16.287 8.14259 16.3501 8.35043 16.3501 8.56304C16.3501 8.84814 16.2368 9.12157 16.0352 9.32317C15.8336 9.52476 15.5602 9.63802 15.2751 9.63802ZM19.5625 9.63802C19.3499 9.63802 19.1421 9.57497 18.9653 9.45685C18.7885 9.33873 18.6507 9.17084 18.5694 8.97442C18.488 8.77799 18.4667 8.56185 18.5082 8.35332C18.5497 8.1448 18.6521 7.95325 18.8024 7.80291C18.9527 7.65257 19.1443 7.55019 19.3528 7.50871C19.5613 7.46724 19.7775 7.48852 19.9739 7.56989C20.1703 7.65125 20.3382 7.78903 20.4563 7.96581C20.5745 8.14259 20.6375 8.35043 20.6375 8.56304C20.6375 8.84814 20.5243 9.12157 20.3227 9.32317C20.1211 9.52476 19.8476 9.63802 19.5625 9.63802ZM23.85 9.63802C23.6373 9.63802 23.4295 9.57497 23.2527 9.45685C23.0759 9.33873 22.9382 9.17084 22.8568 8.97442C22.7754 8.77799 22.7541 8.56185 22.7956 8.35332C22.8371 8.1448 22.9395 7.95325 23.0898 7.80291C23.2402 7.65257 23.4317 7.55019 23.6402 7.50871C23.8488 7.46724 24.0649 7.48852 24.2613 7.56989C24.4578 7.65125 24.6256 7.78903 24.7438 7.96581C24.8619 8.14259 24.9249 8.35043 24.9249 8.56304C24.9249 8.84814 24.8117 9.12157 24.6101 9.32317C24.4085 9.52476 24.1351 9.63802 23.85 9.63802Z" fill="#0BC594"/>
<path d="M15.2751 9.63802C15.0625 9.63802 14.8547 9.57497 14.6779 9.45685C14.5011 9.33873 14.3633 9.17084 14.2819 8.97442C14.2006 8.77799 14.1793 8.56185 14.2208 8.35332C14.2623 8.1448 14.3646 7.95325 14.515 7.80291C14.6653 7.65257 14.8569 7.55019 15.0654 7.50871C15.2739 7.46724 15.4901 7.48852 15.6865 7.56989C15.8829 7.65125 16.0508 7.78903 16.1689 7.96581C16.287 8.14259 16.3501 8.35043 16.3501 8.56304C16.3501 8.84814 16.2368 9.12157 16.0352 9.32317C15.8336 9.52476 15.5602 9.63802 15.2751 9.63802Z" fill="#0BC594"/>
<path d="M19.5625 9.63802C19.3499 9.63802 19.1421 9.57497 18.9653 9.45685C18.7885 9.33873 18.6507 9.17084 18.5694 8.97442C18.488 8.77799 18.4667 8.56185 18.5082 8.35332C18.5497 8.1448 18.6521 7.95325 18.8024 7.80291C18.9527 7.65257 19.1443 7.55019 19.3528 7.50871C19.5613 7.46724 19.7775 7.48852 19.9739 7.56989C20.1703 7.65125 20.3382 7.78903 20.4563 7.96581C20.5745 8.14259 20.6375 8.35043 20.6375 8.56304C20.6375 8.84814 20.5243 9.12157 20.3227 9.32317C20.1211 9.52476 19.8476 9.63802 19.5625 9.63802Z" fill="#0BC594"/>
<path d="M23.85 9.63802C23.6373 9.63802 23.4295 9.57497 23.2527 9.45685C23.0759 9.33873 22.9382 9.17084 22.8568 8.97442C22.7754 8.77799 22.7541 8.56185 22.7956 8.35332C22.8371 8.1448 22.9395 7.95325 23.0898 7.80291C23.2402 7.65257 23.4317 7.55019 23.6402 7.50871C23.8488 7.46724 24.0649 7.48852 24.2613 7.56989C24.4578 7.65125 24.6256 7.78903 24.7438 7.96581C24.8619 8.14259 24.9249 8.35043 24.9249 8.56304C24.9249 8.84814 24.8117 9.12157 24.6101 9.32317C24.4085 9.52476 24.1351 9.63802 23.85 9.63802Z" fill="#0BC594"/>
</g>
<defs>
<clipPath id="clip0_1070_13027">
<rect width="40" height="40" fill="white"/>
</clipPath>
</defs>
</svg>
