<svg width="40" height="40" viewBox="0 0 40 40" fill="none" xmlns="http://www.w3.org/2000/svg">
<g clip-path="url(#clip0_1070_12980)">
<path d="M26.8109 9.68221L17.2137 3.167L20.4766 2.54962L30.0738 9.06453L27.8226 9.49056L33.1787 8.47676L23.5815 1.96185L11.835 4.18537L21.4322 10.7003L26.8109 9.68221Z" fill="#0BC594"/>
<path d="M38.2354 7.51945C38.5409 7.46177 38.811 7.28477 38.9862 7.0275C39.161 6.77054 39.227 6.45438 39.1687 6.1489L38.6776 3.56893C38.2254 1.19283 35.9198 -0.373643 33.5366 0.0774081L26.8447 1.3442L36.4419 7.85911L38.2354 7.51945Z" fill="#0BC594"/>
<path d="M6.84802 20.2542L6.84375 33.8077L33.5272 33.815L33.5314 20.2615L6.84802 20.2542Z" fill="#0BC594"/>
<path d="M35.4301 40H35.4313C37.8553 40 39.8283 38.0331 39.8295 35.6152L39.8347 20.2633L35.876 20.2624L35.8714 34.9875C35.8711 35.6347 35.3465 36.159 34.6995 36.159C34.6992 36.159 34.6992 36.159 34.6992 36.159L5.67201 36.1511C5.36104 36.1511 5.06318 36.0275 4.84346 35.8078C4.62373 35.5878 4.50044 35.2896 4.50044 34.9789L4.50502 20.2535L0.547181 20.2523L0.541993 35.6033C0.541382 36.7758 0.998842 37.8781 1.83045 38.7073C2.66083 39.5352 3.76466 39.9997 4.93867 40H35.4301Z" fill="#0BC594"/>
<path d="M5.4675 5.39081L15.0644 11.9057L11.8014 12.5234L2.40749 6.14612L2.40322 6.14795C1.75106 6.47785 1.18862 6.96766 0.765034 7.58717C0.103106 8.5561 -0.14073 9.72401 0.0783864 10.8761L0.548969 13.3492L0.547443 17.9085L39.835 17.9198L39.8368 13.2494C39.8368 12.9387 39.7135 12.6406 39.4938 12.4206C39.2741 12.2008 38.9759 12.0772 38.6652 12.0772L34.0046 12.076C34.0043 12.076 34.0043 12.076 34.0043 12.076L27.5232 12.0742C27.5229 12.0742 27.5229 12.0742 27.5226 12.0742L14.194 12.0705L18.169 11.318L8.57206 4.80304L5.4675 5.39081Z" fill="#0BC594"/>
</g>
<defs>
<clipPath id="clip0_1070_12980">
<rect width="40" height="40" fill="white"/>
</clipPath>
</defs>
</svg>
