<svg width="40" height="40" viewBox="0 0 40 40" fill="none" xmlns="http://www.w3.org/2000/svg">
<g clip-path="url(#clip0_1070_12933)">
<path d="M36.6665 0H3.3335C1.5005 0 0 1.5005 0 3.3335V30C0 31.8325 1.5005 33.3335 3.3335 33.3335H18.3335V36.6665H13.3335C11.4925 36.6665 10 38.1575 10 40L30 39.9965C30 38.1575 28.5075 36.6635 26.6665 36.6635H21.6665V33.3335H36.6665C38.4995 33.3335 40 31.8325 40 30V3.3335C40 1.5005 38.4995 0 36.6665 0ZM13.5775 20.7325L11.81 22.5L7.1545 17.845C6.5035 17.1935 6.5035 16.139 7.1545 15.488L11.81 10.833L13.5775 12.6005L9.5115 16.666L13.5775 20.7325ZM19.6145 24.1665H17.051L20.386 9.1665H22.9495L19.6145 24.1665ZM32.845 17.845L28.19 22.5L26.4225 20.7325L30.4885 16.6665L26.4225 12.601L28.19 10.8335L32.8455 15.4885C33.496 16.136 33.496 17.194 32.845 17.845Z" fill="#0BC594"/>
</g>
<defs>
<clipPath id="clip0_1070_12933">
<rect width="40" height="40" fill="white"/>
</clipPath>
</defs>
</svg>
