<svg width="32" height="32" viewBox="0 0 32 32" fill="none" xmlns="http://www.w3.org/2000/svg">
<path d="M0 2.85714C0 1.27919 1.27919 0 2.85714 0H10.8571C12.4351 0 13.7143 1.27919 13.7143 2.85714V10.8571C13.7143 12.4351 12.4351 13.7143 10.8571 13.7143H2.85714C1.27919 13.7143 0 12.4351 0 10.8571V2.85714Z" fill="#0BC594"/>
<path d="M0 21.1429C0 19.5649 1.27919 18.2857 2.85714 18.2857H10.8571C12.4351 18.2857 13.7143 19.5649 13.7143 21.1429V29.1429C13.7143 30.7208 12.4351 32 10.8571 32H2.85714C1.27919 32 0 30.7208 0 29.1429V21.1429Z" fill="#0BC594"/>
<path d="M18.2857 2.85714C18.2857 1.27919 19.5649 0 21.1429 0H29.1429C30.7208 0 32 1.27919 32 2.85714V10.8571C32 12.4351 30.7208 13.7143 29.1429 13.7143H21.1429C19.5649 13.7143 18.2857 12.4351 18.2857 10.8571V2.85714Z" fill="#0BC594"/>
<path d="M18.2857 21.1429C18.2857 19.5649 19.5649 18.2857 21.1429 18.2857H29.1429C30.7208 18.2857 32 19.5649 32 21.1429V29.1429C32 30.7208 30.7208 32 29.1429 32H21.1429C19.5649 32 18.2857 30.7208 18.2857 29.1429V21.1429Z" fill="#0BC594"/>
</svg>
