<svg width="32" height="32" viewBox="0 0 32 32" fill="none" xmlns="http://www.w3.org/2000/svg">
<g clip-path="url(#clip0_1357_973)">
<path d="M31.2116 10.6113C31.5654 10.32 31.6568 9.81565 31.4277 9.41878L29.0726 5.33971C28.8434 4.94277 28.3609 4.76984 27.9318 4.93052L27.1299 5.23096L30.5505 11.1555L31.2116 10.6113Z" fill="#0BC594"/>
<path d="M18.3478 22.3162C16.6651 22.8435 14.9707 23.5277 13.4304 24.4165L12.6152 24.887L16.1084 30.9373C16.282 31.2382 16.5971 31.4063 16.9211 31.4062C17.0802 31.4062 17.2414 31.3657 17.389 31.2805L21.1779 29.093C21.3932 28.9687 21.5503 28.7639 21.6147 28.5237C21.679 28.2835 21.6453 28.0277 21.521 27.8123L18.3478 22.3162Z" fill="#0BC594"/>
<path d="M4.00254 17.3712C3.49647 17.6634 3.13454 18.1351 2.98329 18.6994C2.91772 18.9441 2.89535 19.1934 2.9146 19.4386L0.475599 20.8196C0.258099 20.9427 0.098724 21.1477 0.032974 21.3889C-0.032776 21.6301 0.000661515 21.8876 0.125599 22.1041L2.33335 25.928C2.50685 26.2286 2.82191 26.3969 3.1461 26.3969C3.3026 26.3969 3.46129 26.3577 3.60716 26.2751L6.00322 24.9186C6.39516 25.2351 6.88422 25.4062 7.3826 25.4062C7.75347 25.4062 8.12904 25.312 8.4726 25.1136L10.8653 23.7322L6.39504 15.99L4.00254 17.3712Z" fill="#0BC594"/>
<path d="M31.874 17.1992L22.5572 1.06237C22.3901 0.773062 22.0817 0.594563 21.7476 0.59375C21.7468 0.59375 21.7461 0.59375 21.7452 0.59375C21.4121 0.59375 21.1038 0.770688 20.9357 1.0585C20.8781 1.15713 15.0927 10.9683 8.01855 15.0524L12.4888 22.7946C16.4357 20.516 21.2539 19.498 24.601 19.0453C28.2523 18.5514 30.9978 18.6043 31.0406 18.6052C31.3784 18.6132 31.6958 18.4374 31.8686 18.146C32.0413 17.8546 32.0434 17.4926 31.874 17.1992Z" fill="#0BC594"/>
</g>
<defs>
<clipPath id="clip0_1357_973">
<rect width="32" height="32" fill="white"/>
</clipPath>
</defs>
</svg>
