<svg width="32" height="32" viewBox="0 0 32 32" fill="none" xmlns="http://www.w3.org/2000/svg">
<path d="M0 3.33333C0 1.49238 1.49238 0 3.33333 0H28.6667C30.5076 0 32 1.49238 32 3.33333V10C32 11.8409 30.5076 13.3333 28.6667 13.3333H3.33333C1.49238 13.3333 0 11.8409 0 10V3.33333Z" fill="#0BC594"/>
<path d="M0 22C0 20.1591 1.49238 18.6667 3.33333 18.6667H28.6667C30.5076 18.6667 32 20.1591 32 22V28.6667C32 30.5076 30.5076 32 28.6667 32H3.33333C1.49238 32 0 30.5076 0 28.6667V22Z" fill="#0BC594"/>
</svg>
