<svg width="40" height="40" viewBox="0 0 40 40" fill="none" xmlns="http://www.w3.org/2000/svg">
<path d="M19.8575 6.33219C21.6061 6.33219 23.0236 4.91468 23.0236 3.16609C23.0236 1.41751 21.6061 0 19.8575 0C18.1089 0 16.6914 1.41751 16.6914 3.16609C16.6914 4.91468 18.1089 6.33219 19.8575 6.33219Z" fill="#0BC594"/>
<path d="M5.16609 19.4785C6.91468 19.4785 8.33219 18.061 8.33219 16.3124C8.33219 14.5638 6.91468 13.1463 5.16609 13.1463C3.41751 13.1463 2 14.5638 2 16.3124C2 18.061 3.41751 19.4785 5.16609 19.4785Z" fill="#0BC594"/>
<path d="M34.3651 17.3679C35.9194 17.3679 37.1794 16.1078 37.1794 14.5536C37.1794 12.9993 35.9194 11.7393 34.3651 11.7393C32.8108 11.7393 31.5508 12.9993 31.5508 14.5536C31.5508 16.1078 32.8108 17.3679 34.3651 17.3679Z" fill="#0BC594"/>
<path d="M24.9244 39.6665V16.3249C24.9244 16.1408 24.7751 15.9915 24.5909 15.9915H14.5873C14.4032 15.9915 14.2539 16.1408 14.2539 16.3249V39.6665C14.2539 39.8506 14.4032 39.9999 14.5873 39.9999H24.5909C24.7751 40 24.9244 39.8507 24.9244 39.6665Z" fill="#0BC594"/>
<path d="M26.5922 40H36.5957C36.7799 40 36.9292 39.8507 36.9292 39.6665V23.3274C36.9292 23.1433 36.7799 22.994 36.5957 22.994H26.5922C26.4081 22.994 26.2588 23.1433 26.2588 23.3274V39.6665C26.2588 39.8507 26.408 40 26.5922 40Z" fill="#0BC594"/>
<path d="M12.587 26.3285H2.58344C2.3993 26.3285 2.25 26.4778 2.25 26.6619V39.6665C2.25 39.8507 2.3993 40 2.58344 40H12.587C12.7711 40 12.9204 39.8507 12.9204 39.6665V26.6619C12.9204 26.4778 12.7712 26.3285 12.587 26.3285Z" fill="#0BC594"/>
<path d="M8.37625 13.5662L16.0056 5.9368C15.7225 5.48321 15.5127 4.97961 15.392 4.4425L7.32227 12.5122C7.72531 12.8074 8.08102 13.1631 8.37625 13.5662Z" fill="#0BC594"/>
<path d="M31.019 12.1932C31.2854 11.7678 31.621 11.3903 32.0103 11.0765L24.3757 3.44202C24.3679 4.0617 24.2431 4.65342 24.0225 5.19663L31.019 12.1932Z" fill="#0BC594"/>
</svg>
