<svg width="32" height="32" viewBox="0 0 32 32" fill="none" xmlns="http://www.w3.org/2000/svg">
<path d="M17.3645 13.473H15.0624V7.53121H10.0582V5.22915C10.0582 3.83352 8.92681 2.70215 7.53119 2.70215C6.13556 2.70215 5.00419 3.83352 5.00419 5.22915V7.53121H0V24.4687H5.00425V22.1666C5.00425 20.771 6.13562 19.6396 7.53125 19.6396C8.92688 19.6396 10.0583 20.771 10.0583 22.1666V24.4687H15.0625V18.527H17.3646C18.7602 18.527 19.8916 17.3956 19.8916 16C19.8916 14.6043 18.7601 13.473 17.3645 13.473Z" fill="#0BC594"/>
<path d="M26.9958 7.53121V5.22915C26.9958 3.83352 25.8644 2.70215 24.4688 2.70215C23.0731 2.70215 21.9417 3.83352 21.9417 5.22915V7.53121H16.9375V11.5979H17.3644C19.7917 11.5979 21.7665 13.5726 21.7665 16C21.7665 18.4273 19.7917 20.402 17.3644 20.402H16.9375V24.4687H21.9417V26.7708C21.9417 28.1664 23.0731 29.2978 24.4688 29.2978C25.8644 29.2978 26.9958 28.1664 26.9958 26.7708V24.4687H32V7.53121H26.9958Z" fill="#0BC594"/>
</svg>
